<svg id="Layer_1" data-name="Layer 1" xmlns="http://www.w3.org/2000/svg" width="70" height="66" viewBox="0 0 70 66"><title>Icon</title><path d="M38.86,52c1.33-.29,2.57-.49,3.78-.85A28.33,28.33,0,0,0,60.88,35.54a1,1,0,0,0-.07-1.08c-1-1.51-1.89-3-2.82-4.56a1.81,1.81,0,0,1-.09-.23l1.87-1.15L62,32.1h.15c.17-.64.39-1.26.5-1.91.24-1.42.41-2.86.64-4.29a.74.74,0,0,0-.33-.76c-1.49-1.15-3-2.33-4.52-3.55l1.4-1.77,3.37,2.64a6.85,6.85,0,0,0,0-1.21c-.31-1.73-.64-3.47-1-5.19,0-.21-.38-.44-.63-.53-1.62-.56-3.26-1.08-4.89-1.62-.12,0-.24-.1-.45-.19.21-.63.41-1.27.66-1.89,0-.07.36-.1.52-.05,1.57.5,3.12,1,4.68,1.54l.64.19,1.87-4.62,2.1.83c-.64,1.6-1.23,3.14-1.89,4.65a3.23,3.23,0,0,0-.17,2.06c.35,1.82.6,3.66.89,5.49,0,.14,0,.29.1.56L68,19.86l1.67,1.47c-.13.16-.24.31-.36.44-1.14,1.28-2.3,2.55-3.42,3.84a1.3,1.3,0,0,0-.34.74,31.68,31.68,0,0,1-1.1,6,5.21,5.21,0,0,0-.09.55l3.07-1.6,1.06,2L67.23,34c-1.24.66-2.48,1.29-3.69,2a1.75,1.75,0,0,0-.71.74A30.61,30.61,0,0,1,47.41,51.8L47,52s-.09.06-.25.16h4.11v9H19.16V52.2h3.77l0-.13-.67-.32A30.29,30.29,0,0,1,7.18,37a2.59,2.59,0,0,0-1.24-1.29c-1.41-.7-2.77-1.47-4.16-2.19-.34-.18-.41-.33-.23-.69.81-1.59.8-1.6,2.37-.74L5.51,33c-.25-1-.51-1.88-.67-2.77-.23-1.28-.36-2.57-.57-3.85a1.74,1.74,0,0,0-.36-.78c-1.1-1.26-2.23-2.5-3.35-3.75-.13-.14-.24-.28-.4-.48l1.66-1.49,2.39,2.64c.1-.95.15-1.75.29-2.54.23-1.37.54-2.72.79-4.09a1.78,1.78,0,0,0,0-.86C4.63,13.44,4,11.89,3.37,10.34c-.07-.19-.13-.38-.22-.63.62-.25,1.2-.5,1.81-.7.1,0,.37.18.44.33.48,1.12.92,2.26,1.38,3.39.1.24.2.48.34.79l3.16-1c.74-.24,1.47-.51,2.21-.73.14,0,.44.05.48.15.24.59.42,1.2.63,1.85-1.77.59-3.5,1.19-5.24,1.74a1.07,1.07,0,0,0-.84.84,29.22,29.22,0,0,0-1,6.19L10,19.82l1.41,1.75L9.1,23.38c-.76.6-1.52,1.18-2.26,1.8a.84.84,0,0,0-.31.54,25.21,25.21,0,0,0,1.19,6.53C8.51,31,9.25,29.78,10,28.52l1.9,1.15c-.12.22-.22.42-.33.6C10.76,31.65,9.93,33,9.05,34.4A1.12,1.12,0,0,0,9,35.64,28.54,28.54,0,0,0,22.42,49.33a27.52,27.52,0,0,0,8.08,2.52l.67.07c-.71-1.87-1.39-3.69-2.08-5.5a6,6,0,0,0-.36-1,2,2,0,0,1,.11-2.24c.39-.62.66-1.32,1-1.95a.83.83,0,0,1,.58-.37q4.57,0,9.13,0a.79.79,0,0,1,.58.37c.48.88.94,1.77,1.35,2.67a1.19,1.19,0,0,1,0,.83c-.82,2.24-1.67,4.47-2.51,6.7C39,51.59,38.94,51.71,38.86,52Z"/><path d="M23.66,12.65,21.41.34c.21.08.36.12.5.19,2.68,1.33,5.37,2.65,8.05,4a.64.64,0,0,0,.91-.15C32.07,3.17,33.3,2,34.51.76a4,4,0,0,0,.37-.57c.29.26.44.39.58.53,1.24,1.22,2.48,2.44,3.69,3.68a.64.64,0,0,0,.91.14q4-2,8-4c.13-.07.27-.11.5-.21-.76,4.15-1.5,8.23-2.25,12.33Z"/><path d="M67.19,65.69H47.88l.69-.39c1.35-.67,2.7-1.35,4.06-2a.79.79,0,0,0,.54-.85c0-1.9,0-3.79,0-5.73h14c-.4,1.09-.74,2.16-1.2,3.18a2.79,2.79,0,0,0,0,2.56C66.44,63.47,66.77,64.56,67.19,65.69Z"/><path d="M22,65.69H2.85c.06-.2.11-.37.17-.53.44-1.16.9-2.31,1.3-3.49a1.54,1.54,0,0,0,0-1c-.39-1.15-.85-2.29-1.28-3.43-.06-.17-.11-.35-.18-.57h14v.58c0,1.75,0,3.49,0,5.24a.68.68,0,0,0,.42.7c1.58.76,3.14,1.55,4.71,2.33Z"/><path d="M47.49,43.14c-1.12,0-2.23,0-3.35,0a.68.68,0,0,1-.73-.46c-.42-.9-.9-1.77-1.32-2.68a1.3,1.3,0,0,1-.1-.8c.6-2.42,1.21-4.85,1.84-7.26a1.07,1.07,0,0,1,.43-.6c.88-.47,1.8-.88,2.68-1.34a.55.55,0,0,1,.71.08c2,1.75,4.08,3.47,6.1,5.23A.89.89,0,0,1,54,36a18.56,18.56,0,0,1-2.43,6.75.67.67,0,0,1-.68.37C49.76,43.13,48.62,43.14,47.49,43.14Z"/><path d="M22.52,43.14c-1.12,0-2.23,0-3.35,0a.74.74,0,0,1-.75-.43A19.64,19.64,0,0,1,16,36.19a.9.9,0,0,1,.34-1q2.91-2.43,5.77-4.93a.91.91,0,0,1,1.23-.16c.76.45,1.59.78,2.37,1.2a1,1,0,0,1,.46.57c.64,2.44,1.25,4.88,1.85,7.32A1.21,1.21,0,0,1,28,40c-.44.94-.93,1.85-1.38,2.78a.6.6,0,0,1-.65.4c-1.13,0-2.27,0-3.4,0Z"/><path d="M33.88,22.87c0,.77,0,1.54,0,2.31a.76.76,0,0,1-.33.56c-2,1.18-4.08,2.35-6.14,3.49a.88.88,0,0,1-.71,0q-1.41-.65-2.79-1.38a1.1,1.1,0,0,1-.48-.62c-.64-2.45-1.24-4.91-1.88-7.36a.72.72,0,0,1,.28-.87l3.58-2.65a.7.7,0,0,1,.83-.05q3.62,1.82,7.24,3.6a.64.64,0,0,1,.42.69C33.86,21.37,33.88,22.12,33.88,22.87Z"/><path d="M36.15,22.83c0-.75,0-1.5,0-2.25A.57.57,0,0,1,36.5,20c2.45-1.2,4.89-2.43,7.35-3.63a.84.84,0,0,1,.71,0c1.25.89,2.48,1.83,3.72,2.74a.6.6,0,0,1,.22.73c-.64,2.49-1.25,5-1.9,7.47a1,1,0,0,1-.46.57c-.91.49-1.84,1-2.79,1.38a1,1,0,0,1-.76,0c-2-1.11-4-2.27-6-3.39a.74.74,0,0,1-.45-.79C36.16,24.3,36.14,23.56,36.15,22.83Z"/><path d="M30.22,38.6c-.31-1.23-.61-2.47-.92-3.7-.27-1.06-.53-2.12-.82-3.17a.5.5,0,0,1,.3-.67c2-1.11,3.93-2.24,5.91-3.34a.84.84,0,0,1,.66,0c2,1.09,3.91,2.21,5.86,3.31a.53.53,0,0,1,.32.71q-.81,3.16-1.58,6.34c-.1.42-.28.56-.73.55-2.85,0-5.7,0-8.56,0Z"/><path d="M28.6,14.94a18.82,18.82,0,0,1,12.88,0l-2.93,1.47c-1.06.53-2.12,1.07-3.2,1.57a.77.77,0,0,1-.61,0c-2-1-3.92-1.94-5.88-2.91Z"/><path d="M50.41,21.52A19.33,19.33,0,0,1,54.3,32.73c-.25-.18-.4-.27-.54-.39-1.55-1.32-3.09-2.65-4.65-4a.64.64,0,0,1-.24-.77C49.38,25.64,49.87,23.66,50.41,21.52Z"/><path d="M15.8,32.65c-.39-2.72,1.86-9.23,3.83-11,.3,1.17.59,2.3.87,3.43.23.89.47,1.78.67,2.68a.69.69,0,0,1-.14.53c-1.66,1.43-3.32,2.84-5,4.26A2.6,2.6,0,0,1,15.8,32.65Z"/><path d="M41.65,51c.27-.73.5-1.34.73-1.94.4-1.07.79-2.15,1.21-3.21.07-.17.29-.39.44-.39,1.83,0,3.66,0,5.64,0A19.32,19.32,0,0,1,41.65,51Z"/><path d="M28.27,50.93a19.34,19.34,0,0,1-7.84-5.43c.09,0,.13-.09.18-.09,1.77,0,3.55,0,5.32,0a.59.59,0,0,1,.45.28c.65,1.66,1.27,3.33,1.89,5A.84.84,0,0,1,28.27,50.93Z"/><path d="M25.91,63.49V65l-2.84-1.4,0-.1Z"/><path d="M44.13,63.48h2.78l.05.1L44.13,65Z"/></svg>