<svg xmlns="http://www.w3.org/2000/svg" width="34" height="34" viewBox="0 0 34 34">
    <g fill="#FFF" fill-rule="nonzero">
        <path d="M34 17.35a.808.808 0 0 1-.223.551l-4.619 4.767a.762.762 0 0 1-1.092.006L16.976 11.41 5.977 22.764a.757.757 0 0 1-1.092.006L.23 18.04a.802.802 0 0 1-.006-1.119L16.385.233A.763.763 0 0 1 17.48.23L33.77 16.78c.151.151.233.358.23.572z"/>
        <path d="M29 30.07a.558.558 0 0 1-.158.383l-3.26 3.316a.544.544 0 0 1-.77.004l-7.829-7.836-7.764 7.899a.54.54 0 0 1-.77.004l-3.286-3.29a.552.552 0 0 1-.005-.779l11.408-11.609a.544.544 0 0 1 .773-.002l11.499 11.512c.107.106.164.25.162.398z"/>
    </g>
</svg>
