<svg xmlns="http://www.w3.org/2000/svg" width="42" height="42" viewBox="0 0 42 42">
    <path fill="#00E7E8" fill-rule="nonzero" d="M5 0C2.25 0 0 2.25 0 5v32c0 2.75 2.25 5 5 5h16.832a1 1 0 0 0 .326 0h5.674a1 1 0 0 0 .326 0H37c2.75 0 5-2.25 5-5V5c0-2.75-2.25-5-5-5H5zm0 2h32c1.668 0 3 1.332 3 3v32c0 1.668-1.332 3-3 3h-8V26h3.82l1.4-7H29v-2c0-.557.053-.601.24-.723.187-.121.766-.277 1.76-.277h3v-5.63l-.57-.272S31.133 9 28 9c-2.25 0-4.098.896-5.281 2.375C21.536 12.854 21 14.833 21 17v2h-3v7h3v14H5c-1.668 0-3-1.332-3-3V5c0-1.668 1.332-3 3-3zm23 9c2.08 0 3.387.458 4 .701V14h-1c-1.15 0-2.073.095-2.85.6-.776.504-1.15 1.461-1.15 2.4v4h4.78l-.6 3H27v16h-4V24h-3v-3h3v-4c0-1.833.464-3.354 1.281-4.375S26.25 11 28 11z"/>
</svg>
