<svg xmlns="http://www.w3.org/2000/svg" width="44" height="44" viewBox="0 0 44 44">
    <path fill="#00E7E8" fill-rule="nonzero" d="M13 0C5.832 0 0 5.832 0 13v18c0 7.168 5.832 13 13 13h18c7.168 0 13-5.832 13-13V13c0-7.168-5.832-13-13-13H13zm0 2h18c6.086 0 11 4.914 11 11v18c0 6.086-4.914 11-11 11H13C6.914 42 2 37.086 2 31V13C2 6.914 6.914 2 13 2zm21 6a2 2 0 1 0 0 4 2 2 0 0 0 0-4zm-12 3c-6.063 0-11 4.937-11 11s4.937 11 11 11 11-4.937 11-11-4.937-11-11-11zm0 2c4.982 0 9 4.018 9 9s-4.018 9-9 9-9-4.018-9-9 4.018-9 9-9z"/>
</svg>
