<svg xmlns="http://www.w3.org/2000/svg" width="42" height="36" viewBox="0 0 42 36">
    <path fill="#00E7E8" fill-rule="nonzero" d="M14 34.578c0 .89-.477 1.422-1.152 1.422-.239 0-.504-.066-.786-.207l-10.898-5.52C.524 29.95 0 29.09 0 28.367V1.312C0 .599.379.177.922.177c.191 0 .406.05.629.164l.383.195h.004l12.011 6.082c.02.012.035.031.051.047v27.914zM26.586 1.883L27.32.676c.262-.43.742-.676 1.23-.676.114 0 .231.016.345.047.085.02.175.05.27.098l12.667 6.414c.004 0 .004.003.004.003l.012.004c.007.004.007.016.015.02.063.05.09.137.047.207L29.293 27.559l-1.29 2.117-8.358-16.371 6.94-11.422zM16 23.605V10.562l8.98 17.594-8.078-4.09-.902-.46zm26 10.973c0 .836-.496 1.313-1.227 1.313-.328 0-.703-.094-1.097-.293l-1.809-.918-8.078-4.09L42 10.496v24.082z"/>
</svg>
