<svg xmlns="http://www.w3.org/2000/svg" width="69" height="62" fill="none" viewBox="0 0 69 62">
    <path fill="#4D430D" d="M44.45 14.005a.524.524 0 0 0-.968 0l-1.177 2.824a.524.524 0 0 0 .484.726h2.353a.524.524 0 0 0 .484-.726l-1.176-2.824zm-.875 2.501l.39-.936.39.936h-.78z"/>
    <path stroke="#fff" d="M44.45 14.005a.524.524 0 0 0-.968 0l-1.177 2.824a.524.524 0 0 0 .484.726h2.353a.524.524 0 0 0 .484-.726l-1.176-2.824zm-.875 2.501l.39-.936.39.936h-.78z"/>
    <path fill="#4D430D" d="M55.75 11.446h-4.343a.524.524 0 0 0-.524.524v5.06c0 .29.234.525.524.525h2.246a.524.524 0 0 0 0-1.048h-1.722v-4.012h3.82c1.105 0 2.005.9 2.005 2.005 0 1.106-.9 2.006-2.006 2.006a.524.524 0 1 0 0 1.049 3.058 3.058 0 0 0 3.055-3.055 3.058 3.058 0 0 0-3.055-3.054z"/>
    <path stroke="#fff" d="M55.75 11.446h-4.343a.524.524 0 0 0-.524.524v5.06c0 .29.234.525.524.525h2.246a.524.524 0 0 0 0-1.048h-1.722v-4.012h3.82c1.105 0 2.005.9 2.005 2.005 0 1.106-.9 2.006-2.006 2.006a.524.524 0 1 0 0 1.049 3.058 3.058 0 0 0 3.055-3.055 3.058 3.058 0 0 0-3.055-3.054z"/>
    <path fill="#4D430D" d="M61.6 14.5a5.857 5.857 0 0 0-5.85-5.85H50.01c-1.06 0-1.922.862-1.922 1.922v4.893L45.74 9.833a1.917 1.917 0 0 0-1.774-1.183c-.779 0-1.475.464-1.775 1.183l-6.043 14.504a1.924 1.924 0 0 0 2.506 2.517 1.91 1.91 0 0 0 1.043-1.038l2.277-5.465h3.984l2.276 5.463c.3.72.996 1.185 1.775 1.185 1.06 0 1.922-.863 1.922-1.922V20.35h3.696l2.277 5.465a1.918 1.918 0 0 0 2.514 1.035 1.924 1.924 0 0 0 1.035-2.514l-2.16-5.184A5.832 5.832 0 0 0 61.6 14.5zm-3.437 4.668l2.322 5.573a.875.875 0 0 1-1.613.672l-2.414-5.794a.524.524 0 0 0-.506-.322 4.895 4.895 0 0 1-.202.006h-4.343a.524.524 0 0 0-.524.524v5.25a.875.875 0 0 1-1.681.335l-2.411-5.787a.524.524 0 0 0-.484-.322h-4.683a.524.524 0 0 0-.484.322l-2.411 5.788a.868.868 0 0 1-.474.472.875.875 0 0 1-1.14-1.144l2.773-6.653-.485-.2.488.193 3.268-7.845a.872.872 0 0 1 .807-.537c.353 0 .67.21.806.537l3.355 8.052a.524.524 0 0 0 1.008-.201v-7.514c0-.482.392-.874.874-.874h5.741a4.807 4.807 0 0 1 4.802 4.801 4.792 4.792 0 0 1-2.19 4.027.524.524 0 0 0-.199.641z"/>
    <path stroke="#fff" d="M61.6 14.5a5.857 5.857 0 0 0-5.85-5.85H50.01c-1.06 0-1.922.862-1.922 1.922v4.893L45.74 9.833a1.917 1.917 0 0 0-1.774-1.183c-.779 0-1.475.464-1.775 1.183l-6.043 14.504a1.924 1.924 0 0 0 2.506 2.517 1.91 1.91 0 0 0 1.043-1.038l2.277-5.465h3.984l2.276 5.463c.3.72.996 1.185 1.775 1.185 1.06 0 1.922-.863 1.922-1.922V20.35h3.696l2.277 5.465a1.918 1.918 0 0 0 2.514 1.035 1.924 1.924 0 0 0 1.035-2.514l-2.16-5.184A5.832 5.832 0 0 0 61.6 14.5zm-3.437 4.668l2.322 5.573a.875.875 0 0 1-1.613.672l-2.414-5.794a.524.524 0 0 0-.506-.322 4.895 4.895 0 0 1-.202.006h-4.343a.524.524 0 0 0-.524.524v5.25a.875.875 0 0 1-1.681.335l-2.411-5.787a.524.524 0 0 0-.484-.322h-4.683a.524.524 0 0 0-.484.322l-2.411 5.788a.868.868 0 0 1-.474.472.875.875 0 0 1-1.14-1.144l2.773-6.653-.485-.2.488.193 3.268-7.845a.872.872 0 0 1 .807-.537c.353 0 .67.21.806.537l3.355 8.052a.524.524 0 0 0 1.008-.201v-7.514c0-.482.392-.874.874-.874h5.741a4.807 4.807 0 0 1 4.802 4.801 4.792 4.792 0 0 1-2.19 4.027.524.524 0 0 0-.199.641z"/>
    <path fill="#4D430D" d="M66.93 3.626h-1.704V1.922C65.226.862 64.364 0 63.304 0s-1.922.862-1.922 1.922v1.704h-1.704c-1.06 0-1.922.862-1.922 1.922s.862 1.923 1.922 1.923h1.704v1.703c0 1.06.862 1.923 1.922 1.923s1.922-.863 1.922-1.923V7.471h1.704c1.06 0 1.922-.863 1.922-1.923s-.862-1.922-1.922-1.922zm0 2.796h-2.228a.524.524 0 0 0-.524.524v2.228a.875.875 0 0 1-1.748 0V6.946a.524.524 0 0 0-.524-.524h-2.228a.875.875 0 0 1 0-1.747h2.228c.29 0 .524-.235.524-.525V1.922a.875.875 0 0 1 1.748 0V4.15c0 .29.235.525.524.525h2.228a.875.875 0 0 1 0 1.747z"/>
    <path stroke="#fff" d="M66.93 3.626h-1.704V1.922C65.226.862 64.364 0 63.304 0s-1.922.862-1.922 1.922v1.704h-1.704c-1.06 0-1.922.862-1.922 1.922s.862 1.923 1.922 1.923h1.704v1.703c0 1.06.862 1.923 1.922 1.923s1.922-.863 1.922-1.923V7.471h1.704c1.06 0 1.922-.863 1.922-1.923s-.862-1.922-1.922-1.922zm0 2.796h-2.228a.524.524 0 0 0-.524.524v2.228a.875.875 0 0 1-1.748 0V6.946a.524.524 0 0 0-.524-.524h-2.228a.875.875 0 0 1 0-1.747h2.228c.29 0 .524-.235.524-.525V1.922a.875.875 0 0 1 1.748 0V4.15c0 .29.235.525.524.525h2.228a.875.875 0 0 1 0 1.747z"/>
    <path fill="#4D430D" d="M41.4 28.625h-6.392l-3-7.5H12.992l-3 7.5H9v-3.75H4.5v3.75h-.9a3.603 3.603 0 0 0-3.6 3.6V54.25a3.629 3.629 0 0 0 3.625 3.625h37.75A3.629 3.629 0 0 0 45 54.25V32.224c0-1.985-1.614-3.599-3.6-3.599zM6 26.375h1.5v2.25H6v-2.25zM43.5 54.25a2.127 2.127 0 0 1-2.125 2.125H3.625A2.127 2.127 0 0 1 1.5 54.25V32.224c0-1.157.942-2.099 2.1-2.099h7.408l3-7.5h16.984l3 7.5h7.409c1.157 0 2.099.942 2.099 2.1V54.25z"/>
    <path fill="#4D430D" d="M22.5 27.875c-7.444 0-13.5 6.056-13.5 13.5s6.056 13.5 13.5 13.5S36 48.819 36 41.375s-6.056-13.5-13.5-13.5zm0 25.5c-6.617 0-12-5.383-12-12s5.383-12 12-12c6.616 0 12 5.383 12 12s-5.384 12-12 12z"/>
    <path fill="#4D430D" d="M22.5 32.375c-4.963 0-9 4.037-9 9s4.037 9 9 9 9-4.037 9-9-4.037-9-9-9zm0 16.5c-4.136 0-7.5-3.364-7.5-7.5s3.364-7.5 7.5-7.5 7.5 3.364 7.5 7.5-3.364 7.5-7.5 7.5zM39 31.625c-1.654 0-3 1.346-3 3s1.346 3 3 3 3-1.346 3-3-1.346-3-3-3zm0 4.5c-.827 0-1.5-.673-1.5-1.5s.673-1.5 1.5-1.5 1.5.673 1.5 1.5-.673 1.5-1.5 1.5z"/>
</svg>
