<svg xmlns="http://www.w3.org/2000/svg" width="28" height="28" fill="none" viewBox="0 0 28 28">
    <mask id="a" width="20" height="20" x="4" y="4" maskUnits="userSpaceOnUse">
        <path fill="#fff" fill-rule="evenodd" d="M6.564 10h14.872c.892 0 1.215.093 1.54.267.327.174.583.43.757.756.174.326.267.65.267 1.54v8.873c0 .892-.093 1.215-.267 1.54-.174.327-.43.583-.756.757-.326.174-.65.267-1.54.267H6.563c-.892 0-1.215-.093-1.54-.267a1.817 1.817 0 0 1-.757-.756c-.174-.326-.267-.65-.267-1.54v-8.873c0-.892.093-1.215.267-1.54.174-.327.43-.583.756-.757.326-.174.65-.267 1.54-.267zm1.5-3h11.872c.892 0 1.215.093 1.54.267.327.174.583.43.757.756.116.217.205.543.267.977h-17c.062-.434.15-.76.267-.977.174-.326.43-.582.756-.756.326-.174.65-.267 1.54-.267zm2-3h7.872c.892 0 1.215.093 1.54.267.327.174.583.43.757.756.116.217.205.543.267.977h-13c.062-.434.15-.76.267-.977.174-.326.43-.582.756-.756.326-.174.65-.267 1.54-.267z" clip-rule="evenodd"/>
    </mask>
    <g mask="url(#a)">
        <path fill="#fff" d="M0 0h28v28H0z"/>
    </g>
</svg>
