<svg xmlns="http://www.w3.org/2000/svg" width="324" height="132" fill="none" viewBox="0 0 324 132">
    <path fill="#404040" d="M1.03.27h1.89v10.62H1.03V.27zm4.734 0h2.505l4.935 7.95h.03V.27h1.89v10.62h-2.4l-5.04-8.205h-.03v8.205h-1.89V.27zm12.204 0h6.855v1.65h-4.965v2.91h4.68v1.59h-4.68v4.47h-1.89V.27zm8.589 5.28c0-.85.14-1.615.42-2.295A5.18 5.18 0 0 1 28.162 1.5c.51-.48 1.11-.85 1.8-1.11.7-.26 1.46-.39 2.28-.39.83 0 1.595.13 2.295.39s1.305.63 1.815 1.11c.51.48.905 1.065 1.185 1.755.29.68.435 1.445.435 2.295 0 .83-.145 1.59-.435 2.28-.28.68-.675 1.27-1.185 1.77-.51.49-1.115.875-1.815 1.155-.7.27-1.465.405-2.295.405-.82 0-1.58-.135-2.28-.405a5.615 5.615 0 0 1-1.8-1.155c-.5-.5-.895-1.09-1.185-1.77-.28-.69-.42-1.45-.42-2.28zm2.055 0c0 .57.085 1.095.255 1.575.18.47.43.88.75 1.23.33.35.715.625 1.155.825.45.19.945.285 1.485.285a3.78 3.78 0 0 0 1.485-.285c.45-.2.835-.475 1.155-.825.33-.35.58-.76.75-1.23.18-.48.27-1.005.27-1.575 0-.55-.09-1.06-.27-1.53-.17-.47-.415-.88-.735-1.23a3.435 3.435 0 0 0-1.155-.825c-.45-.2-.95-.3-1.5-.3s-1.05.1-1.5.3c-.44.2-.82.475-1.14.825-.32.35-.57.76-.75 1.23-.17.47-.255.98-.255 1.53zM40.296.27h3.69c.5 0 .986.055 1.456.165.47.1.885.27 1.245.51.37.24.665.555.885.945.22.39.33.865.33 1.425 0 .77-.22 1.4-.66 1.89-.43.48-1.02.805-1.77.975l2.834 4.71h-2.28l-2.46-4.5h-1.38v4.5h-1.89V.27zm3.435 4.575c.27 0 .54-.02.81-.06.27-.04.51-.115.72-.225.22-.11.4-.265.54-.465.14-.21.21-.475.21-.795 0-.29-.065-.525-.195-.705-.13-.19-.294-.34-.495-.45-.2-.11-.43-.185-.69-.225-.25-.04-.495-.06-.734-.06h-1.71v2.985h1.544zm6.5-4.575h2.954l2.76 7.545h.045L58.72.27h2.97v10.62h-1.875V2.355h-.03L56.56 10.89h-1.32l-3.18-8.535h-.03v8.535h-1.8V.27zm17.628 0h1.635l4.575 10.62h-2.16l-.99-2.43h-4.605l-.96 2.43H63.24L67.86.27zm2.4 6.57l-1.635-4.32-1.665 4.32h3.3zm6.613-4.92h-3.255V.27h8.4v1.65h-3.255v8.97h-1.89V1.92zm6.88-1.65h1.89v10.62h-1.89V.27zm4.224 5.28c0-.85.14-1.615.42-2.295A5.18 5.18 0 0 1 89.58 1.5c.51-.48 1.11-.85 1.8-1.11.7-.26 1.46-.39 2.28-.39.83 0 1.595.13 2.295.39s1.305.63 1.815 1.11c.51.48.905 1.065 1.185 1.755.29.68.435 1.445.435 2.295 0 .83-.145 1.59-.435 2.28-.28.68-.675 1.27-1.185 1.77-.51.49-1.115.875-1.815 1.155-.7.27-1.465.405-2.295.405-.82 0-1.58-.135-2.28-.405a5.615 5.615 0 0 1-1.8-1.155c-.5-.5-.895-1.09-1.185-1.77-.28-.69-.42-1.45-.42-2.28zm2.055 0c0 .57.085 1.095.255 1.575.18.47.43.88.75 1.23.33.35.715.625 1.155.825.45.19.945.285 1.485.285a3.78 3.78 0 0 0 1.485-.285c.45-.2.835-.475 1.155-.825.33-.35.58-.76.75-1.23.18-.48.27-1.005.27-1.575 0-.55-.09-1.06-.27-1.53-.17-.47-.415-.88-.735-1.23a3.435 3.435 0 0 0-1.155-.825c-.45-.2-.95-.3-1.5-.3s-1.05.1-1.5.3c-.44.2-.82.475-1.14.825-.32.35-.57.76-.75 1.23-.17.47-.255.98-.255 1.53zM101.715.27h2.505l4.936 7.95h.03V.27h1.89v10.62h-2.4l-5.041-8.205h-.03v8.205h-1.89V.27z"/>
    <path fill="#343434" d="M1.106 47.89H0l4.284-9.911h.98L9.52 47.89H8.4l-1.092-2.604H2.184L1.106 47.89zm1.456-3.527H6.93l-2.184-5.264-2.184 5.264zm14.351 2.422c-.28.42-.644.737-1.092.952-.448.215-.91.322-1.386.322-.513 0-.98-.089-1.4-.266a3.27 3.27 0 0 1-1.064-.728 3.445 3.445 0 0 1-.686-1.092 3.813 3.813 0 0 1-.238-1.358c0-.486.08-.938.238-1.358.168-.42.397-.784.686-1.092a3.27 3.27 0 0 1 1.064-.728c.42-.178.887-.266 1.4-.266.476 0 .938.112 1.386.336.448.214.812.536 1.092.966h.028v-5.166h.952V47.89h-.952v-1.106h-.028zm-4.858-2.17c0 .364.056.71.168 1.036.112.317.27.597.476.84a2.4 2.4 0 0 0 .784.56c.308.13.658.196 1.05.196.364 0 .7-.066 1.008-.196.308-.14.574-.327.798-.56.224-.234.397-.509.518-.826a2.8 2.8 0 0 0 .196-1.05c0-.374-.065-.719-.196-1.036a2.406 2.406 0 0 0-.518-.84 2.292 2.292 0 0 0-.798-.56 2.407 2.407 0 0 0-1.008-.21c-.392 0-.742.07-1.05.21-.308.14-.57.331-.784.574a2.465 2.465 0 0 0-.476.84 3.05 3.05 0 0 0-.168 1.022zm14.372 2.17c-.28.42-.644.737-1.092.952-.448.215-.91.322-1.386.322-.513 0-.98-.089-1.4-.266a3.268 3.268 0 0 1-1.064-.728 3.445 3.445 0 0 1-.686-1.092 3.813 3.813 0 0 1-.238-1.358c0-.486.08-.938.238-1.358.168-.42.397-.784.686-1.092.299-.308.654-.551 1.064-.728.42-.178.887-.266 1.4-.266.476 0 .938.112 1.386.336.448.214.812.536 1.092.966h.028v-5.166h.952V47.89h-.952v-1.106h-.028zm-4.858-2.17c0 .364.056.71.168 1.036.112.317.27.597.476.84a2.4 2.4 0 0 0 .784.56c.308.13.658.196 1.05.196.364 0 .7-.066 1.008-.196.308-.14.574-.327.798-.56.224-.234.397-.509.518-.826a2.8 2.8 0 0 0 .196-1.05c0-.374-.065-.719-.196-1.036a2.406 2.406 0 0 0-.518-.84 2.292 2.292 0 0 0-.798-.56 2.407 2.407 0 0 0-1.008-.21c-.392 0-.742.07-1.05.21-.308.14-.57.331-.784.574a2.465 2.465 0 0 0-.476.84 3.05 3.05 0 0 0-.168 1.022zm8.983-1.834a21.514 21.514 0 0 0-.056-1.442h.91a12.734 12.734 0 0 1 .056 1.12h.027c.187-.383.467-.691.84-.924a2.261 2.261 0 0 1 1.26-.364c.122 0 .23.004.322.014.103.009.206.028.308.056l-.126.896a2.763 2.763 0 0 0-.672-.084c-.252 0-.494.046-.727.14a1.588 1.588 0 0 0-.617.448 2.4 2.4 0 0 0-.42.77c-.102.308-.154.681-.154 1.12v3.36h-.951v-5.11zm10.397 1.33c-.029-.616-.23-1.125-.602-1.526-.364-.411-.887-.616-1.569-.616-.317 0-.61.06-.882.182-.27.112-.508.27-.714.476a2.248 2.248 0 0 0-.49.686 2.154 2.154 0 0 0-.21.798h4.467zm.965.308v.21c0 .074-.004.154-.014.238h-5.432c.01.326.075.634.196.924.122.29.29.541.504.756.215.215.467.387.756.518.29.121.602.182.938.182.495 0 .92-.112 1.274-.336.364-.233.64-.5.826-.798l.714.56c-.392.494-.826.85-1.302 1.064-.466.215-.97.322-1.512.322-.485 0-.938-.084-1.358-.252a3.27 3.27 0 0 1-1.064-.728 3.513 3.513 0 0 1-.714-1.092 3.661 3.661 0 0 1-.252-1.372c0-.495.084-.952.252-1.372.168-.42.402-.784.7-1.092a3.13 3.13 0 0 1 1.05-.714 3.186 3.186 0 0 1 1.302-.266c.514 0 .967.088 1.358.266.392.168.72.401.98.7.262.29.458.63.589 1.022.14.392.21.812.21 1.26zm6.134-1.526c-.14-.27-.354-.49-.644-.658a1.767 1.767 0 0 0-.966-.266 2.32 2.32 0 0 0-.504.056 1.37 1.37 0 0 0-.448.182 1.06 1.06 0 0 0-.322.322.915.915 0 0 0-.112.462c0 .308.126.546.378.714.252.158.649.294 1.19.406.775.158 1.344.392 1.708.7.374.298.56.704.56 1.218 0 .373-.074.69-.224.952a1.91 1.91 0 0 1-.56.63c-.233.159-.499.27-.798.336a3.514 3.514 0 0 1-2.324-.196 2.67 2.67 0 0 1-1.148-.966l.756-.56c.168.29.416.532.742.728.327.196.686.294 1.078.294.206 0 .402-.019.588-.056a1.35 1.35 0 0 0 .49-.196c.14-.093.252-.21.336-.35.084-.15.126-.332.126-.546 0-.346-.168-.602-.504-.77-.326-.178-.802-.34-1.428-.49a13.157 13.157 0 0 1-.63-.168 2.448 2.448 0 0 1-.602-.308 1.76 1.76 0 0 1-.462-.518c-.121-.206-.182-.462-.182-.77 0-.336.066-.62.196-.854.13-.243.304-.439.518-.588.224-.159.476-.276.756-.35.28-.075.57-.112.868-.112.458 0 .901.102 1.33.308.43.205.752.494.966.868l-.728.546zm6.821 0c-.14-.27-.355-.49-.644-.658a1.767 1.767 0 0 0-.966-.266 2.32 2.32 0 0 0-.504.056 1.37 1.37 0 0 0-.448.182 1.06 1.06 0 0 0-.322.322.915.915 0 0 0-.112.462c0 .308.126.546.378.714.252.158.649.294 1.19.406.775.158 1.344.392 1.708.7.373.298.56.704.56 1.218 0 .373-.075.69-.224.952-.14.252-.327.462-.56.63-.233.159-.5.27-.798.336a3.514 3.514 0 0 1-2.324-.196 2.67 2.67 0 0 1-1.148-.966l.756-.56c.168.29.415.532.742.728.327.196.686.294 1.078.294.205 0 .401-.019.588-.056a1.35 1.35 0 0 0 .49-.196c.14-.093.252-.21.336-.35.084-.15.126-.332.126-.546 0-.346-.168-.602-.504-.77-.327-.178-.803-.34-1.428-.49a13.157 13.157 0 0 1-.63-.168 2.448 2.448 0 0 1-.602-.308 1.758 1.758 0 0 1-.462-.518c-.121-.206-.182-.462-.182-.77 0-.336.065-.62.196-.854.13-.243.303-.439.518-.588.224-.159.476-.276.756-.35.28-.075.57-.112.868-.112.457 0 .9.102 1.33.308.43.205.752.494.966.868l-.728.546zM1.176 57.979h2.8c.504 0 .962.056 1.372.168a2.8 2.8 0 0 1 1.05.49c.299.215.528.49.686.826.159.327.238.714.238 1.162 0 .448-.084.84-.252 1.176a2.25 2.25 0 0 1-.686.826c-.29.215-.644.378-1.064.49-.41.112-.868.168-1.372.168H2.184v4.606H1.176V57.98zm1.008 4.452h1.708c.794 0 1.396-.154 1.806-.462.41-.308.616-.756.616-1.344 0-.616-.214-1.064-.644-1.344-.42-.29-1.012-.434-1.778-.434H2.184v3.584zm13.156 2.184c0 .495-.089.952-.266 1.372-.168.42-.406.784-.714 1.092-.308.308-.677.55-1.106.728-.43.168-.901.252-1.414.252-.504 0-.971-.084-1.4-.252a3.354 3.354 0 0 1-1.106-.728 3.392 3.392 0 0 1-.728-1.092 3.66 3.66 0 0 1-.252-1.372c0-.495.084-.952.252-1.372.177-.42.42-.784.728-1.092a3.183 3.183 0 0 1 1.106-.714c.429-.177.896-.266 1.4-.266.513 0 .984.089 1.414.266.429.168.798.406 1.106.714.308.308.546.672.714 1.092.177.42.266.877.266 1.372zm-1.008 0c0-.364-.06-.705-.182-1.022a2.346 2.346 0 0 0-.49-.84 2.307 2.307 0 0 0-.784-.574 2.476 2.476 0 0 0-1.036-.21c-.383 0-.728.07-1.036.21-.299.14-.556.331-.77.574a2.52 2.52 0 0 0-.504.84 3.049 3.049 0 0 0-.168 1.022c0 .364.056.71.168 1.036.121.317.289.597.504.84.214.234.471.42.77.56.308.13.653.196 1.036.196.382 0 .728-.065 1.036-.196a2.4 2.4 0 0 0 .784-.56 2.52 2.52 0 0 0 .49-.84 2.95 2.95 0 0 0 .182-1.036zm7.142-1.722c-.14-.27-.354-.49-.644-.658a1.767 1.767 0 0 0-.966-.266 2.32 2.32 0 0 0-.504.056 1.372 1.372 0 0 0-.448.182 1.06 1.06 0 0 0-.322.322.915.915 0 0 0-.112.462c0 .308.126.546.378.714.252.159.65.294 1.19.406.775.159 1.344.392 1.708.7.374.299.56.705.56 1.218 0 .373-.074.69-.224.952-.14.252-.326.462-.56.63-.233.159-.499.27-.798.336a3.514 3.514 0 0 1-2.324-.196 2.67 2.67 0 0 1-1.148-.966l.756-.56c.168.29.416.532.742.728.327.196.686.294 1.078.294.206 0 .402-.019.588-.056.187-.037.35-.103.49-.196.14-.093.252-.21.336-.35.084-.15.126-.331.126-.546 0-.345-.168-.602-.504-.77-.326-.177-.802-.34-1.428-.49a13.157 13.157 0 0 1-.63-.168 2.445 2.445 0 0 1-.602-.308 1.758 1.758 0 0 1-.462-.518c-.121-.205-.182-.462-.182-.77 0-.336.066-.62.196-.854.131-.243.304-.439.518-.588a2.34 2.34 0 0 1 .756-.35c.28-.075.57-.112.868-.112.458 0 .901.103 1.33.308.43.205.752.495.966.868l-.728.546zm6.29-.756h-1.849v3.822c0 .243.024.443.07.602a.963.963 0 0 0 .196.378c.093.084.2.145.322.182.122.028.252.042.392.042a2.036 2.036 0 0 0 .826-.21l.042.826a2.472 2.472 0 0 1-.532.14 2.854 2.854 0 0 1-.588.056c-.177 0-.364-.023-.56-.07a1.416 1.416 0 0 1-.546-.266 1.52 1.52 0 0 1-.42-.532c-.102-.224-.154-.518-.154-.882v-4.088h-1.358v-.798h1.358v-1.848h.952v1.848h1.848v.798zm6.219 1.526c0-.57-.15-.994-.448-1.274-.299-.28-.733-.42-1.302-.42-.392 0-.756.07-1.092.21a2.61 2.61 0 0 0-.854.56l-.532-.63c.27-.27.625-.495 1.064-.672a4.08 4.08 0 0 1 1.512-.266c.354 0 .686.051.994.154.308.093.578.238.812.434.233.196.415.443.546.742.13.299.196.649.196 1.05v2.87c0 .252.01.513.028.784.018.27.046.5.084.686h-.854a7.01 7.01 0 0 1-.07-.518 5.475 5.475 0 0 1-.028-.546h-.028c-.299.439-.64.756-1.022.952-.374.187-.826.28-1.358.28-.252 0-.514-.037-.784-.112a2.152 2.152 0 0 1-.728-.336 2.059 2.059 0 0 1-.546-.616c-.14-.252-.21-.56-.21-.924 0-.504.126-.9.378-1.19a2.281 2.281 0 0 1 1.036-.658c.429-.15.919-.243 1.47-.28.56-.047 1.138-.07 1.736-.07v-.21zm-.28.952c-.392 0-.789.019-1.19.056a4.707 4.707 0 0 0-1.078.196 1.972 1.972 0 0 0-.784.42c-.206.187-.308.434-.308.742 0 .233.042.43.126.588.093.159.214.29.364.392.149.094.312.163.49.21.186.038.373.056.56.056.336 0 .634-.056.896-.168.261-.121.48-.28.658-.476.177-.205.312-.439.406-.7.093-.261.14-.537.14-.826v-.49h-.28zm5.208 3.276h-.952V57.307h.952v10.584zm15.648-1.596c-.168.252-.373.49-.616.714-.233.224-.509.42-.826.588a4.263 4.263 0 0 1-1.036.392 4.638 4.638 0 0 1-1.232.154c-.747 0-1.438-.13-2.072-.392a4.952 4.952 0 0 1-1.638-1.078 5.113 5.113 0 0 1-1.078-1.652 5.604 5.604 0 0 1-.378-2.086c0-.756.13-1.451.392-2.086.261-.635.62-1.18 1.078-1.638a5.038 5.038 0 0 1 1.638-1.092 5.351 5.351 0 0 1 2.058-.392c.364 0 .719.037 1.064.112.355.075.686.182.994.322.308.13.588.294.84.49.252.187.462.401.63.644l-.84.616a2.404 2.404 0 0 0-.42-.476 2.65 2.65 0 0 0-.602-.42 3.773 3.773 0 0 0-.77-.294 3.307 3.307 0 0 0-.882-.112c-.644 0-1.223.117-1.736.35-.504.233-.934.55-1.288.952a4.05 4.05 0 0 0-.812 1.372 4.874 4.874 0 0 0-.28 1.652c0 .579.093 1.13.28 1.652.196.523.471.985.826 1.386.355.392.784.705 1.288.938.513.233 1.087.35 1.722.35.57 0 1.11-.117 1.624-.35.513-.233.943-.607 1.288-1.12l.784.504zm8.622-1.68c0 .495-.088.952-.266 1.372-.168.42-.406.784-.714 1.092-.308.308-.676.55-1.106.728-.43.168-.9.252-1.414.252-.504 0-.97-.084-1.4-.252a3.354 3.354 0 0 1-1.106-.728 3.392 3.392 0 0 1-.728-1.092 3.66 3.66 0 0 1-.252-1.372c0-.495.084-.952.252-1.372.177-.42.42-.784.728-1.092a3.182 3.182 0 0 1 1.106-.714c.43-.177.896-.266 1.4-.266.513 0 .985.089 1.414.266.43.168.798.406 1.106.714.308.308.546.672.714 1.092.178.42.266.877.266 1.372zm-1.008 0c0-.364-.06-.705-.182-1.022a2.346 2.346 0 0 0-.49-.84 2.306 2.306 0 0 0-.784-.574 2.476 2.476 0 0 0-1.036-.21c-.383 0-.728.07-1.036.21-.299.14-.555.331-.77.574a2.519 2.519 0 0 0-.504.84 3.049 3.049 0 0 0-.168 1.022c0 .364.056.71.168 1.036.121.317.29.597.504.84.215.234.471.42.77.56.308.13.653.196 1.036.196s.728-.065 1.036-.196c.308-.14.57-.326.784-.56a2.52 2.52 0 0 0 .49-.84 2.95 2.95 0 0 0 .182-1.036zm9.047 2.17c-.28.42-.644.737-1.092.952-.448.215-.91.322-1.386.322-.514 0-.98-.088-1.4-.266a3.27 3.27 0 0 1-1.064-.728 3.445 3.445 0 0 1-.686-1.092 3.81 3.81 0 0 1-.238-1.358c0-.485.08-.938.238-1.358.168-.42.397-.784.686-1.092.298-.308.653-.55 1.064-.728.42-.177.886-.266 1.4-.266.476 0 .938.112 1.386.336.448.215.812.537 1.092.966h.028v-5.166h.952v10.584h-.952v-1.106h-.028zm-4.858-2.17c0 .364.056.71.168 1.036.112.317.27.597.476.84a2.4 2.4 0 0 0 .784.56c.308.13.658.196 1.05.196.364 0 .7-.065 1.008-.196.308-.14.574-.326.798-.56.224-.233.397-.509.518-.826a2.8 2.8 0 0 0 .196-1.05c0-.373-.065-.719-.196-1.036a2.406 2.406 0 0 0-.518-.84 2.29 2.29 0 0 0-.798-.56 2.407 2.407 0 0 0-1.008-.21c-.392 0-.742.07-1.05.21-.308.14-.57.331-.784.574a2.464 2.464 0 0 0-.476.84 3.049 3.049 0 0 0-.168 1.022zm13.98-.504c-.028-.616-.229-1.125-.602-1.526-.364-.41-.887-.616-1.568-.616-.317 0-.611.06-.882.182-.27.112-.509.27-.714.476a2.249 2.249 0 0 0-.49.686 2.154 2.154 0 0 0-.21.798h4.466zm.966.308v.21c0 .075-.005.154-.014.238h-5.432c.01.327.075.635.196.924.121.29.29.541.504.756.215.215.467.388.756.518a2.4 2.4 0 0 0 .938.182c.495 0 .92-.112 1.274-.336.364-.233.64-.5.826-.798l.714.56c-.392.495-.826.85-1.302 1.064-.467.215-.97.322-1.512.322-.485 0-.938-.084-1.358-.252a3.27 3.27 0 0 1-1.064-.728 3.513 3.513 0 0 1-.714-1.092 3.66 3.66 0 0 1-.252-1.372c0-.495.084-.952.252-1.372.168-.42.401-.784.7-1.092a3.13 3.13 0 0 1 1.05-.714 3.186 3.186 0 0 1 1.302-.266c.513 0 .966.089 1.358.266.392.168.719.401.98.7.261.29.457.63.588 1.022.14.392.21.812.21 1.26zM8.204 86.421h.028V77.98H9.24v9.912H7.98l-5.768-8.526h-.028v8.526H1.176V77.98h1.26l5.768 8.442zm8.338-2.758c0-.569-.15-.994-.448-1.274-.299-.28-.733-.42-1.302-.42-.392 0-.756.07-1.092.21a2.61 2.61 0 0 0-.854.56l-.532-.63c.27-.27.625-.494 1.064-.672a4.078 4.078 0 0 1 1.512-.266c.354 0 .686.052.994.154.308.094.578.238.812.434.233.196.415.444.546.742.13.3.196.65.196 1.05v2.87c0 .252.01.514.028.784.018.271.046.5.084.686h-.854a7.024 7.024 0 0 1-.07-.517 5.478 5.478 0 0 1-.028-.546h-.028c-.299.438-.64.755-1.022.951-.374.187-.826.28-1.358.28-.252 0-.514-.037-.784-.111a2.156 2.156 0 0 1-.728-.336 2.06 2.06 0 0 1-.546-.616c-.14-.252-.21-.56-.21-.925 0-.504.126-.9.378-1.19a2.282 2.282 0 0 1 1.036-.658c.43-.149.92-.242 1.47-.28.56-.046 1.138-.07 1.736-.07v-.21zm-.28.952c-.392 0-.789.02-1.19.056a4.715 4.715 0 0 0-1.078.196 1.975 1.975 0 0 0-.784.42c-.206.187-.308.434-.308.742 0 .234.042.43.126.589.093.158.214.289.364.392.15.093.312.163.49.21.186.037.373.055.56.055.336 0 .634-.056.896-.168.261-.12.48-.28.658-.475.177-.206.312-.44.406-.7.093-.262.14-.537.14-.827v-.49h-.28zm5.166-2.156c.187-.382.472-.69.854-.924a2.424 2.424 0 0 1 1.302-.364c.178 0 .36.019.546.056.196.038.383.112.56.224.187.103.355.243.504.42a2.3 2.3 0 0 1 .407.686c.224-.448.527-.788.91-1.022.392-.242.854-.364 1.386-.364.83 0 1.45.248 1.862.742.42.495.63 1.148.63 1.96v4.018h-.953v-3.626c0-.69-.13-1.246-.392-1.666-.252-.42-.686-.63-1.302-.63-.345 0-.639.07-.882.21a1.73 1.73 0 0 0-.573.56c-.14.224-.243.481-.308.77-.066.29-.098.588-.098.896v3.486h-.953V84.07c0-.317-.023-.606-.07-.868a1.67 1.67 0 0 0-.252-.658 1.044 1.044 0 0 0-.476-.42c-.205-.102-.466-.154-.784-.154-.224 0-.452.052-.686.154a1.83 1.83 0 0 0-.616.476 2.397 2.397 0 0 0-.434.798c-.112.318-.168.696-.168 1.134v3.36h-.952v-5.11a21.514 21.514 0 0 0-.056-1.442h.91a12.73 12.73 0 0 1 .056 1.12h.028zm17.02 1.652c-.028-.616-.229-1.124-.602-1.526-.364-.41-.887-.616-1.568-.616-.317 0-.611.061-.882.182-.27.112-.509.271-.714.476a2.247 2.247 0 0 0-.49.686 2.15 2.15 0 0 0-.21.798h4.466zm.966.308v.21c0 .075-.005.154-.014.238h-5.432c.01.327.075.635.196.924.121.29.29.542.504.756.215.215.467.388.756.519.29.12.602.181.938.181.495 0 .92-.112 1.274-.335.364-.234.64-.5.826-.799l.714.56c-.392.495-.826.85-1.302 1.064-.467.215-.97.323-1.512.323-.485 0-.938-.085-1.358-.252a3.27 3.27 0 0 1-1.064-.729 3.513 3.513 0 0 1-.714-1.092 3.66 3.66 0 0 1-.252-1.372c0-.494.084-.952.252-1.372.168-.42.401-.784.7-1.092a3.129 3.129 0 0 1 1.05-.714 3.184 3.184 0 0 1 1.302-.266c.513 0 .966.089 1.358.266.392.168.719.402.98.7.261.29.457.63.588 1.022.14.392.21.812.21 1.26zm6.134-1.526c-.14-.27-.355-.49-.644-.658a1.766 1.766 0 0 0-.966-.266c-.168 0-.336.019-.504.056a1.37 1.37 0 0 0-.448.182 1.06 1.06 0 0 0-.322.322.916.916 0 0 0-.112.462c0 .308.126.546.378.714.252.16.648.294 1.19.406.775.16 1.344.392 1.708.7.373.3.56.705.56 1.218 0 .374-.075.691-.224.953a1.91 1.91 0 0 1-.56.63c-.233.158-.5.27-.798.336a3.52 3.52 0 0 1-2.324-.197 2.672 2.672 0 0 1-1.148-.966l.756-.56c.168.29.415.532.742.729.326.196.686.294 1.078.294.205 0 .401-.02.588-.056.187-.038.35-.103.49-.196.14-.094.252-.21.336-.35.084-.15.126-.332.126-.547 0-.345-.168-.602-.504-.77-.327-.177-.803-.34-1.428-.49a12.925 12.925 0 0 1-.63-.168 2.445 2.445 0 0 1-.602-.308 1.76 1.76 0 0 1-.462-.518c-.121-.205-.182-.462-.182-.77 0-.336.065-.62.196-.854.13-.242.303-.438.518-.588.224-.158.476-.275.756-.35.28-.074.57-.112.868-.112.457 0 .9.103 1.33.308.43.206.751.495.966.868l-.728.546zm7.465.77c0-.569-.15-.994-.448-1.274-.299-.28-.733-.42-1.302-.42-.392 0-.756.07-1.092.21-.336.14-.621.327-.854.56l-.532-.63c.27-.27.625-.494 1.064-.672a4.077 4.077 0 0 1 1.512-.266c.354 0 .686.052.994.154.308.094.578.238.812.434.233.196.415.444.546.742.13.3.196.65.196 1.05v2.87c0 .252.01.514.028.784.018.271.046.5.084.686h-.854a7.024 7.024 0 0 1-.07-.517 5.478 5.478 0 0 1-.028-.546h-.028c-.299.438-.64.755-1.022.951-.374.187-.826.28-1.358.28-.252 0-.514-.037-.784-.111a2.156 2.156 0 0 1-.728-.336 2.06 2.06 0 0 1-.546-.616c-.14-.252-.21-.56-.21-.925 0-.504.126-.9.378-1.19a2.282 2.282 0 0 1 1.036-.658c.429-.149.919-.242 1.47-.28.56-.046 1.138-.07 1.736-.07v-.21zm-.28.952c-.392 0-.789.02-1.19.056a4.713 4.713 0 0 0-1.078.196 1.974 1.974 0 0 0-.784.42c-.206.187-.308.434-.308.742 0 .234.042.43.126.589.093.158.214.289.364.392.149.093.312.163.49.21.186.037.373.055.56.055.336 0 .634-.056.896-.168.261-.12.48-.28.658-.475.177-.206.312-.44.406-.7.093-.262.14-.537.14-.827v-.49h-.28zm5.208-.322h.042l3.024-2.954h1.372l-3.304 2.996 3.64 3.556h-1.4l-3.332-3.444h-.042v3.444h-.952V77.307h.952v6.986zm11.51-.182c-.029-.616-.23-1.124-.603-1.526-.364-.41-.887-.616-1.568-.616-.317 0-.611.061-.882.182-.27.112-.509.271-.714.476a2.249 2.249 0 0 0-.49.686 2.154 2.154 0 0 0-.21.798h4.466zm.965.308v.21c0 .075-.004.154-.014.238H64.97c.01.327.075.635.196.924.121.29.29.542.504.756.215.215.467.388.756.519.29.12.602.181.938.181.495 0 .92-.112 1.274-.335.364-.234.64-.5.826-.799l.714.56c-.392.495-.826.85-1.302 1.064-.467.215-.97.323-1.512.323-.485 0-.938-.085-1.358-.252a3.271 3.271 0 0 1-1.064-.729 3.517 3.517 0 0 1-.714-1.092 3.66 3.66 0 0 1-.252-1.372c0-.494.084-.952.252-1.372.168-.42.401-.784.7-1.092a3.13 3.13 0 0 1 1.05-.714 3.184 3.184 0 0 1 1.302-.266c.513 0 .966.089 1.358.266.392.168.719.402.98.7.261.29.458.63.588 1.022.14.392.21.812.21 1.26zM4.354 107.892H3.346v-9.016H.028v-.896h7.644v.896H4.354v9.016zm8.853 0a12.747 12.747 0 0 1-.056-1.12h-.028c-.187.382-.49.695-.91.938-.42.233-.863.35-1.33.35-.83 0-1.456-.248-1.876-.742-.41-.495-.616-1.148-.616-1.96v-4.018h.952v3.626c0 .345.028.658.084.938.056.28.15.522.28.728.14.196.322.35.546.462.233.112.522.168.868.168a1.8 1.8 0 0 0 .728-.154c.242-.103.457-.257.644-.462.187-.215.336-.481.448-.798.112-.327.168-.71.168-1.148v-3.36h.952v5.11a21.53 21.53 0 0 0 .056 1.442h-.91zm4.955-1.106v1.106h-.952V97.308h.952v5.166h.028c.28-.43.644-.752 1.092-.966.448-.224.91-.336 1.386-.336.513 0 .975.088 1.386.266.42.177.774.42 1.064.728.299.308.527.672.686 1.092.168.42.252.872.252 1.358 0 .485-.084.938-.252 1.358-.159.42-.387.784-.686 1.092-.29.308-.644.55-1.064.728-.41.177-.873.266-1.386.266-.476 0-.938-.108-1.386-.322a2.69 2.69 0 0 1-1.092-.952h-.028zm4.886-2.17c0-.364-.056-.705-.168-1.022a2.341 2.341 0 0 0-.49-.84 2.162 2.162 0 0 0-.77-.574 2.511 2.511 0 0 0-1.05-.21c-.364 0-.7.07-1.008.21-.308.13-.574.317-.798.56a2.575 2.575 0 0 0-.532.84 2.874 2.874 0 0 0-.182 1.036c0 .373.06.723.182 1.05.13.317.308.592.532.826.224.233.49.42.798.56.308.13.644.196 1.008.196.392 0 .742-.066 1.05-.196.308-.14.564-.327.77-.56.215-.243.378-.523.49-.84.112-.327.168-.672.168-1.036zm8.646-.504c-.028-.616-.229-1.125-.602-1.526-.364-.411-.887-.616-1.568-.616-.317 0-.611.06-.882.182-.27.112-.509.27-.714.476a2.238 2.238 0 0 0-.49.686 2.15 2.15 0 0 0-.21.798h4.466zm.966.308v.21c0 .074-.005.154-.014.238h-5.432c.01.326.075.634.196.924.121.289.29.541.504.756.215.214.467.387.756.518.29.121.602.182.938.182.495 0 .92-.112 1.274-.336.364-.234.64-.5.826-.798l.714.56c-.392.494-.826.849-1.302 1.064-.467.214-.97.322-1.512.322-.485 0-.938-.084-1.358-.252a3.28 3.28 0 0 1-1.064-.728 3.516 3.516 0 0 1-.714-1.092 3.663 3.663 0 0 1-.252-1.372c0-.495.084-.952.252-1.372.168-.42.401-.784.7-1.092a3.13 3.13 0 0 1 1.05-.714 3.174 3.174 0 0 1 1.302-.266c.513 0 .966.088 1.358.266.392.168.719.401.98.7.261.289.457.63.588 1.022.14.392.21.812.21 1.26zM2.184 127.892H1.176v-9.912h5.978v.896h-4.97v3.444h4.62v.882h-4.62v4.69zm13.238-3.276c0 .495-.089.952-.266 1.372-.168.42-.406.784-.714 1.092a3.35 3.35 0 0 1-1.106.728c-.43.168-.9.252-1.414.252-.504 0-.971-.084-1.4-.252a3.35 3.35 0 0 1-1.106-.728 3.392 3.392 0 0 1-.728-1.092 3.66 3.66 0 0 1-.252-1.372c0-.495.084-.952.252-1.372.177-.42.42-.784.728-1.092a3.183 3.183 0 0 1 1.106-.714c.429-.177.896-.266 1.4-.266.513 0 .984.089 1.414.266.43.168.798.406 1.106.714.308.308.546.672.714 1.092.177.42.266.877.266 1.372zm-1.008 0c0-.364-.06-.705-.182-1.022a2.341 2.341 0 0 0-.49-.84 2.302 2.302 0 0 0-.784-.574 2.476 2.476 0 0 0-1.036-.21c-.383 0-.728.07-1.036.21a2.34 2.34 0 0 0-.77.574 2.514 2.514 0 0 0-.504.84 3.048 3.048 0 0 0-.168 1.022c0 .364.056.709.168 1.036.121.317.289.597.504.84.214.233.471.42.77.56.308.131.653.196 1.036.196.382 0 .728-.065 1.036-.196.308-.14.57-.327.784-.56.214-.243.378-.523.49-.84.121-.327.182-.672.182-1.036zm3.656-1.834a21.53 21.53 0 0 0-.056-1.442h.91a12.575 12.575 0 0 1 .056 1.12h.028a2.22 2.22 0 0 1 .84-.924 2.26 2.26 0 0 1 1.26-.364c.122 0 .23.005.322.014.103.009.206.028.308.056l-.125.896a2.721 2.721 0 0 0-.672-.084 1.95 1.95 0 0 0-.729.14 1.589 1.589 0 0 0-.616.448 2.403 2.403 0 0 0-.42.77c-.102.308-.154.681-.154 1.12v3.36h-.952v-5.11zm6.583-.322c.187-.383.472-.691.855-.924a2.422 2.422 0 0 1 1.302-.364c.177 0 .359.019.546.056.195.037.382.112.56.224.186.103.354.243.503.42.16.177.294.406.407.686.223-.448.527-.789.91-1.022.392-.243.854-.364 1.386-.364.83 0 1.45.247 1.862.742.42.495.63 1.148.63 1.96v4.018h-.952v-3.626c0-.691-.131-1.246-.392-1.666-.252-.42-.686-.63-1.303-.63-.345 0-.639.07-.881.21-.234.14-.425.327-.574.56-.14.224-.243.481-.309.77a4.055 4.055 0 0 0-.098.896v3.486h-.951v-3.822c0-.317-.024-.607-.07-.868a1.674 1.674 0 0 0-.253-.658 1.04 1.04 0 0 0-.476-.42c-.205-.103-.466-.154-.784-.154a1.69 1.69 0 0 0-.686.154c-.224.103-.429.261-.616.476a2.39 2.39 0 0 0-.434.798c-.112.317-.168.695-.168 1.134v3.36h-.952v-5.11a21.236 21.236 0 0 0-.056-1.442h.91a12.575 12.575 0 0 1 .056 1.12h.028zm16.152 1.204c0-.569-.15-.994-.448-1.274-.299-.28-.733-.42-1.302-.42-.392 0-.756.07-1.092.21-.336.14-.62.327-.854.56l-.532-.63c.27-.271.625-.495 1.064-.672a4.086 4.086 0 0 1 1.512-.266c.355 0 .686.051.994.154.308.093.579.238.812.434.233.196.415.443.546.742.13.299.196.649.196 1.05v2.87c0 .252.01.513.028.784.019.271.047.499.084.686h-.854a7.016 7.016 0 0 1-.07-.518 5.488 5.488 0 0 1-.028-.546h-.028c-.299.439-.64.756-1.022.952-.373.187-.826.28-1.358.28-.252 0-.513-.037-.784-.112a2.141 2.141 0 0 1-.728-.336 2.061 2.061 0 0 1-.546-.616c-.14-.252-.21-.56-.21-.924 0-.504.126-.901.378-1.19.261-.299.607-.518 1.036-.658.43-.149.92-.243 1.47-.28.56-.047 1.139-.07 1.736-.07v-.21zm-.28.952c-.392 0-.789.019-1.19.056a4.693 4.693 0 0 0-1.078.196 1.965 1.965 0 0 0-.784.42c-.205.187-.308.434-.308.742 0 .233.042.429.126.588.093.159.215.289.364.392.15.093.313.163.49.21.187.037.373.056.56.056.336 0 .635-.056.896-.168.261-.121.48-.28.658-.476.177-.205.313-.439.406-.7.093-.261.14-.537.14-.826v-.49h-.28zm7.046-2.478h-1.848v3.822c0 .243.023.443.07.602a.957.957 0 0 0 .196.378c.093.084.2.145.322.182.121.028.252.042.392.042a2.046 2.046 0 0 0 .826-.21l.042.826a2.495 2.495 0 0 1-.532.14 2.884 2.884 0 0 1-.588.056 2.4 2.4 0 0 1-.56-.07 1.417 1.417 0 0 1-.546-.266 1.524 1.524 0 0 1-.42-.532c-.103-.224-.154-.518-.154-.882v-4.088h-1.358v-.798h1.358v-1.848h.952v1.848h1.848v.798z" opacity=".7"/>
    <path fill="#4D430D" d="M97.356 47.89h-1.008v-9.015H93.03v-.896h7.644v.896h-3.318v9.016zm4.092-5.11a19.609 19.609 0 0 0-.056-1.441h.91a11.625 11.625 0 0 1 .056 1.12h.028c.187-.383.467-.691.84-.924a2.265 2.265 0 0 1 1.26-.364c.122 0 .229.004.322.014.103.009.206.028.308.056l-.126.896a2.753 2.753 0 0 0-.672-.084c-.252 0-.494.046-.728.14a1.596 1.596 0 0 0-.616.448 2.4 2.4 0 0 0-.42.77c-.102.308-.154.681-.154 1.12v3.36h-.952v-5.11zm9.611.883c0-.57-.149-.994-.448-1.274-.298-.28-.732-.42-1.302-.42-.392 0-.756.07-1.092.21-.336.14-.62.326-.854.56l-.532-.63c.271-.271.626-.495 1.064-.672a4.08 4.08 0 0 1 1.512-.266c.355 0 .686.051.994.154.308.093.579.238.812.434.234.196.416.443.546.742.131.298.196.648.196 1.05v2.87c0 .252.01.513.028.784.019.27.047.5.084.686h-.854a7.18 7.18 0 0 1-.07-.518 5.697 5.697 0 0 1-.028-.546h-.028c-.298.439-.639.756-1.022.952-.373.186-.826.28-1.358.28-.252 0-.513-.037-.784-.112a2.155 2.155 0 0 1-.728-.336 2.077 2.077 0 0 1-.546-.616c-.14-.252-.21-.56-.21-.924 0-.504.126-.9.378-1.19a2.286 2.286 0 0 1 1.036-.658c.43-.15.92-.243 1.47-.28.56-.047 1.139-.07 1.736-.07v-.21zm-.28.952c-.392 0-.788.018-1.19.056a4.711 4.711 0 0 0-1.078.196 1.978 1.978 0 0 0-.784.42c-.205.186-.308.434-.308.742 0 .233.042.43.126.588.094.159.215.29.364.392.15.093.313.163.49.21.187.037.374.056.56.056.336 0 .635-.056.896-.168.262-.121.481-.28.658-.476.178-.206.313-.439.406-.7.094-.262.14-.537.14-.826v-.49h-.28zm7.001-2.478h-1.54v5.754h-.952v-5.754h-1.372v-.798h1.372v-1.792c0-.747.182-1.335.546-1.764.364-.43.924-.644 1.68-.644.121 0 .252.009.392.028.14.009.271.032.392.07l-.168.84a3.669 3.669 0 0 0-.308-.07 1.976 1.976 0 0 0-.35-.028c-.252 0-.462.042-.63.126a.94.94 0 0 0-.378.364 1.69 1.69 0 0 0-.182.532 4.875 4.875 0 0 0-.042.658v1.68h1.54v.798zm6.087 1.526c0-.57-.149-.994-.448-1.274-.299-.28-.733-.42-1.302-.42-.392 0-.756.07-1.092.21-.336.14-.621.326-.854.56l-.532-.63c.271-.271.625-.495 1.064-.672a4.08 4.08 0 0 1 1.512-.266c.355 0 .686.051.994.154.308.093.579.238.812.434.233.196.415.443.546.742.131.298.196.648.196 1.05v2.87c0 .252.009.513.028.784.019.27.047.5.084.686h-.854a7.18 7.18 0 0 1-.07-.518 5.39 5.39 0 0 1-.028-.546h-.028c-.299.439-.639.756-1.022.952-.373.186-.826.28-1.358.28-.252 0-.513-.037-.784-.112a2.155 2.155 0 0 1-.728-.336 2.05 2.05 0 0 1-.546-.616c-.14-.252-.21-.56-.21-.924 0-.504.126-.9.378-1.19a2.28 2.28 0 0 1 1.036-.658c.429-.15.919-.243 1.47-.28.56-.047 1.139-.07 1.736-.07v-.21zm-.28.952c-.392 0-.789.018-1.19.056a4.711 4.711 0 0 0-1.078.196 1.971 1.971 0 0 0-.784.42c-.205.186-.308.434-.308.742 0 .233.042.43.126.588.093.159.215.29.364.392.149.093.313.163.49.21.187.037.373.056.56.056.336 0 .635-.056.896-.168.261-.121.481-.28.658-.476.177-.206.313-.439.406-.7.093-.262.14-.537.14-.826v-.49h-.28zm5.209 3.276h-.952V37.307h.952V47.89zm3.497 1.316c.261.336.616.62 1.064.854.457.233.938.35 1.442.35.467 0 .863-.07 1.19-.21.327-.13.588-.313.784-.546a2.15 2.15 0 0 0 .448-.826c.093-.308.14-.64.14-.994v-1.232h-.028c-.252.41-.611.728-1.078.952a3.15 3.15 0 0 1-1.4.336 3.74 3.74 0 0 1-1.4-.252 3.314 3.314 0 0 1-1.064-.686 3.32 3.32 0 0 1-.686-1.064 3.652 3.652 0 0 1-.238-1.33c0-.467.079-.906.238-1.316.168-.41.397-.77.686-1.078a3.27 3.27 0 0 1 1.064-.728c.42-.178.887-.266 1.4-.266.476 0 .943.112 1.4.336.457.224.817.546 1.078.966h.028v-1.134h.952v6.496c0 .355-.051.733-.154 1.134-.093.401-.275.77-.546 1.106-.261.336-.621.616-1.078.84-.457.224-1.05.336-1.778.336a4.405 4.405 0 0 1-1.736-.35 4.184 4.184 0 0 1-1.414-.966l.686-.728zm.182-4.676c0 .345.056.672.168.98.112.308.271.578.476.812.215.233.476.42.784.56.308.13.658.196 1.05.196.364 0 .7-.06 1.008-.182.308-.121.574-.294.798-.518.224-.224.397-.49.518-.798.131-.318.196-.668.196-1.05 0-.346-.065-.672-.196-.98a2.46 2.46 0 0 0-.518-.812 2.565 2.565 0 0 0-.798-.56 2.407 2.407 0 0 0-1.008-.21c-.392 0-.742.07-1.05.21-.308.14-.569.326-.784.56a2.525 2.525 0 0 0-.476.812 2.846 2.846 0 0 0-.168.98zm13.044-.868c0-.57-.149-.994-.448-1.274-.299-.28-.733-.42-1.302-.42-.392 0-.756.07-1.092.21-.336.14-.621.326-.854.56l-.532-.63c.271-.271.625-.495 1.064-.672a4.08 4.08 0 0 1 1.512-.266c.355 0 .686.051.994.154.308.093.579.238.812.434.233.196.415.443.546.742.131.298.196.648.196 1.05v2.87c0 .252.009.513.028.784.019.27.047.5.084.686h-.854a7.18 7.18 0 0 1-.07-.518 5.39 5.39 0 0 1-.028-.546h-.028c-.299.439-.639.756-1.022.952-.373.186-.826.28-1.358.28-.252 0-.513-.037-.784-.112a2.155 2.155 0 0 1-.728-.336 2.05 2.05 0 0 1-.546-.616c-.14-.252-.21-.56-.21-.924 0-.504.126-.9.378-1.19a2.28 2.28 0 0 1 1.036-.658c.429-.15.919-.243 1.47-.28.56-.047 1.139-.07 1.736-.07v-.21zm-.28.952c-.392 0-.789.018-1.19.056a4.711 4.711 0 0 0-1.078.196 1.971 1.971 0 0 0-.784.42c-.205.186-.308.434-.308.742 0 .233.042.43.126.588.093.159.215.29.364.392.149.093.313.163.49.21.187.037.373.056.56.056.336 0 .635-.056.896-.168.261-.121.481-.28.658-.476.177-.206.313-.439.406-.7.093-.262.14-.537.14-.826v-.49h-.28zm4.229-1.834a22.449 22.449 0 0 0-.056-1.442h.91a13.277 13.277 0 0 1 .056 1.12h.028c.186-.383.466-.691.84-.924a2.26 2.26 0 0 1 1.26-.364c.121 0 .228.004.322.014.102.009.205.028.308.056l-.126.896a2.774 2.774 0 0 0-.672-.084c-.252 0-.495.046-.728.14a1.581 1.581 0 0 0-.616.448 2.4 2.4 0 0 0-.42.77c-.103.308-.154.681-.154 1.12v3.36h-.952v-5.11zm14.603-3.206a2.356 2.356 0 0 0-.826-.714c-.336-.187-.742-.28-1.218-.28a2.6 2.6 0 0 0-.742.112 2.072 2.072 0 0 0-.686.35c-.206.149-.374.34-.504.574a1.76 1.76 0 0 0-.182.826c0 .317.06.578.182.784.121.205.28.382.476.532.205.14.434.256.686.35.261.093.532.186.812.28.345.112.69.233 1.036.364.354.13.672.303.952.518.28.205.508.471.686.798.177.317.266.723.266 1.218 0 .494-.098.924-.294 1.288a2.625 2.625 0 0 1-.742.882 3.007 3.007 0 0 1-1.036.518 4.119 4.119 0 0 1-2.058.07 3.77 3.77 0 0 1-.854-.266 3.474 3.474 0 0 1-1.372-1.106l.868-.644c.214.354.513.653.896.896.392.233.849.35 1.372.35.252 0 .508-.038.77-.112a2.28 2.28 0 0 0 .7-.364c.214-.168.387-.369.518-.602.14-.243.21-.523.21-.84 0-.346-.07-.63-.21-.854a1.653 1.653 0 0 0-.532-.574 3.15 3.15 0 0 0-.77-.392c-.29-.103-.593-.206-.91-.308-.327-.103-.649-.22-.966-.35a3.364 3.364 0 0 1-.854-.504 2.543 2.543 0 0 1-.616-.784c-.15-.308-.224-.686-.224-1.134 0-.476.093-.887.28-1.232a2.67 2.67 0 0 1 .756-.854 3.129 3.129 0 0 1 1.022-.49 4.159 4.159 0 0 1 1.106-.154c.672 0 1.246.121 1.722.364.476.233.835.513 1.078.84l-.798.644zm9.02 7.21a2.71 2.71 0 0 1-1.092.952 3.142 3.142 0 0 1-1.372.322c-.513 0-.98-.089-1.4-.266a3.27 3.27 0 0 1-1.064-.728 3.45 3.45 0 0 1-.686-1.092 3.804 3.804 0 0 1-.238-1.358c0-.486.079-.938.238-1.358a3.45 3.45 0 0 1 .686-1.092 3.27 3.27 0 0 1 1.064-.728c.42-.178.887-.266 1.4-.266.467 0 .924.112 1.372.336.457.214.821.536 1.092.966h.042v-1.134h.952v9.912h-.952v-4.466h-.042zm-4.844-2.17c0 .364.056.71.168 1.036.112.317.271.597.476.84.215.233.476.42.784.56.308.13.658.196 1.05.196.364 0 .7-.066 1.008-.196.308-.14.574-.327.798-.56.224-.234.397-.509.518-.826.131-.327.196-.677.196-1.05 0-.374-.065-.719-.196-1.036a2.402 2.402 0 0 0-.518-.84 2.292 2.292 0 0 0-.798-.56 2.407 2.407 0 0 0-1.008-.21c-.392 0-.742.07-1.05.21a2.31 2.31 0 0 0-.784.574 2.471 2.471 0 0 0-.476.84 3.05 3.05 0 0 0-.168 1.022zm13.715 3.276a13.277 13.277 0 0 1-.056-1.12h-.028c-.187.383-.49.695-.91.938-.42.233-.863.35-1.33.35-.831 0-1.456-.247-1.876-.742-.411-.495-.616-1.148-.616-1.96v-4.018h.952v3.626c0 .345.028.658.084.938.056.28.149.523.28.728.14.196.322.35.546.462.233.112.523.168.868.168.252 0 .495-.052.728-.154.243-.103.457-.257.644-.462.187-.215.336-.48.448-.798.112-.327.168-.71.168-1.148v-3.36h.952v5.11a22.449 22.449 0 0 0 .056 1.442h-.91zm8.105-4.228c0-.57-.149-.994-.448-1.274-.299-.28-.733-.42-1.302-.42-.392 0-.756.07-1.092.21-.336.14-.621.326-.854.56l-.532-.63c.271-.271.625-.495 1.064-.672a4.08 4.08 0 0 1 1.512-.266c.355 0 .686.051.994.154.308.093.579.238.812.434.233.196.415.443.546.742.131.298.196.648.196 1.05v2.87c0 .252.009.513.028.784.019.27.047.5.084.686h-.854a7.18 7.18 0 0 1-.07-.518 5.39 5.39 0 0 1-.028-.546h-.028c-.299.439-.639.756-1.022.952-.373.186-.826.28-1.358.28-.252 0-.513-.037-.784-.112a2.155 2.155 0 0 1-.728-.336 2.05 2.05 0 0 1-.546-.616c-.14-.252-.21-.56-.21-.924 0-.504.126-.9.378-1.19a2.28 2.28 0 0 1 1.036-.658c.429-.15.919-.243 1.47-.28.56-.047 1.139-.07 1.736-.07v-.21zm-.28.952c-.392 0-.789.018-1.19.056a4.711 4.711 0 0 0-1.078.196 1.971 1.971 0 0 0-.784.42c-.205.186-.308.434-.308.742 0 .233.042.43.126.588.093.159.215.29.364.392.149.093.313.163.49.21.187.037.373.056.56.056.336 0 .635-.056.896-.168.261-.121.481-.28.658-.476.177-.206.313-.439.406-.7.093-.262.14-.537.14-.826v-.49h-.28zm4.229-1.834a22.449 22.449 0 0 0-.056-1.442h.91a13.277 13.277 0 0 1 .056 1.12h.028c.186-.383.466-.691.84-.924a2.26 2.26 0 0 1 1.26-.364c.121 0 .228.004.322.014.102.009.205.028.308.056l-.126.896a2.774 2.774 0 0 0-.672-.084c-.252 0-.495.046-.728.14a1.581 1.581 0 0 0-.616.448 2.4 2.4 0 0 0-.42.77c-.103.308-.154.681-.154 1.12v3.36h-.952v-5.11zm10.397 1.33c-.028-.616-.229-1.125-.602-1.526-.365-.411-.887-.616-1.569-.616-.317 0-.611.06-.882.182a2.19 2.19 0 0 0-.714.476 2.265 2.265 0 0 0-.49.686 2.166 2.166 0 0 0-.21.798h4.467zm.966.308v.21c0 .074-.005.154-.014.238h-5.433c.01.326.075.634.196.924.122.29.29.541.504.756.215.215.467.387.756.518.29.121.602.182.938.182.495 0 .92-.112 1.274-.336.365-.233.64-.5.827-.798l.714.56c-.392.494-.826.85-1.302 1.064a3.577 3.577 0 0 1-1.513.322c-.485 0-.938-.084-1.358-.252a3.28 3.28 0 0 1-1.064-.728 3.538 3.538 0 0 1-.714-1.092 3.661 3.661 0 0 1-.252-1.372c0-.495.084-.952.252-1.372.168-.42.402-.784.7-1.092a3.137 3.137 0 0 1 1.05-.714 3.19 3.19 0 0 1 1.302-.266c.514 0 .966.088 1.358.266.393.168.719.401.981.7.261.29.457.63.588 1.022.14.392.21.812.21 1.26zm2.815 5.432h-.798l.938-3.29h.994l-1.134 3.29zm8.809-2.856h4.62v.896h-5.628v-9.912h1.008v9.016zm12.937-2.38c0 .494-.088.952-.266 1.372-.168.42-.406.784-.714 1.092-.308.308-.677.55-1.106.728a3.848 3.848 0 0 1-1.414.252c-.504 0-.971-.084-1.4-.252a3.358 3.358 0 0 1-1.106-.728 3.387 3.387 0 0 1-.728-1.092 3.661 3.661 0 0 1-.252-1.372c0-.495.084-.952.252-1.372.177-.42.42-.784.728-1.092a3.186 3.186 0 0 1 1.106-.714 3.63 3.63 0 0 1 1.4-.266c.513 0 .985.088 1.414.266.429.168.798.406 1.106.714.308.308.546.672.714 1.092.178.42.266.877.266 1.372zm-1.008 0c0-.364-.061-.705-.182-1.022a2.343 2.343 0 0 0-.49-.84 2.31 2.31 0 0 0-.784-.574 2.475 2.475 0 0 0-1.036-.21c-.383 0-.728.07-1.036.21-.299.14-.555.331-.77.574a2.51 2.51 0 0 0-.504.84 3.05 3.05 0 0 0-.168 1.022c0 .364.056.71.168 1.036.121.317.289.597.504.84.215.233.471.42.77.56.308.13.653.196 1.036.196s.728-.066 1.036-.196c.308-.14.569-.327.784-.56.215-.243.378-.523.49-.84.121-.327.182-.672.182-1.036zm4.511-3.276a13.277 13.277 0 0 1 .056 1.12h.028c.186-.383.49-.691.91-.924.42-.243.863-.364 1.33-.364.831 0 1.451.247 1.862.742.42.494.63 1.148.63 1.96v4.018h-.952v-3.626a4.8 4.8 0 0 0-.084-.938 1.83 1.83 0 0 0-.294-.714 1.299 1.299 0 0 0-.546-.476c-.224-.112-.509-.168-.854-.168-.252 0-.499.051-.742.154a1.797 1.797 0 0 0-.63.476 2.255 2.255 0 0 0-.448.798c-.112.317-.168.695-.168 1.134v3.36h-.952v-5.11a22.449 22.449 0 0 0-.056-1.442h.91zm13.271 5.446c-.28.42-.644.737-1.092.952-.448.215-.91.322-1.386.322-.514 0-.98-.089-1.4-.266a3.259 3.259 0 0 1-1.064-.728 3.433 3.433 0 0 1-.686-1.092 3.804 3.804 0 0 1-.238-1.358c0-.486.079-.938.238-1.358.168-.42.396-.784.686-1.092.298-.308.653-.551 1.064-.728.42-.178.886-.266 1.4-.266.476 0 .938.112 1.386.336.448.214.812.536 1.092.966h.028v-5.166h.952V47.89h-.952v-1.106h-.028zm-4.858-2.17c0 .364.056.71.168 1.036.112.317.27.597.476.84.214.233.476.42.784.56.308.13.658.196 1.05.196.364 0 .7-.066 1.008-.196.308-.14.574-.327.798-.56.224-.234.396-.509.518-.826.13-.327.196-.677.196-1.05 0-.374-.066-.719-.196-1.036a2.416 2.416 0 0 0-.518-.84 2.292 2.292 0 0 0-.798-.56 2.407 2.407 0 0 0-1.008-.21c-.392 0-.742.07-1.05.21-.308.14-.57.331-.784.574a2.455 2.455 0 0 0-.476.84 3.05 3.05 0 0 0-.168 1.022zm15.492 0c0 .494-.089.952-.266 1.372-.168.42-.406.784-.714 1.092-.308.308-.677.55-1.106.728a3.848 3.848 0 0 1-1.414.252c-.504 0-.971-.084-1.4-.252a3.358 3.358 0 0 1-1.106-.728 3.387 3.387 0 0 1-.728-1.092 3.661 3.661 0 0 1-.252-1.372c0-.495.084-.952.252-1.372.177-.42.42-.784.728-1.092a3.186 3.186 0 0 1 1.106-.714 3.63 3.63 0 0 1 1.4-.266c.513 0 .985.088 1.414.266.429.168.798.406 1.106.714.308.308.546.672.714 1.092.177.42.266.877.266 1.372zm-1.008 0c0-.364-.061-.705-.182-1.022a2.343 2.343 0 0 0-.49-.84 2.31 2.31 0 0 0-.784-.574 2.475 2.475 0 0 0-1.036-.21c-.383 0-.728.07-1.036.21-.299.14-.555.331-.77.574a2.51 2.51 0 0 0-.504.84 3.05 3.05 0 0 0-.168 1.022c0 .364.056.71.168 1.036.121.317.289.597.504.84.215.233.471.42.77.56.308.13.653.196 1.036.196s.728-.066 1.036-.196c.308-.14.569-.327.784-.56.215-.243.378-.523.49-.84.121-.327.182-.672.182-1.036zm4.511-3.276a13.277 13.277 0 0 1 .056 1.12h.028c.186-.383.49-.691.91-.924.42-.243.863-.364 1.33-.364.83 0 1.451.247 1.862.742.42.494.63 1.148.63 1.96v4.018h-.952v-3.626a4.8 4.8 0 0 0-.084-.938 1.83 1.83 0 0 0-.294-.714 1.299 1.299 0 0 0-.546-.476c-.224-.112-.509-.168-.854-.168-.252 0-.5.051-.742.154a1.779 1.779 0 0 0-.63.476 2.255 2.255 0 0 0-.448.798c-.112.317-.168.695-.168 1.134v3.36h-.952v-5.11a22.449 22.449 0 0 0-.056-1.442h.91zM96.571 66.505h.029l2.478-8.526h1.204l2.478 8.526h.028l2.422-8.526h1.064l-2.926 9.912h-1.176L99.68 59.38h-.028l-2.492 8.512h-1.176l-2.926-9.912h1.064l2.45 8.526zm20.155-.21a4 4 0 0 1-.616.714 3.67 3.67 0 0 1-.826.588 4.272 4.272 0 0 1-1.036.392 4.643 4.643 0 0 1-1.233.154c-.746 0-1.437-.13-2.072-.392a4.967 4.967 0 0 1-1.638-1.078 5.131 5.131 0 0 1-1.078-1.652 5.604 5.604 0 0 1-.378-2.086c0-.756.131-1.451.392-2.086a4.97 4.97 0 0 1 1.078-1.638 5.045 5.045 0 0 1 1.638-1.092 5.353 5.353 0 0 1 2.058-.392c.365 0 .719.037 1.065.112.354.075.686.182.994.322.308.13.588.294.84.49.252.187.462.401.63.644l-.84.616a2.423 2.423 0 0 0-.42-.476 2.656 2.656 0 0 0-.602-.42 3.787 3.787 0 0 0-.77-.294 3.312 3.312 0 0 0-.883-.112c-.644 0-1.222.117-1.736.35-.504.233-.933.55-1.288.952-.354.392-.625.85-.812 1.372a4.892 4.892 0 0 0-.28 1.652c0 .579.094 1.13.28 1.652.196.523.472.985.826 1.386.355.392.784.705 1.288.938.514.233 1.088.35 1.722.35.57 0 1.111-.117 1.625-.35.513-.233.942-.607 1.288-1.12l.784.504zm8.072 1.596h-6.342v-1.05l4.06-4.102c.149-.15.294-.308.434-.476.149-.177.28-.36.392-.546.112-.187.201-.383.266-.588.065-.215.098-.434.098-.658 0-.29-.051-.55-.154-.784a1.612 1.612 0 0 0-.434-.588 1.725 1.725 0 0 0-.63-.378 1.984 1.984 0 0 0-.742-.14c-.532 0-.98.168-1.344.504a2.226 2.226 0 0 0-.7 1.26l-.994-.196a2.93 2.93 0 0 1 .364-.966c.186-.299.41-.555.672-.77.27-.215.574-.383.91-.504a3.19 3.19 0 0 1 1.092-.182c.401 0 .779.06 1.134.182.364.112.681.285.952.518.271.224.485.509.644.854.168.336.252.728.252 1.176 0 .317-.047.611-.14.882-.084.27-.201.527-.35.77a4.41 4.41 0 0 1-.504.7c-.196.215-.401.43-.616.644l-3.57 3.542h5.25v.896zM94.178 77.98h2.954c.373 0 .751.042 1.134.126.382.075.723.21 1.022.406.308.187.555.444.742.77.196.327.294.738.294 1.232 0 .523-.159.98-.476 1.372-.318.383-.742.635-1.274.756v.028c.644.075 1.176.327 1.596.756.429.42.644.994.644 1.722a2.487 2.487 0 0 1-.994 2.002 3.626 3.626 0 0 1-1.162.546c-.458.131-.97.197-1.54.197h-2.94v-9.913zm1.008 4.34h2.03c.242 0 .485-.028.728-.084.252-.056.48-.149.686-.28.205-.14.368-.322.49-.546.13-.224.196-.499.196-.826 0-.317-.066-.583-.196-.798a1.49 1.49 0 0 0-.504-.546 2.098 2.098 0 0 0-.756-.294 4.189 4.189 0 0 0-.924-.098h-1.75v3.472zm0 4.704h1.876c.364 0 .71-.032 1.036-.097.336-.075.625-.187.868-.337.252-.158.452-.359.602-.602.15-.252.224-.55.224-.896 0-.653-.224-1.138-.672-1.456-.439-.326-1.064-.49-1.876-.49h-2.058v3.879zm12.566-3.36c0-.569-.149-.994-.448-1.274-.298-.28-.732-.42-1.302-.42-.392 0-.756.07-1.092.21-.336.14-.62.327-.854.56l-.532-.63c.271-.27.626-.494 1.064-.672a4.077 4.077 0 0 1 1.512-.266c.355 0 .686.052.994.154.308.094.579.238.812.434.234.196.416.444.546.742.131.3.196.65.196 1.05v2.87c0 .252.01.514.028.784.019.271.047.5.084.686h-.854a7.189 7.189 0 0 1-.07-.517 5.697 5.697 0 0 1-.028-.546h-.028c-.298.438-.639.755-1.022.951-.373.187-.826.28-1.358.28-.252 0-.513-.037-.784-.111a2.159 2.159 0 0 1-.728-.336 2.077 2.077 0 0 1-.546-.616c-.14-.252-.21-.56-.21-.925 0-.504.126-.9.378-1.19a2.287 2.287 0 0 1 1.036-.658c.43-.149.92-.242 1.47-.28a20.9 20.9 0 0 1 1.736-.07v-.21zm-.28.952c-.392 0-.788.02-1.19.056a4.717 4.717 0 0 0-1.078.196 1.98 1.98 0 0 0-.784.42c-.205.187-.308.434-.308.742 0 .234.042.43.126.589.094.158.215.289.364.392.15.093.313.163.49.21.187.037.374.055.56.055.336 0 .635-.056.896-.168.262-.12.481-.28.658-.475.178-.206.313-.44.406-.7a2.42 2.42 0 0 0 .14-.827v-.49h-.28zm7.046-2.478h-1.848v3.822c0 .243.023.444.07.602a.968.968 0 0 0 .196.378.857.857 0 0 0 .322.183c.122.028.252.041.392.041a2.022 2.022 0 0 0 .826-.21l.042.826a2.473 2.473 0 0 1-.532.14 2.857 2.857 0 0 1-.588.056c-.177 0-.364-.023-.56-.07a1.418 1.418 0 0 1-.546-.266 1.521 1.521 0 0 1-.42-.531c-.103-.225-.154-.519-.154-.883v-4.088h-1.358v-.798h1.358v-1.848h.952v1.848h1.848v.798zm4.88 0h-1.848v3.822c0 .243.023.444.07.602a.955.955 0 0 0 .196.378c.093.085.2.145.322.183.121.028.252.041.392.041.13 0 .266-.018.406-.055.149-.038.289-.09.42-.154l.042.826a2.489 2.489 0 0 1-.532.14 2.871 2.871 0 0 1-.588.055c-.178 0-.364-.023-.56-.07a1.418 1.418 0 0 1-.546-.266 1.521 1.521 0 0 1-.42-.531c-.103-.225-.154-.519-.154-.883v-4.088h-1.358v-.798h1.358v-1.848h.952v1.848h1.848v.798zm3.069 5.754h-.952V77.307h.952v10.584zm8.145-3.78c-.028-.616-.228-1.124-.602-1.526-.364-.41-.886-.616-1.568-.616-.317 0-.611.061-.882.182a2.19 2.19 0 0 0-.714.476 2.265 2.265 0 0 0-.49.686 2.166 2.166 0 0 0-.21.798h4.466zm.966.308v.21c0 .075-.004.154-.014.238h-5.432c.01.327.075.635.196.924.122.29.29.542.504.756.215.215.467.388.756.519.29.12.602.181.938.181.495 0 .92-.112 1.274-.335.364-.234.64-.5.826-.799l.714.56c-.392.495-.826.85-1.302 1.064a3.57 3.57 0 0 1-1.512.323c-.485 0-.938-.085-1.358-.252a3.282 3.282 0 0 1-1.064-.729 3.538 3.538 0 0 1-.714-1.092 3.66 3.66 0 0 1-.252-1.372c0-.494.084-.952.252-1.372.168-.42.402-.784.7-1.092a3.137 3.137 0 0 1 1.05-.714 3.189 3.189 0 0 1 1.302-.266c.514 0 .966.089 1.358.266.392.168.719.402.98.7.262.29.458.63.588 1.022.14.392.21.812.21 1.26zm13.258.196c0 .495-.088.952-.266 1.372-.168.42-.406.785-.714 1.093a3.35 3.35 0 0 1-1.106.728c-.429.167-.9.251-1.414.251-.504 0-.97-.084-1.4-.251a3.36 3.36 0 0 1-1.106-.729 3.403 3.403 0 0 1-.728-1.092 3.66 3.66 0 0 1-.252-1.372c0-.494.084-.952.252-1.372.178-.42.42-.784.728-1.092a3.186 3.186 0 0 1 1.106-.714c.43-.177.896-.266 1.4-.266.514 0 .985.089 1.414.266.43.168.798.406 1.106.714.308.308.546.672.714 1.092.178.42.266.878.266 1.372zm-1.008 0c0-.364-.06-.704-.182-1.022a2.342 2.342 0 0 0-.49-.84 2.3 2.3 0 0 0-.784-.574 2.475 2.475 0 0 0-1.036-.21c-.382 0-.728.07-1.036.21-.298.14-.555.332-.77.574a2.542 2.542 0 0 0-.504.84 3.049 3.049 0 0 0-.168 1.022c0 .364.056.71.168 1.036.122.318.29.598.504.84.215.234.472.42.77.56.308.131.654.197 1.036.197.383 0 .728-.066 1.036-.197.308-.14.57-.326.784-.56.215-.242.378-.522.49-.84.122-.326.182-.672.182-1.036zm6.429-2.478h-1.54v5.754h-.952v-5.754h-1.372v-.798h1.372v-1.792c0-.746.182-1.334.546-1.764.364-.429.924-.644 1.68-.644.121 0 .252.01.392.028.14.01.271.033.392.07l-.168.84a3.669 3.669 0 0 0-.308-.07 1.966 1.966 0 0 0-.35-.028c-.252 0-.462.042-.63.126a.94.94 0 0 0-.378.364c-.084.15-.145.327-.182.532a4.877 4.877 0 0 0-.042.658v1.68h1.54v.798zm9.291 5.754h-1.008v-9.016h-3.318v-.896h7.644v.896h-3.318v9.016zm4.093-5.11a22.449 22.449 0 0 0-.056-1.442h.91a13.273 13.273 0 0 1 .056 1.12h.028c.186-.382.466-.69.84-.924a2.26 2.26 0 0 1 1.26-.364c.121 0 .229.005.322.014.103.01.205.028.308.056l-.126.896a2.764 2.764 0 0 0-.672-.084 1.94 1.94 0 0 0-.728.14 1.58 1.58 0 0 0-.616.448 2.4 2.4 0 0 0-.42.77c-.103.308-.154.682-.154 1.12v3.36h-.952v-5.11zm9.611.882c0-.569-.15-.994-.448-1.274-.299-.28-.733-.42-1.302-.42-.392 0-.756.07-1.092.21-.336.14-.621.327-.854.56l-.532-.63c.27-.27.625-.494 1.064-.672a4.077 4.077 0 0 1 1.512-.266c.354 0 .686.052.994.154.308.094.578.238.812.434.233.196.415.444.546.742.13.3.196.65.196 1.05v2.87c0 .252.009.514.028.784.018.271.046.5.084.686h-.854a6.667 6.667 0 0 1-.098-1.064h-.028c-.299.44-.64.757-1.022.953-.374.186-.826.28-1.358.28-.252 0-.514-.038-.784-.112a2.15 2.15 0 0 1-.728-.336 2.05 2.05 0 0 1-.546-.616c-.14-.252-.21-.56-.21-.925 0-.504.126-.9.378-1.19a2.276 2.276 0 0 1 1.036-.658 5.63 5.63 0 0 1 1.47-.28c.56-.046 1.138-.07 1.736-.07v-.21zm-.28.952c-.392 0-.789.02-1.19.056a4.707 4.707 0 0 0-1.078.196 1.967 1.967 0 0 0-.784.42c-.206.187-.308.434-.308.742 0 .234.042.43.126.589.093.158.214.289.364.392.149.093.312.163.49.21.186.037.373.055.56.055.336 0 .634-.056.896-.168.261-.12.48-.28.658-.475.177-.206.312-.44.406-.7.093-.262.14-.537.14-.827v-.49h-.28zm7-2.478h-1.54v5.754h-.952v-5.754h-1.372v-.798h1.372v-1.792c0-.746.182-1.334.546-1.764.364-.429.924-.644 1.68-.644.122 0 .252.01.392.028.14.01.271.033.392.07l-.168.84a3.581 3.581 0 0 0-.308-.07 1.959 1.959 0 0 0-.35-.028c-.252 0-.462.042-.63.126a.953.953 0 0 0-.378.364c-.084.15-.144.327-.182.532a4.877 4.877 0 0 0-.042.658v1.68h1.54v.798zm6.087 1.526c0-.569-.149-.994-.448-1.274-.298-.28-.732-.42-1.302-.42-.392 0-.756.07-1.092.21-.336.14-.62.327-.854.56l-.532-.63c.271-.27.626-.494 1.064-.672a4.077 4.077 0 0 1 1.512-.266c.355 0 .686.052.994.154.308.094.579.238.812.434.234.196.416.444.546.742.131.3.196.65.196 1.05v2.87c0 .252.01.514.028.784.019.271.047.5.084.686h-.854a7.189 7.189 0 0 1-.07-.517 5.697 5.697 0 0 1-.028-.546h-.028c-.298.438-.639.755-1.022.951-.373.187-.826.28-1.358.28-.252 0-.513-.037-.784-.111a2.159 2.159 0 0 1-.728-.336 2.077 2.077 0 0 1-.546-.616c-.14-.252-.21-.56-.21-.925 0-.504.126-.9.378-1.19a2.287 2.287 0 0 1 1.036-.658c.43-.149.92-.242 1.47-.28a20.9 20.9 0 0 1 1.736-.07v-.21zm-.28.952c-.392 0-.788.02-1.19.056a4.717 4.717 0 0 0-1.078.196 1.98 1.98 0 0 0-.784.42c-.205.187-.308.434-.308.742 0 .234.042.43.126.589.094.158.215.289.364.392.15.093.313.163.49.21.187.037.374.055.56.055.336 0 .635-.056.896-.168.262-.12.481-.28.658-.475.178-.206.313-.44.406-.7a2.42 2.42 0 0 0 .14-.827v-.49h-.28zm5.209 3.276h-.952V77.307h.952v10.584zm3.497 1.316c.262.337.616.621 1.064.855.458.233.938.35 1.442.35.467 0 .864-.07 1.191-.21.326-.131.588-.313.784-.546.205-.234.354-.51.448-.827.093-.307.14-.639.14-.993v-1.233h-.028c-.252.411-.612.729-1.078.953a3.157 3.157 0 0 1-1.401.335 3.74 3.74 0 0 1-1.4-.252 3.325 3.325 0 0 1-1.064-.685 3.32 3.32 0 0 1-.686-1.065 3.673 3.673 0 0 1-.238-1.33c0-.466.08-.905.238-1.316.168-.41.397-.77.686-1.078a3.28 3.28 0 0 1 1.064-.728c.42-.177.887-.266 1.4-.266.476 0 .943.112 1.401.336.457.224.816.546 1.078.966h.028V81.34h.952v6.496c0 .355-.052.733-.154 1.135a2.75 2.75 0 0 1-.546 1.106c-.262.336-.621.616-1.078.84-.458.224-1.051.335-1.779.335a4.407 4.407 0 0 1-1.736-.35 4.192 4.192 0 0 1-1.414-.965l.686-.729zm.182-4.676c0 .346.056.672.168.98.112.308.271.58.476.812.215.234.476.42.784.56.308.131.658.197 1.05.197.364 0 .7-.061 1.009-.183.308-.12.574-.294.798-.518.224-.224.396-.49.518-.798.13-.317.196-.667.196-1.05 0-.345-.066-.672-.196-.98a2.474 2.474 0 0 0-.518-.812 2.563 2.563 0 0 0-.798-.56 2.415 2.415 0 0 0-1.009-.21c-.392 0-.742.07-1.05.21-.308.14-.569.327-.784.56a2.524 2.524 0 0 0-.476.812 2.845 2.845 0 0 0-.168.98zm13.044-.868c0-.569-.149-.994-.448-1.274-.298-.28-.732-.42-1.302-.42-.392 0-.756.07-1.092.21-.336.14-.62.327-.854.56l-.532-.63c.271-.27.626-.494 1.064-.672a4.077 4.077 0 0 1 1.512-.266c.355 0 .686.052.994.154.308.094.579.238.812.434.234.196.416.444.546.742.131.3.196.65.196 1.05v2.87c0 .252.01.514.028.784.019.271.047.5.084.686h-.854a7.189 7.189 0 0 1-.07-.517 5.697 5.697 0 0 1-.028-.546h-.028c-.298.438-.639.755-1.022.951-.373.187-.826.28-1.358.28-.252 0-.513-.037-.784-.111a2.159 2.159 0 0 1-.728-.336 2.077 2.077 0 0 1-.546-.616c-.14-.252-.21-.56-.21-.925 0-.504.126-.9.378-1.19a2.287 2.287 0 0 1 1.036-.658c.43-.149.92-.242 1.47-.28a20.9 20.9 0 0 1 1.736-.07v-.21zm-.28.952c-.392 0-.788.02-1.19.056a4.717 4.717 0 0 0-1.078.196 1.98 1.98 0 0 0-.784.42c-.205.187-.308.434-.308.742 0 .234.042.43.126.589.094.158.215.289.364.392.15.093.313.163.49.21.187.037.374.055.56.055.336 0 .635-.056.896-.168.262-.12.481-.28.658-.475.178-.206.313-.44.406-.7a2.42 2.42 0 0 0 .14-.827v-.49h-.28zm4.229-1.834a22.449 22.449 0 0 0-.056-1.442h.91a13.273 13.273 0 0 1 .056 1.12h.028c.187-.382.467-.69.84-.924a2.26 2.26 0 0 1 1.26-.364c.121 0 .229.005.322.014.103.01.205.028.308.056l-.126.896a2.764 2.764 0 0 0-.672-.084 1.94 1.94 0 0 0-.728.14 1.587 1.587 0 0 0-.616.448 2.4 2.4 0 0 0-.42.77c-.103.308-.154.682-.154 1.12v3.36h-.952v-5.11zm-109.138 23.515a4 4 0 0 1-.616.714 3.67 3.67 0 0 1-.826.588 4.301 4.301 0 0 1-1.036.392 4.669 4.669 0 0 1-1.232.154 5.396 5.396 0 0 1-2.072-.392 4.97 4.97 0 0 1-1.638-1.078 5.124 5.124 0 0 1-1.078-1.652 5.605 5.605 0 0 1-.378-2.086c0-.756.13-1.452.392-2.086a4.95 4.95 0 0 1 1.078-1.638 5.04 5.04 0 0 1 1.638-1.092 5.353 5.353 0 0 1 2.058-.392c.364 0 .718.037 1.064.112.354.074.686.182.994.322.308.13.588.294.84.49.252.186.462.401.63.644l-.84.616a2.42 2.42 0 0 0-.42-.476 2.656 2.656 0 0 0-.602-.42 3.777 3.777 0 0 0-.77-.294 3.307 3.307 0 0 0-.882-.112c-.644 0-1.223.116-1.736.35a3.86 3.86 0 0 0-1.288.952c-.355.392-.626.849-.812 1.372a4.87 4.87 0 0 0-.28 1.652c0 .578.093 1.129.28 1.652.196.522.471.984.826 1.386.354.392.784.704 1.288.938a4.12 4.12 0 0 0 1.722.35c.57 0 1.11-.117 1.624-.35.513-.234.942-.607 1.288-1.12l.784.504zm3.284-3.878c.177-.383.471-.686.882-.91a2.707 2.707 0 0 1 1.316-.336c.831 0 1.451.247 1.862.742.42.494.63 1.148.63 1.96v4.018h-.952v-3.626c0-.346-.028-.658-.084-.938a1.83 1.83 0 0 0-.294-.714 1.294 1.294 0 0 0-.546-.476c-.224-.112-.509-.168-.854-.168-.252 0-.499.051-.742.154a1.783 1.783 0 0 0-.63.476 2.248 2.248 0 0 0-.448.798c-.112.317-.168.695-.168 1.134v3.36h-.952V97.308h.952v5.11h.028zm11.884 1.246c0-.57-.149-.994-.448-1.274-.298-.28-.732-.42-1.302-.42-.392 0-.756.07-1.092.21-.336.14-.62.326-.854.56l-.532-.63c.271-.271.626-.495 1.064-.672a4.065 4.065 0 0 1 1.512-.266c.355 0 .686.051.994.154.308.093.579.238.812.434.234.196.416.443.546.742.131.298.196.648.196 1.05v2.87c0 .252.01.513.028.784.019.27.047.499.084.686h-.854a7.258 7.258 0 0 1-.07-.518 5.707 5.707 0 0 1-.028-.546h-.028c-.298.438-.639.756-1.022.952-.373.186-.826.28-1.358.28-.252 0-.513-.038-.784-.112a2.182 2.182 0 0 1-.728-.336 2.08 2.08 0 0 1-.546-.616c-.14-.252-.21-.56-.21-.924 0-.504.126-.901.378-1.19a2.283 2.283 0 0 1 1.036-.658c.43-.15.92-.243 1.47-.28.56-.047 1.139-.07 1.736-.07v-.21zm-.28.952c-.392 0-.788.018-1.19.056a4.695 4.695 0 0 0-1.078.196 1.97 1.97 0 0 0-.784.42c-.205.186-.308.434-.308.742 0 .233.042.429.126.588.094.158.215.289.364.392a1.8 1.8 0 0 0 .49.21c.187.037.374.056.56.056.336 0 .635-.056.896-.168.262-.122.481-.28.658-.476.178-.206.313-.439.406-.7.094-.262.14-.537.14-.826v-.49h-.28zm4.229-1.834a22.406 22.406 0 0 0-.056-1.442h.91a13.246 13.246 0 0 1 .056 1.12h.028c.187-.383.467-.691.84-.924a2.257 2.257 0 0 1 1.26-.364c.121 0 .229.004.322.014.103.009.205.028.308.056l-.126.896a2.72 2.72 0 0 0-.672-.084c-.252 0-.495.046-.728.14a1.578 1.578 0 0 0-.616.448 2.393 2.393 0 0 0-.42.77c-.103.308-.154.681-.154 1.12v3.36h-.952v-5.11zm6.611 5.11h-.952v-6.552h.952v6.552zm.196-9.072c0 .196-.07.359-.21.49a.69.69 0 0 1-.462.182.69.69 0 0 1-.462-.182.642.642 0 0 1-.21-.49.6.6 0 0 1 .21-.476.664.664 0 0 1 .462-.196c.168 0 .322.065.462.196a.6.6 0 0 1 .21.476zm3.792 2.52a13.246 13.246 0 0 1 .056 1.12h.028c.187-.383.49-.691.91-.924.42-.243.863-.364 1.33-.364.831 0 1.451.247 1.862.742.42.494.63 1.148.63 1.96v4.018h-.952v-3.626c0-.346-.028-.658-.084-.938a1.83 1.83 0 0 0-.294-.714 1.294 1.294 0 0 0-.546-.476c-.224-.112-.509-.168-.854-.168-.252 0-.499.051-.742.154a1.783 1.783 0 0 0-.63.476 2.248 2.248 0 0 0-.448.798c-.112.317-.168.695-.168 1.134v3.36h-.952v-5.11a22.406 22.406 0 0 0-.056-1.442h.91zm8.231 7.868c.261.336.616.621 1.064.854.457.233.938.35 1.442.35.467 0 .863-.07 1.19-.21.327-.131.588-.313.784-.546.205-.234.355-.509.448-.826.093-.308.14-.64.14-.994v-1.232h-.028a2.5 2.5 0 0 1-1.078.952 3.15 3.15 0 0 1-1.4.336 3.74 3.74 0 0 1-1.4-.252 3.32 3.32 0 0 1-1.064-.686 3.33 3.33 0 0 1-.686-1.064 3.653 3.653 0 0 1-.238-1.33c0-.467.079-.906.238-1.316.168-.411.397-.77.686-1.078a3.265 3.265 0 0 1 1.064-.728c.42-.178.887-.266 1.4-.266.476 0 .943.112 1.4.336.457.224.817.546 1.078.966h.028v-1.134h.952v6.496c0 .354-.051.732-.154 1.134-.093.401-.275.77-.546 1.106-.261.336-.621.616-1.078.84-.457.224-1.05.336-1.778.336a4.41 4.41 0 0 1-1.736-.35 4.174 4.174 0 0 1-1.414-.966l.686-.728zm.182-4.676c0 .345.056.672.168.98.112.308.271.578.476.812.215.233.476.42.784.56.308.13.658.196 1.05.196.364 0 .7-.061 1.008-.182.308-.122.574-.294.798-.518.224-.224.397-.49.518-.798a2.73 2.73 0 0 0 .196-1.05c0-.346-.065-.672-.196-.98a2.455 2.455 0 0 0-.518-.812 2.554 2.554 0 0 0-.798-.56 2.407 2.407 0 0 0-1.008-.21c-.392 0-.742.07-1.05.21-.308.14-.569.326-.784.56a2.52 2.52 0 0 0-.476.812 2.843 2.843 0 0 0-.168.98zm21.414 1.764a3.96 3.96 0 0 1-.616.714c-.233.224-.509.42-.826.588a4.285 4.285 0 0 1-1.036.392 4.664 4.664 0 0 1-1.232.154 5.395 5.395 0 0 1-2.072-.392 4.963 4.963 0 0 1-1.638-1.078 5.126 5.126 0 0 1-1.078-1.652 5.605 5.605 0 0 1-.378-2.086c0-.756.131-1.452.392-2.086a4.952 4.952 0 0 1 1.078-1.638 5.047 5.047 0 0 1 1.638-1.092 5.355 5.355 0 0 1 2.058-.392c.364 0 .719.037 1.064.112.355.074.686.182.994.322.308.13.588.294.84.49.252.186.462.401.63.644l-.84.616a2.42 2.42 0 0 0-.42-.476 2.656 2.656 0 0 0-.602-.42 3.753 3.753 0 0 0-.77-.294 3.31 3.31 0 0 0-.882-.112c-.644 0-1.223.116-1.736.35-.504.233-.933.55-1.288.952-.355.392-.625.849-.812 1.372a4.862 4.862 0 0 0-.28 1.652c0 .578.093 1.129.28 1.652.196.522.471.984.826 1.386.355.392.784.704 1.288.938.513.233 1.087.35 1.722.35.569 0 1.111-.117 1.624-.35.513-.234.943-.607 1.288-1.12l.784.504zm2.276-3.514a19.577 19.577 0 0 0-.056-1.442h.91a11.6 11.6 0 0 1 .056 1.12h.028c.187-.383.467-.691.84-.924a2.262 2.262 0 0 1 1.26-.364c.122 0 .229.004.322.014.103.009.206.028.308.056l-.126.896a2.71 2.71 0 0 0-.672-.084c-.252 0-.494.046-.728.14a1.585 1.585 0 0 0-.616.448 2.393 2.393 0 0 0-.42.77c-.102.308-.154.681-.154 1.12v3.36h-.952v-5.11zm11.909 1.834c0 .494-.088.952-.266 1.372-.168.42-.406.784-.714 1.092-.308.308-.676.55-1.106.728-.429.168-.9.252-1.414.252-.504 0-.971-.084-1.4-.252a3.37 3.37 0 0 1-1.106-.728 3.387 3.387 0 0 1-.728-1.092 3.663 3.663 0 0 1-.252-1.372c0-.495.084-.952.252-1.372.177-.42.42-.784.728-1.092a3.186 3.186 0 0 1 1.106-.714 3.618 3.618 0 0 1 1.4-.266c.514 0 .985.088 1.414.266.43.168.798.406 1.106.714.308.308.546.672.714 1.092.178.42.266.877.266 1.372zm-1.008 0c0-.364-.06-.705-.182-1.022a2.337 2.337 0 0 0-.49-.84 2.296 2.296 0 0 0-.784-.574 2.475 2.475 0 0 0-1.036-.21c-.383 0-.728.07-1.036.21a2.34 2.34 0 0 0-.77.574 2.503 2.503 0 0 0-.504.84 3.048 3.048 0 0 0-.168 1.022c0 .364.056.709.168 1.036.121.317.289.597.504.84.215.233.471.42.77.56.308.13.653.196 1.036.196s.728-.066 1.036-.196c.308-.14.57-.327.784-.56a2.52 2.52 0 0 0 .49-.84c.122-.327.182-.672.182-1.036zm7.143-1.722a1.615 1.615 0 0 0-.644-.658 1.761 1.761 0 0 0-.966-.266c-.168 0-.336.018-.504.056a1.366 1.366 0 0 0-.448.182 1.052 1.052 0 0 0-.322.322.909.909 0 0 0-.112.462c0 .308.126.546.378.714.252.158.649.294 1.19.406.775.158 1.344.392 1.708.7.373.298.56.704.56 1.218 0 .373-.075.69-.224.952-.14.252-.327.462-.56.63-.233.158-.499.27-.798.336a3.543 3.543 0 0 1-2.324-.196 2.68 2.68 0 0 1-1.148-.966l.756-.56c.168.289.415.532.742.728.327.196.686.294 1.078.294.205 0 .401-.019.588-.056.187-.038.35-.103.49-.196a1.1 1.1 0 0 0 .336-.35c.084-.15.126-.332.126-.546 0-.346-.168-.602-.504-.77-.327-.178-.803-.341-1.428-.49a13.907 13.907 0 0 1-.63-.168 2.481 2.481 0 0 1-.602-.308 1.753 1.753 0 0 1-.462-.518c-.121-.206-.182-.462-.182-.77 0-.336.065-.621.196-.854.131-.243.303-.439.518-.588.224-.159.476-.276.756-.35.28-.075.569-.112.868-.112.457 0 .901.102 1.33.308.429.205.751.494.966.868l-.728.546zm6.821 0a1.615 1.615 0 0 0-.644-.658 1.761 1.761 0 0 0-.966-.266c-.168 0-.336.018-.504.056a1.357 1.357 0 0 0-.448.182 1.052 1.052 0 0 0-.322.322.909.909 0 0 0-.112.462c0 .308.126.546.378.714.252.158.648.294 1.19.406.774.158 1.344.392 1.708.7.373.298.56.704.56 1.218 0 .373-.075.69-.224.952-.14.252-.327.462-.56.63a2.3 2.3 0 0 1-.798.336 3.548 3.548 0 0 1-2.324-.196 2.674 2.674 0 0 1-1.148-.966l.756-.56c.168.289.415.532.742.728.326.196.686.294 1.078.294.205 0 .401-.019.588-.056.186-.038.35-.103.49-.196a1.1 1.1 0 0 0 .336-.35c.084-.15.126-.332.126-.546 0-.346-.168-.602-.504-.77-.327-.178-.803-.341-1.428-.49a13.907 13.907 0 0 1-.63-.168 2.463 2.463 0 0 1-.602-.308 1.753 1.753 0 0 1-.462-.518c-.122-.206-.182-.462-.182-.77 0-.336.065-.621.196-.854.13-.243.303-.439.518-.588.224-.159.476-.276.756-.35.28-.075.569-.112.868-.112.457 0 .9.102 1.33.308.429.205.751.494.966.868l-.728.546zm13.581 2.702l2.226 2.296h-1.4l-1.4-1.47c-.411.56-.854.975-1.33 1.246-.476.261-1.05.392-1.722.392-.42 0-.822-.061-1.204-.182a3.078 3.078 0 0 1-.98-.518 2.633 2.633 0 0 1-.672-.854 2.819 2.819 0 0 1-.238-1.19c0-.374.056-.71.168-1.008.121-.299.284-.565.49-.798.205-.243.448-.458.728-.644.28-.187.583-.35.91-.49a7.75 7.75 0 0 1-.448-.49 5.335 5.335 0 0 1-.378-.546 3.638 3.638 0 0 1-.28-.616 2.227 2.227 0 0 1-.098-.658c0-.374.065-.705.196-.994.13-.29.308-.532.532-.728.224-.206.485-.36.784-.462.298-.103.616-.154.952-.154.326 0 .634.051.924.154.289.093.541.238.756.434.224.186.396.42.518.7.13.27.196.583.196.938 0 .326-.066.62-.196.882-.122.261-.29.499-.504.714a4.011 4.011 0 0 1-.714.56c-.262.158-.532.308-.812.448l2.31 2.38 1.372-2.408h1.134l-1.82 3.066zm-1.75-5.642c0-.411-.136-.747-.406-1.008-.262-.262-.593-.392-.994-.392-.439 0-.798.14-1.078.42-.28.27-.42.639-.42 1.106 0 .177.037.364.112.56.074.186.168.364.28.532.112.168.228.322.35.462.13.14.242.247.336.322.224-.103.443-.215.658-.336a3.51 3.51 0 0 0 .574-.434 1.84 1.84 0 0 0 .42-.546c.112-.206.168-.434.168-.686zm-2.114 3.066c-.598.27-1.05.592-1.358.966-.308.364-.462.812-.462 1.344 0 .28.051.536.154.77.112.233.261.434.448.602.196.158.42.284.672.378.252.093.518.14.798.14.541 0 .989-.122 1.344-.364.364-.243.704-.607 1.022-1.092l-2.618-2.744zm13.339 3.976h4.62v.896h-5.628V97.98h1.008v9.016zm11.425-2.884c-.028-.616-.229-1.125-.602-1.526-.364-.411-.887-.616-1.568-.616-.317 0-.611.06-.882.182a2.16 2.16 0 0 0-.714.476 2.24 2.24 0 0 0-.49.686 2.166 2.166 0 0 0-.21.798h4.466zm.966.308v.21c0 .074-.005.154-.014.238h-5.432c.009.326.075.634.196.924.121.289.289.541.504.756.215.214.467.387.756.518.289.121.602.182.938.182.495 0 .919-.112 1.274-.336.364-.234.639-.5.826-.798l.714.56c-.392.494-.826.849-1.302 1.064a3.586 3.586 0 0 1-1.512.322c-.485 0-.938-.084-1.358-.252a3.28 3.28 0 0 1-1.064-.728 3.502 3.502 0 0 1-.714-1.092 3.663 3.663 0 0 1-.252-1.372c0-.495.084-.952.252-1.372.168-.42.401-.784.7-1.092a3.137 3.137 0 0 1 1.05-.714 3.172 3.172 0 0 1 1.302-.266c.513 0 .966.088 1.358.266.392.168.719.401.98.7.261.289.457.63.588 1.022.14.392.21.812.21 1.26zm3.614 3.472h-.952v-6.552h.952v6.552zm.196-9.072c0 .196-.07.359-.21.49a.69.69 0 0 1-.462.182.69.69 0 0 1-.462-.182.642.642 0 0 1-.21-.49.6.6 0 0 1 .21-.476.664.664 0 0 1 .462-.196c.168 0 .322.065.462.196a.6.6 0 0 1 .21.476zm7.656 4.018a1.744 1.744 0 0 0-.7-.616 1.965 1.965 0 0 0-.98-.252c-.383 0-.728.07-1.036.21-.308.13-.574.317-.798.56a2.503 2.503 0 0 0-.504.84 3.088 3.088 0 0 0-.168 1.036c0 .373.056.718.168 1.036.121.317.289.597.504.84.215.233.476.42.784.56.308.13.653.196 1.036.196.42 0 .775-.08 1.064-.238.289-.159.527-.364.714-.616l.714.532a3.11 3.11 0 0 1-1.036.826c-.401.205-.887.308-1.456.308a3.928 3.928 0 0 1-1.442-.252 3.37 3.37 0 0 1-1.106-.728 3.316 3.316 0 0 1-.7-1.092 3.663 3.663 0 0 1-.252-1.372c0-.495.084-.952.252-1.372.168-.42.401-.784.7-1.092a3.186 3.186 0 0 1 1.106-.714c.429-.178.91-.266 1.442-.266.439 0 .882.098 1.33.294.457.186.826.466 1.106.84l-.742.532zm7.88 1.274c-.028-.616-.229-1.125-.602-1.526-.364-.411-.887-.616-1.568-.616-.317 0-.611.06-.882.182a2.16 2.16 0 0 0-.714.476 2.24 2.24 0 0 0-.49.686 2.166 2.166 0 0 0-.21.798h4.466zm.966.308v.21c0 .074-.005.154-.014.238h-5.432c.009.326.075.634.196.924.121.289.289.541.504.756.215.214.467.387.756.518.289.121.602.182.938.182.495 0 .919-.112 1.274-.336.364-.234.639-.5.826-.798l.714.56c-.392.494-.826.849-1.302 1.064a3.586 3.586 0 0 1-1.512.322c-.485 0-.938-.084-1.358-.252a3.28 3.28 0 0 1-1.064-.728 3.502 3.502 0 0 1-.714-1.092 3.663 3.663 0 0 1-.252-1.372c0-.495.084-.952.252-1.372.168-.42.401-.784.7-1.092a3.137 3.137 0 0 1 1.05-.714 3.172 3.172 0 0 1 1.302-.266c.513 0 .966.088 1.358.266.392.168.719.401.98.7.261.289.457.63.588 1.022.14.392.21.812.21 1.26zm6.134-1.526a1.615 1.615 0 0 0-.644-.658 1.761 1.761 0 0 0-.966-.266c-.168 0-.336.018-.504.056a1.366 1.366 0 0 0-.448.182 1.052 1.052 0 0 0-.322.322.909.909 0 0 0-.112.462c0 .308.126.546.378.714.252.158.649.294 1.19.406.775.158 1.344.392 1.708.7.373.298.56.704.56 1.218 0 .373-.075.69-.224.952-.14.252-.327.462-.56.63-.233.158-.499.27-.798.336a3.543 3.543 0 0 1-2.324-.196 2.68 2.68 0 0 1-1.148-.966l.756-.56c.168.289.415.532.742.728.327.196.686.294 1.078.294.205 0 .401-.019.588-.056.187-.038.35-.103.49-.196a1.1 1.1 0 0 0 .336-.35c.084-.15.126-.332.126-.546 0-.346-.168-.602-.504-.77-.327-.178-.803-.341-1.428-.49a13.907 13.907 0 0 1-.63-.168 2.481 2.481 0 0 1-.602-.308 1.753 1.753 0 0 1-.462-.518c-.121-.206-.182-.462-.182-.77 0-.336.065-.621.196-.854.131-.243.303-.439.518-.588.224-.159.476-.276.756-.35.28-.075.569-.112.868-.112.457 0 .901.102 1.33.308.429.205.751.494.966.868l-.728.546zm6.289-.756h-1.848v3.822c0 .242.023.443.07.602a.964.964 0 0 0 .196.378.85.85 0 0 0 .322.182c.121.028.252.042.392.042.13 0 .266-.019.406-.056a2.12 2.12 0 0 0 .42-.154l.042.826a2.506 2.506 0 0 1-.532.14 2.892 2.892 0 0 1-.588.056c-.178 0-.364-.024-.56-.07a1.431 1.431 0 0 1-.966-.798c-.103-.224-.154-.518-.154-.882v-4.088h-1.358v-.798h1.358v-1.848h.952v1.848h1.848v.798zm7.087 1.974c-.028-.616-.228-1.125-.602-1.526-.364-.411-.886-.616-1.568-.616-.317 0-.611.06-.882.182a2.18 2.18 0 0 0-.714.476 2.24 2.24 0 0 0-.49.686 2.166 2.166 0 0 0-.21.798h4.466zm.966.308v.21c0 .074-.004.154-.014.238h-5.432c.009.326.075.634.196.924.121.289.289.541.504.756.215.214.467.387.756.518.29.121.602.182.938.182.495 0 .92-.112 1.274-.336.364-.234.64-.5.826-.798l.714.56c-.392.494-.826.849-1.302 1.064a3.58 3.58 0 0 1-1.512.322c-.485 0-.938-.084-1.358-.252a3.28 3.28 0 0 1-1.064-.728 3.502 3.502 0 0 1-.714-1.092 3.663 3.663 0 0 1-.252-1.372c0-.495.084-.952.252-1.372.168-.42.401-.784.7-1.092a3.137 3.137 0 0 1 1.05-.714 3.179 3.179 0 0 1 1.302-.266c.514 0 .966.088 1.358.266.392.168.719.401.98.7.262.289.458.63.588 1.022.14.392.21.812.21 1.26zm2.648-1.638a22.406 22.406 0 0 0-.056-1.442h.91a13.246 13.246 0 0 1 .056 1.12h.028c.187-.383.467-.691.84-.924a2.257 2.257 0 0 1 1.26-.364c.121 0 .229.004.322.014.103.009.205.028.308.056l-.126.896a2.72 2.72 0 0 0-.672-.084c-.252 0-.495.046-.728.14a1.578 1.578 0 0 0-.616.448 2.393 2.393 0 0 0-.42.77c-.103.308-.154.681-.154 1.12v3.36h-.952v-5.11zm14.603-3.206a2.347 2.347 0 0 0-.826-.714c-.336-.187-.742-.28-1.218-.28-.243 0-.49.037-.742.112a2.072 2.072 0 0 0-.686.35c-.205.149-.373.34-.504.574a1.771 1.771 0 0 0-.182.826c0 .317.061.578.182.784.121.205.28.382.476.532.205.14.434.256.686.35.261.093.532.186.812.28.345.112.691.233 1.036.364.355.13.672.303.952.518.28.205.509.471.686.798.178.317.266.723.266 1.218 0 .494-.098.924-.294 1.288a2.627 2.627 0 0 1-.742.882 3.003 3.003 0 0 1-1.036.518 4.119 4.119 0 0 1-2.058.07 3.802 3.802 0 0 1-.854-.266 3.53 3.53 0 0 1-.756-.462 3.388 3.388 0 0 1-.616-.644l.868-.644c.215.354.513.653.896.896.392.233.849.35 1.372.35.252 0 .509-.038.77-.112.261-.084.495-.206.7-.364.215-.168.388-.369.518-.602.14-.243.21-.523.21-.84 0-.346-.07-.63-.21-.854a1.635 1.635 0 0 0-.532-.574 3.112 3.112 0 0 0-.77-.392 30.99 30.99 0 0 0-.91-.308c-.327-.103-.649-.22-.966-.35a3.405 3.405 0 0 1-.854-.504 2.562 2.562 0 0 1-.616-.784c-.149-.308-.224-.686-.224-1.134 0-.476.093-.887.28-1.232a2.67 2.67 0 0 1 .756-.854 3.14 3.14 0 0 1 1.022-.49 4.159 4.159 0 0 1 1.106-.154c.672 0 1.246.121 1.722.364.476.233.836.513 1.078.84l-.798.644zm9.021 7.21c-.271.41-.635.728-1.092.952a3.155 3.155 0 0 1-1.372.322c-.514 0-.98-.089-1.4-.266a3.27 3.27 0 0 1-1.064-.728 3.433 3.433 0 0 1-.686-1.092 3.805 3.805 0 0 1-.238-1.358c0-.486.079-.938.238-1.358.168-.42.396-.784.686-1.092a3.254 3.254 0 0 1 1.064-.728 3.55 3.55 0 0 1 1.4-.266c.466 0 .924.112 1.372.336a2.54 2.54 0 0 1 1.092.966h.042v-1.134h.952v9.912h-.952v-4.466h-.042zm-4.844-2.17c0 .364.056.709.168 1.036.112.317.27.597.476.84.214.233.476.42.784.56.308.13.658.196 1.05.196.364 0 .7-.066 1.008-.196a2.452 2.452 0 0 0 1.316-1.386c.13-.327.196-.677.196-1.05 0-.374-.066-.719-.196-1.036a2.409 2.409 0 0 0-.518-.84 2.277 2.277 0 0 0-.798-.56 2.407 2.407 0 0 0-1.008-.21c-.392 0-.742.07-1.05.21a2.296 2.296 0 0 0-1.26 1.414 3.048 3.048 0 0 0-.168 1.022zm13.715 3.276a11.635 11.635 0 0 1-.056-1.12h-.028c-.187.382-.49.695-.91.938-.42.233-.864.35-1.331.35-.83 0-1.456-.248-1.876-.742-.41-.495-.616-1.148-.616-1.96v-4.018h.952v3.626c0 .345.028.658.084.938.056.28.15.522.28.728.14.196.322.35.546.462.234.112.523.168.868.168.253 0 .495-.052.729-.154.242-.103.457-.257.644-.462.186-.215.336-.481.448-.798.112-.327.168-.71.168-1.148v-3.36h.952v5.11a19.623 19.623 0 0 0 .056 1.442h-.91zm8.104-4.228c0-.57-.149-.994-.448-1.274-.298-.28-.732-.42-1.302-.42-.392 0-.756.07-1.092.21-.336.14-.62.326-.854.56l-.532-.63c.271-.271.626-.495 1.064-.672a4.065 4.065 0 0 1 1.512-.266c.355 0 .686.051.994.154.308.093.579.238.812.434.234.196.416.443.546.742.131.298.196.648.196 1.05v2.87c0 .252.01.513.028.784.019.27.047.499.084.686h-.854a7.258 7.258 0 0 1-.07-.518 5.707 5.707 0 0 1-.028-.546h-.028c-.298.438-.639.756-1.022.952-.373.186-.826.28-1.358.28-.252 0-.513-.038-.784-.112a2.182 2.182 0 0 1-.728-.336 2.08 2.08 0 0 1-.546-.616c-.14-.252-.21-.56-.21-.924 0-.504.126-.901.378-1.19a2.283 2.283 0 0 1 1.036-.658c.43-.15.92-.243 1.47-.28.56-.047 1.139-.07 1.736-.07v-.21zm-.28.952c-.392 0-.788.018-1.19.056a4.695 4.695 0 0 0-1.078.196 1.97 1.97 0 0 0-.784.42c-.205.186-.308.434-.308.742 0 .233.042.429.126.588.094.158.215.289.364.392a1.8 1.8 0 0 0 .49.21c.187.037.374.056.56.056.336 0 .635-.056.896-.168.262-.122.481-.28.658-.476.178-.206.313-.439.406-.7.094-.262.14-.537.14-.826v-.49h-.28zm4.229-1.834a22.406 22.406 0 0 0-.056-1.442h.91a13.246 13.246 0 0 1 .056 1.12h.028c.187-.383.467-.691.84-.924a2.257 2.257 0 0 1 1.26-.364c.121 0 .229.004.322.014.103.009.205.028.308.056l-.126.896a2.72 2.72 0 0 0-.672-.084c-.252 0-.495.046-.728.14a1.578 1.578 0 0 0-.616.448 2.393 2.393 0 0 0-.42.77c-.103.308-.154.681-.154 1.12v3.36h-.952v-5.11zm10.397 1.33c-.028-.616-.229-1.125-.602-1.526-.364-.411-.887-.616-1.568-.616-.317 0-.611.06-.882.182a2.16 2.16 0 0 0-.714.476 2.24 2.24 0 0 0-.49.686 2.166 2.166 0 0 0-.21.798h4.466zm.966.308v.21c0 .074-.005.154-.014.238h-5.432c.009.326.075.634.196.924.121.289.289.541.504.756.215.214.467.387.756.518.289.121.602.182.938.182.495 0 .919-.112 1.274-.336.364-.234.639-.5.826-.798l.714.56c-.392.494-.826.849-1.302 1.064a3.586 3.586 0 0 1-1.512.322c-.485 0-.938-.084-1.358-.252a3.28 3.28 0 0 1-1.064-.728 3.502 3.502 0 0 1-.714-1.092 3.663 3.663 0 0 1-.252-1.372c0-.495.084-.952.252-1.372.168-.42.401-.784.7-1.092a3.137 3.137 0 0 1 1.05-.714 3.172 3.172 0 0 1 1.302-.266c.513 0 .966.088 1.358.266.392.168.719.401.98.7.261.289.457.63.588 1.022.14.392.21.812.21 1.26zM96.572 126.506h.028l2.478-8.526h1.204l2.478 8.526h.028l2.422-8.526h1.064l-2.926 9.912h-1.176l-2.492-8.512h-.028l-2.492 8.512h-1.176l-2.926-9.912h1.064l2.45 8.526zm12.719 1.386h-.952v-6.552h.952v6.552zm.196-9.072c0 .196-.07.359-.21.49a.692.692 0 0 1-.462.182.692.692 0 0 1-.462-.182.643.643 0 0 1-.21-.49.6.6 0 0 1 .21-.476.662.662 0 0 1 .462-.196c.168 0 .322.065.462.196a.6.6 0 0 1 .21.476zm8.329 7.966a2.69 2.69 0 0 1-1.092.952c-.448.215-.91.322-1.386.322-.514 0-.98-.089-1.4-.266a3.27 3.27 0 0 1-1.065-.728 3.45 3.45 0 0 1-.686-1.092 3.827 3.827 0 0 1-.238-1.358c0-.485.08-.938.238-1.358a3.45 3.45 0 0 1 .686-1.092 3.27 3.27 0 0 1 1.065-.728c.42-.177.886-.266 1.4-.266.476 0 .938.112 1.386.336a2.66 2.66 0 0 1 1.092.966h.028v-5.166h.952v10.584h-.952v-1.106h-.028zm-4.859-2.17c0 .364.056.709.168 1.036.113.317.271.597.477.84.214.233.476.42.784.56a2.66 2.66 0 0 0 1.05.196c.364 0 .7-.065 1.008-.196a2.57 2.57 0 0 0 .798-.56c.224-.233.396-.509.518-.826.13-.327.196-.677.196-1.05s-.066-.719-.196-1.036a2.409 2.409 0 0 0-.518-.84 2.29 2.29 0 0 0-.798-.56 2.407 2.407 0 0 0-1.008-.21c-.392 0-.742.07-1.05.21-.308.14-.57.331-.784.574a2.466 2.466 0 0 0-.477.84 3.048 3.048 0 0 0-.168 1.022zm13.981-.504c-.028-.616-.229-1.125-.602-1.526-.364-.411-.887-.616-1.568-.616-.318 0-.612.061-.882.182a2.175 2.175 0 0 0-.714.476 2.235 2.235 0 0 0-.49.686 2.128 2.128 0 0 0-.21.798h4.466zm.966.308v.21c0 .075-.005.154-.014.238h-5.432c.009.327.074.635.196.924.121.289.289.541.504.756.214.215.466.387.756.518.289.121.602.182.938.182.494 0 .919-.112 1.274-.336.364-.233.639-.499.826-.798l.714.56c-.392.495-.826.849-1.302 1.064a3.571 3.571 0 0 1-1.512.322 3.62 3.62 0 0 1-1.358-.252 3.254 3.254 0 0 1-1.064-.728 3.502 3.502 0 0 1-.714-1.092 3.66 3.66 0 0 1-.252-1.372c0-.495.084-.952.252-1.372.168-.42.401-.784.7-1.092a3.117 3.117 0 0 1 1.05-.714 3.188 3.188 0 0 1 1.302-.266c.513 0 .966.089 1.358.266.392.168.718.401.98.7.261.289.457.63.588 1.022.14.392.21.812.21 1.26zm6.134-1.526a1.615 1.615 0 0 0-.644-.658 1.77 1.77 0 0 0-.966-.266c-.168 0-.336.019-.504.056a1.357 1.357 0 0 0-.448.182 1.052 1.052 0 0 0-.322.322.914.914 0 0 0-.112.462c0 .308.126.546.378.714.252.159.648.294 1.19.406.774.159 1.344.392 1.708.7.373.299.56.705.56 1.218 0 .373-.075.691-.224.952-.14.252-.327.462-.56.63-.234.159-.5.271-.798.336a3.548 3.548 0 0 1-2.324-.196 2.66 2.66 0 0 1-1.148-.966l.756-.56c.168.289.415.532.742.728.326.196.686.294 1.078.294.205 0 .401-.019.588-.056.186-.037.35-.103.49-.196.14-.093.252-.21.336-.35.084-.149.126-.331.126-.546 0-.345-.168-.602-.504-.77-.327-.177-.803-.341-1.428-.49a13.907 13.907 0 0 1-.63-.168 2.429 2.429 0 0 1-.602-.308 1.753 1.753 0 0 1-.462-.518c-.122-.205-.182-.462-.182-.77 0-.336.065-.621.196-.854.13-.243.303-.439.518-.588.224-.159.476-.275.756-.35.28-.075.569-.112.868-.112.457 0 .9.103 1.33.308.429.205.751.495.966.868l-.728.546zm8.052-.056a1.745 1.745 0 0 0-.7-.616 1.962 1.962 0 0 0-.98-.252c-.382 0-.728.07-1.036.21a2.29 2.29 0 0 0-.798.56 2.536 2.536 0 0 0-.504.84 3.092 3.092 0 0 0-.168 1.036c0 .373.056.719.168 1.036.122.317.29.597.504.84.215.233.476.42.784.56.308.131.654.196 1.036.196.42 0 .775-.079 1.064-.238.29-.159.528-.364.714-.616l.714.532c-.28.345-.625.621-1.036.826-.401.205-.886.308-1.456.308a3.931 3.931 0 0 1-1.442-.252 3.354 3.354 0 0 1-1.106-.728 3.332 3.332 0 0 1-.7-1.092 3.66 3.66 0 0 1-.252-1.372c0-.495.084-.952.252-1.372.168-.42.402-.784.7-1.092a3.186 3.186 0 0 1 1.106-.714c.43-.177.91-.266 1.442-.266.439 0 .882.098 1.33.294.458.187.826.467 1.106.84l-.742.532zm2.883-.056a22.467 22.467 0 0 0-.056-1.442h.91a13.291 13.291 0 0 1 .056 1.12h.028a2.21 2.21 0 0 1 .84-.924 2.257 2.257 0 0 1 1.26-.364c.121 0 .228.005.322.014.102.009.205.028.308.056l-.126.896a2.73 2.73 0 0 0-.672-.084c-.252 0-.495.047-.728.14a1.581 1.581 0 0 0-.616.448 2.403 2.403 0 0 0-.42.77c-.103.308-.154.681-.154 1.12v3.36h-.952v-5.11zm10.397 1.33c-.028-.616-.229-1.125-.602-1.526-.365-.411-.887-.616-1.569-.616-.317 0-.611.061-.882.182-.27.112-.508.271-.714.476a2.269 2.269 0 0 0-.49.686 2.166 2.166 0 0 0-.21.798h4.467zm.966.308v.21c0 .075-.005.154-.014.238h-5.433c.01.327.075.635.196.924.122.289.29.541.504.756.215.215.467.387.756.518.29.121.602.182.938.182.495 0 .92-.112 1.274-.336.365-.233.64-.499.827-.798l.714.56c-.392.495-.826.849-1.302 1.064a3.573 3.573 0 0 1-1.513.322c-.485 0-.938-.084-1.358-.252a3.275 3.275 0 0 1-1.064-.728 3.538 3.538 0 0 1-.714-1.092 3.66 3.66 0 0 1-.252-1.372c0-.495.084-.952.252-1.372.168-.42.402-.784.7-1.092a3.137 3.137 0 0 1 1.05-.714 3.195 3.195 0 0 1 1.302-.266c.514 0 .966.089 1.358.266.393.168.719.401.981.7.261.289.457.63.588 1.022.14.392.21.812.21 1.26zm7.645-.308c-.028-.616-.228-1.125-.602-1.526-.364-.411-.886-.616-1.568-.616-.317 0-.611.061-.882.182-.27.112-.508.271-.714.476a2.269 2.269 0 0 0-.49.686 2.166 2.166 0 0 0-.21.798h4.466zm.966.308v.21c0 .075-.004.154-.014.238h-5.432c.01.327.075.635.196.924.122.289.29.541.504.756.215.215.467.387.756.518.29.121.602.182.938.182.495 0 .92-.112 1.274-.336.364-.233.64-.499.826-.798l.714.56c-.392.495-.826.849-1.302 1.064-.466.215-.97.322-1.512.322-.485 0-.938-.084-1.358-.252a3.275 3.275 0 0 1-1.064-.728 3.538 3.538 0 0 1-.714-1.092 3.66 3.66 0 0 1-.252-1.372c0-.495.084-.952.252-1.372.168-.42.402-.784.7-1.092a3.137 3.137 0 0 1 1.05-.714 3.195 3.195 0 0 1 1.302-.266c.514 0 .966.089 1.358.266.392.168.719.401.98.7.262.289.458.63.588 1.022.14.392.21.812.21 1.26zm3.502-3.08a11.635 11.635 0 0 1 .056 1.12h.028c.187-.383.49-.691.91-.924.42-.243.864-.364 1.33-.364.831 0 1.452.247 1.862.742.42.495.63 1.148.63 1.96v4.018h-.952v-3.626c0-.345-.028-.658-.084-.938a1.83 1.83 0 0 0-.294-.714 1.289 1.289 0 0 0-.546-.476c-.224-.112-.508-.168-.854-.168-.252 0-.499.051-.742.154a1.795 1.795 0 0 0-.63.476 2.263 2.263 0 0 0-.448.798c-.112.317-.168.695-.168 1.134v3.36h-.952v-5.11a22.467 22.467 0 0 0-.056-1.442h.91zm8.049 8.512h-.798l.938-3.29h.994l-1.134 3.29zm12.589-5.236h1.456v.882h-1.456v2.394h-.98v-2.394h-4.536v-.98l4.2-6.538h1.316v6.636zm-.98-5.502h-.028l-3.458 5.502h3.486v-5.502zm5.921 3.318h.014l4.718-4.452h1.442l-4.998 4.494 5.278 5.418h-1.484l-4.956-5.278h-.014v5.278h-1.008v-9.912h1.008v4.452zm12.319-4.452h1.009v4.298h5.404v-4.298h1.008v9.912h-1.008v-4.69h-5.404v4.69h-1.009v-9.912zm10.65 0h3.29c.616 0 1.232.103 1.848.308a4.962 4.962 0 0 1 1.68.938c.504.411.91.929 1.218 1.554.308.616.462 1.335.462 2.156 0 .831-.154 1.554-.462 2.17a4.773 4.773 0 0 1-1.218 1.554 5.085 5.085 0 0 1-1.68.924 5.823 5.823 0 0 1-1.848.308h-3.29v-9.912zm1.008 9.016h2.002c.746 0 1.395-.117 1.946-.35.56-.233 1.022-.537 1.386-.91.364-.383.634-.817.812-1.302a4.153 4.153 0 0 0 0-2.996 3.6 3.6 0 0 0-.812-1.288c-.364-.383-.826-.691-1.386-.924-.551-.233-1.2-.35-1.946-.35h-2.002v8.12zm11.195.896h-1.008v-9.912h2.912c.486 0 .934.047 1.344.14.42.093.78.247 1.078.462.308.205.546.476.714.812.168.336.252.747.252 1.232a2.45 2.45 0 0 1-.728 1.778c-.224.215-.49.387-.798.518a3.452 3.452 0 0 1-1.008.252l2.898 4.718h-1.232l-2.744-4.634h-1.68v4.634zm0-5.502h1.75c.812 0 1.438-.145 1.876-.434.439-.299.658-.742.658-1.33 0-.327-.06-.602-.182-.826a1.484 1.484 0 0 0-.504-.546 2.283 2.283 0 0 0-.784-.308 4.953 4.953 0 0 0-1.022-.098H229.2v3.542zm15.504.504a1.615 1.615 0 0 0-.644-.658 1.77 1.77 0 0 0-.966-.266c-.168 0-.336.019-.505.056a1.366 1.366 0 0 0-.448.182c-.13.084-.238.191-.322.322a.924.924 0 0 0-.112.462c0 .308.126.546.378.714.252.159.649.294 1.191.406.774.159 1.344.392 1.708.7.373.299.56.705.56 1.218 0 .373-.075.691-.224.952-.14.252-.327.462-.56.63-.234.159-.5.271-.798.336a3.556 3.556 0 0 1-2.325-.196 2.672 2.672 0 0 1-1.148-.966l.756-.56c.168.289.416.532.742.728.327.196.686.294 1.079.294.205 0 .401-.019.588-.056.186-.037.35-.103.49-.196.14-.093.252-.21.336-.35.084-.149.126-.331.126-.546 0-.345-.168-.602-.504-.77-.327-.177-.803-.341-1.429-.49a13.907 13.907 0 0 1-.63-.168 2.464 2.464 0 0 1-.602-.308 1.781 1.781 0 0 1-.462-.518c-.121-.205-.182-.462-.182-.77 0-.336.066-.621.196-.854.131-.243.304-.439.518-.588.224-.159.476-.275.756-.35.28-.075.57-.112.869-.112.457 0 .9.103 1.33.308.429.205.751.495.966.868l-.728.546zm8.094 4.998a13.291 13.291 0 0 1-.056-1.12h-.028c-.186.383-.49.695-.91.938-.42.233-.863.35-1.33.35-.83 0-1.456-.247-1.876-.742-.41-.495-.616-1.148-.616-1.96v-4.018h.952v3.626c0 .345.028.658.084.938.056.28.15.523.28.728.14.196.322.35.546.462.234.112.523.168.868.168.252 0 .495-.051.728-.154.243-.103.458-.257.644-.462.187-.215.336-.481.448-.798.112-.327.168-.709.168-1.148v-3.36h.952v5.11a22.467 22.467 0 0 0 .056 1.442h-.91zm4.927 3.36h-.952v-9.912h.952v1.134h.042c.271-.429.63-.751 1.078-.966.458-.224.92-.336 1.386-.336.514 0 .976.089 1.386.266.42.177.775.42 1.064.728.299.308.528.672.686 1.092.168.42.252.873.252 1.358 0 .485-.084.938-.252 1.358a3.13 3.13 0 0 1-.686 1.092 3.076 3.076 0 0 1-1.064.728c-.41.177-.872.266-1.386.266-.466 0-.928-.107-1.386-.322a2.727 2.727 0 0 1-1.078-.952h-.042v4.466zm4.886-6.636c0-.364-.056-.705-.168-1.022a2.337 2.337 0 0 0-.49-.84 2.16 2.16 0 0 0-.77-.574 2.511 2.511 0 0 0-1.05-.21c-.364 0-.7.07-1.008.21a2.29 2.29 0 0 0-.798.56 2.58 2.58 0 0 0-.532.84 2.884 2.884 0 0 0-.182 1.036c0 .373.061.723.182 1.05.131.317.308.593.532.826.224.233.49.42.798.56.308.131.644.196 1.008.196a2.66 2.66 0 0 0 1.05-.196 2.25 2.25 0 0 0 .77-.56 2.52 2.52 0 0 0 .49-.84c.112-.327.168-.672.168-1.036zm4.601 6.636h-.952v-9.912h.952v1.134h.042c.271-.429.63-.751 1.078-.966a3.12 3.12 0 0 1 1.386-.336c.513 0 .975.089 1.386.266.42.177.775.42 1.064.728.299.308.528.672.686 1.092.168.42.252.873.252 1.358 0 .485-.084.938-.252 1.358a3.13 3.13 0 0 1-.686 1.092 3.076 3.076 0 0 1-1.064.728 3.471 3.471 0 0 1-1.386.266c-.467 0-.929-.107-1.386-.322a2.727 2.727 0 0 1-1.078-.952h-.042v4.466zm4.886-6.636c0-.364-.056-.705-.168-1.022a2.337 2.337 0 0 0-.49-.84 2.16 2.16 0 0 0-.77-.574 2.511 2.511 0 0 0-1.05-.21c-.364 0-.7.07-1.008.21a2.29 2.29 0 0 0-.798.56 2.58 2.58 0 0 0-.532.84 2.884 2.884 0 0 0-.182 1.036c0 .373.061.723.182 1.05.131.317.308.593.532.826.224.233.49.42.798.56.308.131.644.196 1.008.196a2.66 2.66 0 0 0 1.05-.196 2.25 2.25 0 0 0 .77-.56 2.52 2.52 0 0 0 .49-.84c.112-.327.168-.672.168-1.036zm10.159 0c0 .495-.089.952-.266 1.372-.168.42-.406.784-.714 1.092a3.354 3.354 0 0 1-1.106.728 3.848 3.848 0 0 1-1.414.252c-.504 0-.971-.084-1.4-.252a3.354 3.354 0 0 1-1.106-.728 3.387 3.387 0 0 1-.728-1.092 3.66 3.66 0 0 1-.252-1.372c0-.495.084-.952.252-1.372.177-.42.42-.784.728-1.092a3.186 3.186 0 0 1 1.106-.714 3.636 3.636 0 0 1 1.4-.266c.513 0 .985.089 1.414.266.429.168.798.406 1.106.714.308.308.546.672.714 1.092.177.42.266.877.266 1.372zm-1.008 0c0-.364-.061-.705-.182-1.022a2.337 2.337 0 0 0-.49-.84 2.305 2.305 0 0 0-.784-.574 2.475 2.475 0 0 0-1.036-.21c-.383 0-.728.07-1.036.21a2.34 2.34 0 0 0-.77.574 2.503 2.503 0 0 0-.504.84 3.048 3.048 0 0 0-.168 1.022c0 .364.056.709.168 1.036.121.317.289.597.504.84.215.233.471.42.77.56.308.131.653.196 1.036.196s.728-.065 1.036-.196c.308-.14.569-.327.784-.56a2.52 2.52 0 0 0 .49-.84 2.96 2.96 0 0 0 .182-1.036zm3.657-1.834a22.467 22.467 0 0 0-.056-1.442h.91a13.291 13.291 0 0 1 .056 1.12h.028a2.21 2.21 0 0 1 .84-.924 2.257 2.257 0 0 1 1.26-.364c.121 0 .228.005.322.014.102.009.205.028.308.056l-.126.896a2.73 2.73 0 0 0-.672-.084c-.252 0-.495.047-.728.14a1.581 1.581 0 0 0-.616.448 2.403 2.403 0 0 0-.42.77c-.103.308-.154.681-.154 1.12v3.36h-.952v-5.11zm8.435-.644h-1.848v3.822c0 .243.023.443.07.602a.95.95 0 0 0 .196.378c.093.084.2.145.322.182.121.028.252.042.392.042a2.06 2.06 0 0 0 .826-.21l.042.826a2.506 2.506 0 0 1-.532.14 2.892 2.892 0 0 1-.588.056c-.178 0-.364-.023-.56-.07a1.417 1.417 0 0 1-.546-.266 1.524 1.524 0 0 1-.42-.532c-.103-.224-.154-.518-.154-.882v-4.088h-1.358v-.798h1.358v-1.848h.952v1.848h1.848v.798z"/>
</svg>
