<svg xmlns="http://www.w3.org/2000/svg" width="13" height="20" fill="none" viewBox="0 0 13 20">
    <path fill="#8E8E93" fill-rule="evenodd" d="M6.244 0c1.724 0 3.122 1.414 3.122 3.158v7.368c0 1.744-1.398 3.158-3.122 3.158s-3.122-1.414-3.122-3.158V3.158C3.122 1.414 4.52 0 6.244 0zm5.463 6.842a.785.785 0 0 0-.78.79v2.894c0 2.616-2.097 4.737-4.683 4.737s-4.683-2.12-4.683-4.737V7.632c0-.436-.35-.79-.78-.79a.785.785 0 0 0-.781.79v2.894c.002 3.182 2.343 5.866 5.463 6.264v1.631h-2.08a.785.785 0 0 0-.781.79c0 .436.35.789.78.789h5.724c.43 0 .78-.354.78-.79 0-.436-.35-.789-.78-.789H7.024V16.79c3.121-.398 5.462-3.082 5.464-6.264V7.632c0-.436-.35-.79-.78-.79z" clip-rule="evenodd"/>
</svg>
