<svg xmlns="http://www.w3.org/2000/svg" width="375" height="84" fill="none" viewBox="0 0 375 84">
    <path fill="#F1D028" d="M0 16.789h375V72.31H0z"/>
    <path fill="#4D430D" fill-rule="evenodd" d="M29.875 43.558h-1.25a.603.603 0 0 0-.44.184.593.593 0 0 0-.185.436v1.239c0 .168.062.313.186.436.123.122.27.184.439.184h1.25c.17 0 .316-.062.44-.184a.593.593 0 0 0 .185-.436v-1.24a.593.593 0 0 0-.186-.435.603.603 0 0 0-.439-.184zm17.5.62H34.25a.603.603 0 0 0-.44.184.593.593 0 0 0-.185.435c0 .168.062.313.185.436.124.123.27.184.44.184h13.125c.17 0 .316-.061.44-.184a.593.593 0 0 0 .185-.436.593.593 0 0 0-.185-.435.603.603 0 0 0-.44-.184zm-17.5 4.337h-1.25a.603.603 0 0 0-.44.184.593.593 0 0 0-.185.436v1.24c0 .167.062.312.186.435.123.123.27.184.439.184h1.25c.17 0 .316-.061.44-.184a.593.593 0 0 0 .185-.436v-1.24a.593.593 0 0 0-.186-.435.603.603 0 0 0-.439-.184zm17.5.62H34.25a.603.603 0 0 0-.44.184.593.593 0 0 0-.185.435c0 .168.062.314.185.436.124.123.27.184.44.184h13.125c.17 0 .316-.061.44-.184a.593.593 0 0 0 .185-.435.593.593 0 0 0-.185-.436.603.603 0 0 0-.44-.184zM29.875 38.6h-1.25a.603.603 0 0 0-.44.184.593.593 0 0 0-.185.436v1.239c0 .168.062.313.186.435.123.123.27.184.439.184h1.25c.17 0 .316-.06.44-.184a.593.593 0 0 0 .185-.435v-1.24a.593.593 0 0 0-.186-.435.603.603 0 0 0-.439-.184zm4.375 1.859h13.125c.17 0 .316-.062.44-.184A.593.593 0 0 0 48 39.84a.593.593 0 0 0-.185-.436.603.603 0 0 0-.44-.184H34.25a.603.603 0 0 0-.44.184.593.593 0 0 0-.185.436c0 .168.062.313.185.436.124.122.27.184.44.184zM113 34.883c1.38 0 2.679.258 3.896.774a10.037 10.037 0 0 1 3.184 2.12 9.947 9.947 0 0 1 2.139 3.157 9.643 9.643 0 0 1 .781 3.863c0 1.369-.26 2.657-.781 3.864a9.949 9.949 0 0 1-2.139 3.156 10.037 10.037 0 0 1-3.184 2.12 9.871 9.871 0 0 1-3.896.775 9.871 9.871 0 0 1-3.896-.775 10.037 10.037 0 0 1-3.184-2.12 9.949 9.949 0 0 1-2.139-3.157 9.642 9.642 0 0 1-.781-3.863c0-1.368.26-2.656.781-3.863a9.947 9.947 0 0 1 2.139-3.156 10.037 10.037 0 0 1 3.184-2.12 9.871 9.871 0 0 1 3.896-.775zm0 18.609c1.211 0 2.347-.23 3.408-.688a8.843 8.843 0 0 0 2.774-1.868 8.98 8.98 0 0 0 1.875-2.76 8.311 8.311 0 0 0 .693-3.379 8.31 8.31 0 0 0-.693-3.379 8.86 8.86 0 0 0-1.875-2.75 8.927 8.927 0 0 0-2.774-1.858 8.501 8.501 0 0 0-3.408-.688c-1.211 0-2.347.23-3.408.688a8.927 8.927 0 0 0-2.774 1.859 8.86 8.86 0 0 0-1.875 2.75 8.31 8.31 0 0 0-.693 3.378c0 1.2.231 2.327.693 3.38a8.98 8.98 0 0 0 1.875 2.759 8.843 8.843 0 0 0 2.774 1.868 8.501 8.501 0 0 0 3.408.688zm.625-8.946l2.949 2.924a.59.59 0 0 1 .176.435.59.59 0 0 1-.176.436.567.567 0 0 1-.439.194.57.57 0 0 1-.44-.194l-3.105-3.06c0-.012-.003-.022-.01-.029l-.01-.01a.476.476 0 0 1-.146-.193.636.636 0 0 1-.049-.252v-6.196c0-.168.062-.313.186-.436a.601.601 0 0 1 .439-.184c.169 0 .316.061.439.184a.592.592 0 0 1 .186.436v5.945zM271.358 48.403a9.7 9.7 0 0 1 .801 1.104c.195.322.215.645.059.968a.958.958 0 0 1-.762.561 6.037 6.037 0 0 1-.82.078h-3.653c0 .917-.325 1.698-.976 2.343a3.234 3.234 0 0 1-2.364.968 3.234 3.234 0 0 1-2.363-.968 3.179 3.179 0 0 1-.977-2.343h-3.574c-.299 0-.608-.036-.927-.107a.975.975 0 0 1-.694-.532c-.156-.323-.143-.655.039-.997.183-.343.43-.72.742-1.133.352-.452.736-.965 1.153-1.54.416-.574.625-1.171.625-1.79v-4.048c0-.878.153-1.7.459-2.469a6.409 6.409 0 0 1 1.26-2.014 5.826 5.826 0 0 1 1.894-1.355 5.628 5.628 0 0 1 2.344-.494c.846 0 1.634.165 2.363.494.729.329 1.364.78 1.904 1.355a6.31 6.31 0 0 1 1.27 2.014c.306.768.459 1.591.459 2.47v4.046c0 .633.198 1.246.596 1.84.397.594.778 1.11 1.142 1.549zm-7.715 4.725c.56 0 1.039-.197 1.436-.59.397-.395.596-.869.596-1.424h-4.063c0 .555.199 1.03.596 1.423.397.394.875.59 1.435.59zm7.129-3.33a5.767 5.767 0 0 0-.215-.282 18.958 18.958 0 0 1-1.572-2.13 4.287 4.287 0 0 1-.693-2.372v-4.047a5.25 5.25 0 0 0-.362-1.956 5.06 5.06 0 0 0-.986-1.588 4.685 4.685 0 0 0-1.474-1.074 4.31 4.31 0 0 0-1.846-.397 4.26 4.26 0 0 0-1.826.397 4.678 4.678 0 0 0-1.475 1.075 4.949 4.949 0 0 0-.977 1.587 5.389 5.389 0 0 0-.351 1.956v4.047c0 .84-.244 1.61-.733 2.314a62.367 62.367 0 0 1-1.542 2.14c-.085.116-.16.226-.225.33h14.277zM338 36.122c-.534 0-1.061.1-1.582.3-.521.2-.99.455-1.406.765-.417.31-.752.646-1.006 1.007-.254.362-.381.704-.381 1.026v3.099c0 .606.153 1.381.459 2.323.306.943.784 1.672 1.436 2.189.169.129.296.293.38.493.085.2.114.41.088.63-.039.206-.12.397-.244.57a1.192 1.192 0 0 1-.478.398l-5.489 2.575a1.38 1.38 0 0 0-.322.184c-.137.097-.205.275-.205.533v1.258l17.48-.019v-1.2c0-.336-.081-.546-.244-.63a2.02 2.02 0 0 0-.263-.126l-5.45-2.556a1.263 1.263 0 0 1-.488-.397 1.208 1.208 0 0 1-.234-.59c-.026-.22.003-.43.088-.63.084-.2.211-.364.381-.493.677-.517 1.155-1.25 1.435-2.198.28-.95.42-1.72.42-2.314V39.22c0-.335-.13-.684-.391-1.045a4.57 4.57 0 0 0-1.005-.997 5.835 5.835 0 0 0-1.407-.756c-.527-.2-1.051-.3-1.572-.3zm0-1.24c.69 0 1.37.13 2.041.388.671.258 1.27.594 1.797 1.007.527.413.957.878 1.289 1.394.332.517.498 1.033.498 1.55v3.098c0 .374-.039.807-.117 1.297-.078.49-.209.99-.391 1.5-.182.51-.423 1.001-.722 1.473a4.79 4.79 0 0 1-1.094 1.21l5.449 2.575.615.34c.41.225.615.519.615.88v1.878c0 .336-.12.623-.361.862s-.53.358-.869.358h-17.5c-.352 0-.648-.119-.889-.358a1.169 1.169 0 0 1-.361-.862v-1.878c0-.336.208-.623.625-.862l.625-.358 5.488-2.575a4.715 4.715 0 0 1-1.113-1.259 8.605 8.605 0 0 1-.732-1.5 7.921 7.921 0 0 1-.401-1.492 7.94 7.94 0 0 1-.117-1.23v-3.097c0-.517.163-1.033.488-1.55a5.5 5.5 0 0 1 1.28-1.394 6.877 6.877 0 0 1 1.806-1.007 5.717 5.717 0 0 1 2.051-.387z" clip-rule="evenodd"/>
    <path fill="#243B6B" fill-rule="evenodd" d="M188 61.404c11.046 0 20-8.878 20-19.829s-8.954-19.829-20-19.829-20 8.878-20 19.83c0 10.95 8.954 19.828 20 19.828z" clip-rule="evenodd" filter="url(#a)" opacity=".5" style="mix-blend-mode:multiply"/>
    <path fill="#4D430D" fill-rule="evenodd" d="M188 56.447c15.464 0 28-12.429 28-27.76C216 13.354 203.464.925 188 .925s-28 12.429-28 27.76c0 15.332 12.536 27.76 28 27.76z" clip-rule="evenodd"/>
    <path fill="#fff" fill-rule="evenodd" d="M199.681 39.272l-6.281-6.356a9.065 9.065 0 0 0 1.721-5.358c-.022-5.027-4.042-9.1-9.013-9.129a8.857 8.857 0 0 0-6.343 2.644 9.064 9.064 0 0 0-2.605 6.42c.022 5.028 4.042 9.1 9.013 9.13a8.796 8.796 0 0 0 5.312-1.76l.007-.005 6.275 6.351c.34.36.845.506 1.321.38.476-.124.848-.5.971-.982a1.38 1.38 0 0 0-.378-1.335zm-13.514-4.47c-3.977-.023-7.193-3.28-7.211-7.303a7.254 7.254 0 0 1 2.084-5.135 7.088 7.088 0 0 1 5.074-2.116c3.977.023 7.193 3.281 7.211 7.304a7.258 7.258 0 0 1-2.084 5.135 7.09 7.09 0 0 1-5.074 2.116z" clip-rule="evenodd"/>
    <defs>
        <filter id="a" width="83.493" height="83.15" x="146.254" y="0" color-interpolation-filters="sRGB" filterUnits="userSpaceOnUse">
            <feFlood flood-opacity="0" result="BackgroundImageFix"/>
            <feBlend in="SourceGraphic" in2="BackgroundImageFix" result="shape"/>
            <feGaussianBlur result="effect1_foregroundBlur" stdDeviation="10.873"/>
        </filter>
    </defs>
</svg>
