<svg xmlns="http://www.w3.org/2000/svg" width="321" height="94" fill="none" viewBox="0 0 321 94">
    <g fill-rule="evenodd" clip-rule="evenodd" filter="url(#a)">
        <path fill="#434447" fill-opacity=".7" d="M0 25.6c0-8.96 0-13.441 1.744-16.864a16 16 0 0 1 6.992-6.992C12.16 0 16.64 0 25.6 0h269.8c8.961 0 13.441 0 16.864 1.744a16.003 16.003 0 0 1 6.992 6.992C321 12.16 321 16.64 321 25.6v42.8c0 8.96 0 13.441-1.744 16.864a16.003 16.003 0 0 1-6.992 6.992C308.841 94 304.361 94 295.4 94H25.6c-8.96 0-13.441 0-16.864-1.744a16 16 0 0 1-6.992-6.992C0 81.84 0 77.36 0 68.4V25.6z"/>
        <path fill="#222" fill-opacity=".8" d="M0 25.6c0-8.96 0-13.441 1.744-16.864a16 16 0 0 1 6.992-6.992C12.16 0 16.64 0 25.6 0h269.8c8.961 0 13.441 0 16.864 1.744a16.003 16.003 0 0 1 6.992 6.992C321 12.16 321 16.64 321 25.6v42.8c0 8.96 0 13.441-1.744 16.864a16.003 16.003 0 0 1-6.992 6.992C308.841 94 304.361 94 295.4 94H25.6c-8.96 0-13.441 0-16.864-1.744a16 16 0 0 1-6.992-6.992C0 81.84 0 77.36 0 68.4V25.6z" style="mix-blend-mode:lighten"/>
        <path fill="#2F3032" d="M0 25.6c0-8.96 0-13.441 1.744-16.864a16 16 0 0 1 6.992-6.992C12.16 0 16.64 0 25.6 0h269.8c8.961 0 13.441 0 16.864 1.744a16.003 16.003 0 0 1 6.992 6.992C321 12.16 321 16.64 321 25.6v42.8c0 8.96 0 13.441-1.744 16.864a16.003 16.003 0 0 1-6.992 6.992C308.841 94 304.361 94 295.4 94H25.6c-8.96 0-13.441 0-16.864-1.744a16 16 0 0 1-6.992-6.992C0 81.84 0 77.36 0 68.4V25.6z" style="mix-blend-mode:lighten"/>
    </g>
    <path fill="#fff" fill-opacity=".2" fill-rule="evenodd" d="M16 22.5a2.5 2.5 0 0 1 2.5-2.5h91a2.5 2.5 0 1 1 0 5h-91a2.5 2.5 0 0 1-2.5-2.5z" clip-rule="evenodd"/>
    <path fill="#fff" fill-opacity=".4" fill-rule="evenodd" d="M16 22.5a2.5 2.5 0 0 1 2.5-2.5h91a2.5 2.5 0 1 1 0 5h-91a2.5 2.5 0 0 1-2.5-2.5z" clip-rule="evenodd" style="mix-blend-mode:overlay"/>
    <g fill="#fff" fill-rule="evenodd" clip-rule="evenodd" opacity=".2">
        <path fill-opacity=".2" d="M110 22.5a2.5 2.5 0 0 1 2.5-2.5h190a2.5 2.5 0 1 1 0 5h-190a2.5 2.5 0 0 1-2.5-2.5z"/>
        <path fill-opacity=".4" d="M110 22.5a2.5 2.5 0 0 1 2.5-2.5h190a2.5 2.5 0 1 1 0 5h-190a2.5 2.5 0 0 1-2.5-2.5z" style="mix-blend-mode:overlay"/>
    </g>
    <path fill="#fff" fill-rule="evenodd" d="M111.5 27a4.5 4.5 0 1 0 0-9 4.5 4.5 0 0 0 0 9zM211 55v2.118c-4.534.719-8 4.646-8 9.382a9.5 9.5 0 0 0 9.5 9.5 9.5 9.5 0 0 0 9.487-10h-1.502A8 8 0 1 1 211 58.64V61l4-2.667V61l4.5-3-4.5-3v2.667L211 55zM151.218 56.092C151 56.52 151 57.08 151 58.2v16.6c0 1.12 0 1.68.218 2.108.192.376.498.682.874.874.428.218.988.218 2.108.218h.6c1.12 0 1.68 0 2.108-.218.376-.192.682-.498.874-.874.218-.428.218-.988.218-2.108V58.2c0-1.12 0-1.68-.218-2.108a2.003 2.003 0 0 0-.874-.874C156.48 55 155.92 55 154.8 55h-.6c-1.12 0-1.68 0-2.108.218a2.003 2.003 0 0 0-.874.874zm13 0C164 56.52 164 57.08 164 58.2v16.6c0 1.12 0 1.68.218 2.108.192.376.498.682.874.874.428.218.988.218 2.108.218h.6c1.12 0 1.68 0 2.108-.218.376-.192.682-.498.874-.874.218-.428.218-.988.218-2.108V58.2c0-1.12 0-1.68-.218-2.108a2.003 2.003 0 0 0-.874-.874C169.48 55 168.92 55 167.8 55h-.6c-1.12 0-1.68 0-2.108.218a2.003 2.003 0 0 0-.874.874zM111 55v2.118c4.534.719 8 4.646 8 9.382a9.5 9.5 0 0 1-9.5 9.5 9.5 9.5 0 0 1-9.487-10h1.502A8 8 0 1 0 111 58.64V61l-4-2.667V61l-4.5-3 4.5-3v2.667L111 55z" clip-rule="evenodd"/>
    <path fill="#fff" fill-opacity=".35" fill-rule="evenodd" d="M16.218 58.092C16 58.52 16 59.08 16 60.2v6.6c0 1.12 0 1.68.218 2.108a2 2 0 0 0 .874.874C17.52 70 18.08 70 19.2 70h.8l1.5-1.5h-3a1 1 0 0 1-1-1v-8a1 1 0 0 1 1-1h14a1 1 0 0 1 1 1v8a1 1 0 0 1-1 1h-3L31 70h.8c1.12 0 1.68 0 2.108-.218a2 2 0 0 0 .874-.874C35 68.48 35 67.92 35 66.8v-6.6c0-1.12 0-1.68-.218-2.108a2 2 0 0 0-.874-.874C33.48 57 32.92 57 31.8 57H19.2c-1.12 0-1.68 0-2.108.218a2 2 0 0 0-.874.874zM25.5 66l-7 8h14l-7-8z" clip-rule="evenodd"/>
    <path fill="#fff" fill-opacity=".6" fill-rule="evenodd" d="M16.218 58.092C16 58.52 16 59.08 16 60.2v6.6c0 1.12 0 1.68.218 2.108a2 2 0 0 0 .874.874C17.52 70 18.08 70 19.2 70h.8l1.5-1.5h-3a1 1 0 0 1-1-1v-8a1 1 0 0 1 1-1h14a1 1 0 0 1 1 1v8a1 1 0 0 1-1 1h-3L31 70h.8c1.12 0 1.68 0 2.108-.218a2 2 0 0 0 .874-.874C35 68.48 35 67.92 35 66.8v-6.6c0-1.12 0-1.68-.218-2.108a2 2 0 0 0-.874-.874C33.48 57 32.92 57 31.8 57H19.2c-1.12 0-1.68 0-2.108.218a2 2 0 0 0-.874.874zM25.5 66l-7 8h14l-7-8z" clip-rule="evenodd" style="mix-blend-mode:overlay"/>
    <defs>
        <filter id="a" width="592.828" height="365.828" x="-135.914" y="-135.914" color-interpolation-filters="sRGB" filterUnits="userSpaceOnUse">
            <feFlood flood-opacity="0" result="BackgroundImageFix"/>
            <feGaussianBlur in="BackgroundImage" stdDeviation="67.957"/>
            <feComposite in2="SourceAlpha" operator="in" result="effect1_backgroundBlur"/>
            <feBlend in="SourceGraphic" in2="effect1_backgroundBlur" result="shape"/>
        </filter>
    </defs>
</svg>
