<svg xmlns="http://www.w3.org/2000/svg" width="88" height="15" fill="none" viewBox="0 0 88 15">
    <path fill="#FFCE4E" fill-rule="evenodd" d="M10.17 5.307L8.456.322c-.147-.43-.764-.43-.912 0L5.83 5.306l-5.353.06c-.461.006-.652.583-.282.853L4.49 9.36l-1.595 5.023c-.137.431.362.788.737.526L8 11.867l4.368 3.044c.376.262.874-.095.737-.527L11.51 9.362l4.295-3.142c.37-.27.179-.847-.282-.852l-5.353-.06zm18 0L26.456.322c-.147-.43-.764-.43-.912 0L23.83 5.306l-5.353.06c-.461.006-.652.583-.282.853L22.49 9.36l-1.595 5.023c-.137.431.362.788.737.526L26 11.867l4.368 3.044c.376.262.875-.095.737-.527L29.51 9.362l4.295-3.142c.37-.27.179-.847-.282-.852l-5.353-.06zM44.456.322l1.714 4.985 5.353.061c.461.005.652.582.282.852L47.51 9.362l1.595 5.022c.138.432-.361.789-.737.527L44 11.867l-4.368 3.043c-.375.262-.874-.095-.737-.526L40.49 9.36 36.195 6.22c-.37-.27-.179-.847.282-.853l5.353-.06L43.544.32c.148-.428.765-.428.912.001zM64.17 5.307L62.456.322c-.147-.43-.764-.43-.912 0L59.83 5.306l-5.353.06c-.461.006-.652.583-.282.853L58.49 9.36l-1.595 5.023c-.138.431.362.788.737.526L62 11.867l4.368 3.044c.376.262.875-.095.737-.527L65.51 9.362l4.295-3.142c.37-.27.179-.847-.282-.852l-5.353-.06z" clip-rule="evenodd"/>
    <path fill="#999" d="M80.456.322l1.714 4.985 5.353.061c.461.005.652.582.282.852L83.51 9.362l1.595 5.022c.138.432-.361.789-.737.527L80 11.867l-4.368 3.043c-.375.262-.875-.095-.737-.526L76.49 9.36 72.195 6.22c-.37-.27-.179-.847.282-.853l5.353-.06L79.544.32c.148-.428.765-.428.912.001z"/>
</svg>
