<svg xmlns="http://www.w3.org/2000/svg" width="18" height="18" fill="none" viewBox="0 0 18 18">
    <path fill="#8E8E93" fill-rule="evenodd" d="M17.469 16.167l-4.872-4.93A7.03 7.03 0 0 0 13.93 7.08c-.016-3.9-3.135-7.058-6.99-7.08a6.87 6.87 0 0 0-4.92 2.05A7.03 7.03 0 0 0 0 7.03c.016 3.9 3.134 7.058 6.99 7.081a6.823 6.823 0 0 0 4.12-1.365l.005-.004 4.868 4.927c.263.279.656.392 1.025.295.369-.097.657-.389.753-.762a1.07 1.07 0 0 0-.293-1.036zM6.986 12.7c-3.084-.018-5.58-2.545-5.593-5.664A5.626 5.626 0 0 1 3.01 3.051a5.497 5.497 0 0 1 3.935-1.64c3.085.017 5.58 2.544 5.593 5.664a5.626 5.626 0 0 1-1.616 3.983A5.498 5.498 0 0 1 6.986 12.7z" clip-rule="evenodd"/>
</svg>
