<svg id="Layer_1" data-name="Layer 1" xmlns="http://www.w3.org/2000/svg" viewBox="0 0 200 200"><defs><style>.cls-1{fill:#0072ce;}</style></defs><title>Good-eDIGITAL-Services-Section-Images</title><path class="cls-1" d="M143.3,16.1H31.5a14,14,0,0,0-14,14v89.5A13.9,13.9,0,0,0,28,133.1l1.4-5.4a8.4,8.4,0,0,1-6.3-8.1V30.1a8.4,8.4,0,0,1,8.4-8.4H143.3a8.4,8.4,0,0,1,8.4,8.4v2.8h5.6V30.1A14,14,0,0,0,143.3,16.1Z"/><rect class="cls-1" x="28.7" y="27.3" width="5.6" height="5.59"/><rect class="cls-1" x="39.9" y="27.3" width="5.6" height="5.59"/><rect class="cls-1" x="51.1" y="27.3" width="5.6" height="5.59"/><path class="cls-1" d="M181.7,170.7l-26.5-26.5a44.5,44.5,0,0,0,3.3-7.8h4.4v-5.6h-3.2a38.4,38.4,0,0,0-2.4-20.1V83.2h-5.6V101a38.2,38.2,0,0,0-5.6-5.8V72h-5.5V91.3a57.7,57.7,0,0,0-5.6-2.7V60.8h-5.6V86.9a35.7,35.7,0,0,0-5.6-.7V66.4h-5.6V86.2a34.3,34.3,0,0,0-5.6.7V77.6H107v11a57.7,57.7,0,0,0-5.6,2.7V74.8H95.8V95.2a43.8,43.8,0,0,0-5.6,5.8V80.4H84.6v30.3a37.4,37.4,0,0,0-2.3,20.1H45.5v5.6h38a39.1,39.1,0,0,0,59.9,20.8l25.9,25.9a2.8,2.8,0,0,0,4,0l8.4-8.4A2.8,2.8,0,0,0,181.7,170.7Zm-60.7-12a33.6,33.6,0,1,1,33.5-33.5A33.5,33.5,0,0,1,121,158.7Zm50.3,18.4-23.5-23.5A45.8,45.8,0,0,0,152,149l23.7,23.7Z"/><path class="cls-1" d="M121,97.2a28,28,0,1,0,27.9,28A28,28,0,0,0,121,97.2Zm0,50.3a22.4,22.4,0,0,1-19.4-11.1h38.7A22.2,22.2,0,0,1,121,147.5ZM99.3,130.8a22.4,22.4,0,0,1,7.7-23.1v17.5h5.6V104.4a21.9,21.9,0,0,1,5.6-1.4v22.2h5.6V103a21.9,21.9,0,0,1,5.6,1.4v20.8H135V107.7a22.1,22.1,0,0,1,7.6,23.1Z"/><path class="cls-1" d="M160.1,38.5H48.3a13.9,13.9,0,0,0-14,14v89.4a13.9,13.9,0,0,0,14,14H84.6v-5.6H48.3a8.3,8.3,0,0,1-8.4-8.4V52.5a8.3,8.3,0,0,1,8.4-8.4H160.1a8.3,8.3,0,0,1,8.4,8.4v89.4a8.1,8.1,0,0,1-2.1,5.6l4.2,3.7a13.8,13.8,0,0,0,3.5-9.3V52.5A14,14,0,0,0,160.1,38.5Z"/><rect class="cls-1" x="45.5" y="49.7" width="5.6" height="5.59"/><rect class="cls-1" x="56.7" y="49.7" width="5.6" height="5.59"/><rect class="cls-1" x="67.8" y="49.7" width="5.6" height="5.59"/><rect class="cls-1" x="51.1" y="108.4" width="5.6" height="16.78"/><rect class="cls-1" x="62.2" y="91.6" width="5.6" height="33.56"/><rect class="cls-1" x="73.4" y="100" width="5.6" height="25.17"/></svg>