<svg id="Layer_1" data-name="Layer 1" xmlns="http://www.w3.org/2000/svg" viewBox="0 0 200 200"><defs><style>.cls-1{fill:#0072ce;}</style></defs><title>Good-eDIGITAL-Services-Section-Images</title><path class="cls-1" d="M180.1,17.5H79.3a2.4,2.4,0,0,0-2.4,2.4,2.3,2.3,0,0,0,2.4,2.4h98.4v21H56.9v-21H69.3a2.4,2.4,0,0,0,2.4-2.4,2.4,2.4,0,0,0-2.4-2.4H54.5a2.4,2.4,0,0,0-2.4,2.4V58.4H19.9a2.4,2.4,0,0,0-2.4,2.4v101a2.4,2.4,0,0,0,2.4,2.4,2.4,2.4,0,0,0,2.4-2.4V89H161.9a2.4,2.4,0,0,0,2.4-2.4,2.4,2.4,0,0,0-2.4-2.4H22.3V63.3H177.7V84.2h-5.6a2.4,2.4,0,0,0-2.4,2.4,2.4,2.4,0,0,0,2.4,2.4h5.6v88.7H22.3v-5.5a2.4,2.4,0,0,0-2.4-2.4,2.4,2.4,0,0,0-2.4,2.4v7.9a2.4,2.4,0,0,0,2.4,2.4H180.1a2.4,2.4,0,0,0,2.4-2.4V19.9A2.4,2.4,0,0,0,180.1,17.5ZM56.9,58.4V48.1H177.7V58.4Z"/><path class="cls-1" d="M62.1,32.6a7.3,7.3,0,0,0,7.2,7.3,7.3,7.3,0,0,0,7.3-7.3,7.3,7.3,0,0,0-7.3-7.2A7.2,7.2,0,0,0,62.1,32.6Zm9.6,0a2.4,2.4,0,1,1-2.4-2.4A2.5,2.5,0,0,1,71.7,32.6Z"/><path class="cls-1" d="M95.9,32.6a7.3,7.3,0,0,0-7.3-7.2,7.2,7.2,0,0,0-7.2,7.2,7.3,7.3,0,0,0,7.2,7.3A7.3,7.3,0,0,0,95.9,32.6Zm-9.7,0a2.5,2.5,0,0,1,4.9,0,2.5,2.5,0,1,1-4.9,0Z"/><path class="cls-1" d="M115.2,32.6a7.2,7.2,0,0,0-7.2-7.2,7.3,7.3,0,0,0-7.3,7.2,7.3,7.3,0,0,0,7.3,7.3A7.3,7.3,0,0,0,115.2,32.6Zm-9.6,0a2.4,2.4,0,0,1,2.4-2.4,2.5,2.5,0,0,1,0,4.9A2.4,2.4,0,0,1,105.6,32.6Z"/><path class="cls-1" d="M27.5,73.6a7.2,7.2,0,0,0,7.2,7.2A7.3,7.3,0,0,0,42,73.6a7.3,7.3,0,0,0-7.3-7.3A7.3,7.3,0,0,0,27.5,73.6Zm9.7,0a2.5,2.5,0,0,1-4.9,0,2.4,2.4,0,0,1,2.4-2.4A2.4,2.4,0,0,1,37.2,73.6Z"/><path class="cls-1" d="M46.8,73.6a7.3,7.3,0,0,0,7.3,7.2,7.2,7.2,0,0,0,7.2-7.2,7.3,7.3,0,0,0-7.2-7.3A7.3,7.3,0,0,0,46.8,73.6Zm9.7,0A2.4,2.4,0,0,1,54.1,76a2.4,2.4,0,0,1-2.4-2.4,2.3,2.3,0,0,1,2.4-2.4A2.4,2.4,0,0,1,56.5,73.6Z"/><path class="cls-1" d="M66.2,73.6a7.2,7.2,0,0,0,7.2,7.2,7.3,7.3,0,0,0,7.3-7.2,7.3,7.3,0,0,0-7.3-7.3A7.3,7.3,0,0,0,66.2,73.6Zm9.6,0a2.4,2.4,0,1,1-4.8,0,2.4,2.4,0,0,1,4.8,0Z"/><path class="cls-1" d="M92.2,103.9H35.5a2.4,2.4,0,0,0-2.4,2.4V154a2.4,2.4,0,0,0,2.4,2.4H92.2a2.5,2.5,0,0,0,2.5-2.4V106.3A2.5,2.5,0,0,0,92.2,103.9Zm-2.4,4.8V129L75,141.9,55.6,127a3.8,3.8,0,0,0-4.7.2l-13,11.4V108.7ZM37.9,151.6V145l15.5-13.5,26.3,20.1Zm51.9,0H87.6l-8.7-6.7,10.9-9.5Z"/><path class="cls-1" d="M76.9,127.8a8.5,8.5,0,0,0,0-17,8.5,8.5,0,1,0,0,17Zm0-12.2a3.7,3.7,0,1,1-3.7,3.7A3.6,3.6,0,0,1,76.9,115.6Z"/><path class="cls-1" d="M108.9,128.5h52.9a2.4,2.4,0,0,0,0-4.8H108.9a2.4,2.4,0,1,0,0,4.8Z"/><path class="cls-1" d="M108.9,114.8h26.4a2.4,2.4,0,1,0,0-4.8H108.9a2.4,2.4,0,0,0,0,4.8Z"/><path class="cls-1" d="M108.9,140.1h52.9a2.4,2.4,0,0,0,0-4.8H108.9a2.4,2.4,0,0,0,0,4.8Z"/><path class="cls-1" d="M108.9,151.7h52.9a2.4,2.4,0,0,0,0-4.8H108.9a2.4,2.4,0,0,0,0,4.8Z"/><path class="cls-1" d="M35.1,167a2.4,2.4,0,0,0,2.4,2.4H161.8a2.4,2.4,0,0,0,0-4.8H37.5A2.4,2.4,0,0,0,35.1,167Z"/></svg>