<svg id="Layer_1" data-name="Layer 1" xmlns="http://www.w3.org/2000/svg" viewBox="0 0 200 200"><defs><style>.cls-1{fill:#0072ce;}</style></defs><title>Good-eDIGITAL-Services-Section-Images</title><path class="cls-1" d="M72.5,122a2.8,2.8,0,0,0-5.5,0v2.8H58.8a2.7,2.7,0,0,0-2.8,2.7,2.8,2.8,0,0,0,2.8,2.8H67V133a2.8,2.8,0,1,0,5.5,0v-2.7h66a2.8,2.8,0,0,0,2.7-2.8,2.7,2.7,0,0,0-2.7-2.7h-66Z"/><path class="cls-1" d="M90.3,86.7A2.6,2.6,0,0,0,89,89v22a2.8,2.8,0,0,0,4,2.5l22-11a2.8,2.8,0,0,0,1.5-2.5,2.7,2.7,0,0,0-1.5-2.4l-22-11A2.6,2.6,0,0,0,90.3,86.7Zm4.2,6.7,13.1,6.6-13.1,6.6Z"/><path class="cls-1" d="M69.7,91.7A2.7,2.7,0,0,0,72.5,89a2.8,2.8,0,0,0-2.8-2.8,8.3,8.3,0,0,0-8.2,8.3v2.7H58.8a2.8,2.8,0,0,0,0,5.6h2.7V111a2.8,2.8,0,0,0,5.5,0v-8.2h2.7a2.8,2.8,0,0,0,0-5.6H67V94.5A2.8,2.8,0,0,1,69.7,91.7Z"/><path class="cls-1" d="M130.2,111a2.8,2.8,0,0,0,2.8,2.7,2.7,2.7,0,0,0,2.7-2.7V97.2a2.7,2.7,0,0,0-2.7-2.7,2.8,2.8,0,0,0-2.8,2.7Z"/><path class="cls-1" d="M135.7,89a2.7,2.7,0,0,1-2.7,2.7,2.8,2.8,0,0,1-2.8-2.7,2.9,2.9,0,0,1,2.8-2.8A2.8,2.8,0,0,1,135.7,89Z"/><path class="cls-1" d="M53.2,72.5H45a2.8,2.8,0,0,0-2.8,2.7v66.1A2.8,2.8,0,0,0,45,144H155a2.7,2.7,0,0,0,2.7-2.7V86.2a2.7,2.7,0,1,0-5.4,0v52.3H47.7V78h5.5a2.8,2.8,0,1,0,0-5.5Z"/><path class="cls-1" d="M113.7,78a2.8,2.8,0,1,0,0-5.5H94.5a2.8,2.8,0,1,0,0,5.5Z"/><path class="cls-1" d="M166,83.5a2.8,2.8,0,0,0-2.8,2.7v60.6a2.7,2.7,0,0,1-2.7,2.7H39.5a2.8,2.8,0,0,1-2.8-2.7V75.2A2.7,2.7,0,0,0,34,72.5a2.8,2.8,0,0,0-2.8,2.7v71.6a8.3,8.3,0,0,0,8.3,8.2H78v11H61.5a8.3,8.3,0,1,0,0,16.5h77a2.8,2.8,0,0,0,0-5.5h-77a2.8,2.8,0,0,1,0-5.5h77a2.8,2.8,0,0,0,0-5.5H122V155h38.5a8.2,8.2,0,0,0,8.2-8.2V86.2A2.7,2.7,0,0,0,166,83.5ZM116.5,166h-33V155h33Z"/><path class="cls-1" d="M168.7,17.5h-33A13.8,13.8,0,0,0,122,31.2V61.5H94a8.7,8.7,0,0,0,.5-2.8V25.8a8.3,8.3,0,0,0-8.2-8.3H25.7a8.3,8.3,0,0,0-8.2,8.3V58.7A8.3,8.3,0,0,0,25.7,67H57.6L78.8,88.2a2.8,2.8,0,0,0,3,.6,2.8,2.8,0,0,0,1.7-2.6V67h38.8a13.7,13.7,0,0,0,13.4,11h33a13.8,13.8,0,0,0,13.8-13.8v-33A13.8,13.8,0,0,0,168.7,17.5Zm-85.2,44H80.8A2.7,2.7,0,0,0,78,64.2V79.6L60.7,62.3a2.7,2.7,0,0,0-1.9-.8H25.7A2.7,2.7,0,0,1,23,58.7V25.8A2.7,2.7,0,0,1,25.7,23H86.3A2.7,2.7,0,0,1,89,25.8V58.7a2.7,2.7,0,0,1-2.7,2.8ZM177,64.2a8.3,8.3,0,0,1-8.3,8.3h-33a8.3,8.3,0,0,1-8.2-8.3v-33a8.2,8.2,0,0,1,8.2-8.2h33a8.3,8.3,0,0,1,8.3,8.2Z"/><path class="cls-1" d="M163.2,45a2.7,2.7,0,0,0-2.7,2.7,8.3,8.3,0,1,1-8.2-8.2,2.8,2.8,0,0,0,0-5.5A13.8,13.8,0,1,0,166,47.7,2.7,2.7,0,0,0,163.2,45Z"/><path class="cls-1" d="M72.5,28.5H45A2.8,2.8,0,1,0,45,34H72.5a2.8,2.8,0,0,0,0-5.5Z"/><path class="cls-1" d="M34,45H56a2.8,2.8,0,1,0,0-5.5H34A2.8,2.8,0,1,0,34,45Z"/><path class="cls-1" d="M72.5,50.5H47.7a2.8,2.8,0,0,0,0,5.5H72.5a2.8,2.8,0,0,0,0-5.5Z"/><path class="cls-1" d="M36.7,50.5H34A2.8,2.8,0,1,0,34,56h2.7a2.8,2.8,0,1,0,0-5.5Z"/><path class="cls-1" d="M72.5,39.5H67A2.8,2.8,0,0,0,67,45h5.5a2.8,2.8,0,0,0,0-5.5Z"/></svg>