<svg id="Layer_1" data-name="Layer 1" xmlns="http://www.w3.org/2000/svg" viewBox="0 0 200 200"><defs><style>.cls-1{fill:#0072ce;}</style></defs><title>Good-eDIGITAL-Services-Section-Images</title><path class="cls-1" d="M69.9,81.8a2.9,2.9,0,0,0-2.2-1.5L44.5,78.8a2.6,2.6,0,0,0-2.7,1.7L25.1,123.2a2.7,2.7,0,0,0,.9,3.1,2.7,2.7,0,0,0,1.7.6,3.3,3.3,0,0,0,1.6-.5L43.2,116l8,1.6a2.9,2.9,0,0,0,3.1-1.7A187.3,187.3,0,0,1,69.8,84.5,2.6,2.6,0,0,0,69.9,81.8ZM50,111.7l-7-1.4a3.6,3.6,0,0,0-2.2.5l-7.1,5.4L46.2,84.4l16.6,1.1A187.3,187.3,0,0,0,50,111.7Z"/><path class="cls-1" d="M121.2,155.5l-1.5-23.2a2.9,2.9,0,0,0-1.5-2.2,2.6,2.6,0,0,0-2.7.1,187.3,187.3,0,0,1-31.4,15.5,2.9,2.9,0,0,0-1.7,3.1l1.6,8L73.6,170.7a2.7,2.7,0,0,0,.1,3.3,2.6,2.6,0,0,0,2.1,1.1l1-.2,42.7-16.7A2.6,2.6,0,0,0,121.2,155.5ZM83.8,166.2l5.4-7a3.6,3.6,0,0,0,.5-2.2l-1.4-7a187.3,187.3,0,0,0,26.2-12.8l1.1,16.6Z"/><path class="cls-1" d="M97.2,100H78.7a2.7,2.7,0,0,0-2.4,1.4L53.1,143.2a2.8,2.8,0,0,0,2.4,4.1,2.5,2.5,0,0,0,1.4-.4l41.8-25.3a2.8,2.8,0,0,0,1.3-2.3V102.8A2.7,2.7,0,0,0,97.2,100Zm-2.7,17.7L62.9,136.8l17.4-31.3H94.5Z"/><path class="cls-1" d="M182.4,20.2a2.9,2.9,0,0,0-2.6-2.6c-.9,0-91.4-6.4-130.6,96.3a2.6,2.6,0,0,0,.6,2.9l13.1,13.1a2.9,2.9,0,0,0,2.3.8,2.7,2.7,0,0,0,2-1.4l13.1-23.8H94.5v12.2L70.6,132.8a3,3,0,0,0-1.3,2.1,2.7,2.7,0,0,0,.8,2.2l13.1,13.1a2.7,2.7,0,0,0,1.9.8l1-.2C188.8,111.6,182.4,21.1,182.4,20.2ZM167.9,68.9c-9.6,23.9-31.7,56.4-82.1,76.1l-9.4-9.3,22.3-14.1a2.8,2.8,0,0,0,1.3-2.3V102.8a2.7,2.7,0,0,0-2.8-2.8H78.7a2.9,2.9,0,0,0-2.4,1.4l-12.1,22L55,114.2C89.4,26.4,162.7,22.8,177,23A120.9,120.9,0,0,1,167.9,68.9Z"/><path class="cls-1" d="M64.6,139a2.7,2.7,0,0,0-2.5-1.1,2.7,2.7,0,0,0-1.1-2.5,17.2,17.2,0,0,0-14.6-2.9A18.6,18.6,0,0,0,34,142.8L17.7,178.6a2.9,2.9,0,0,0,.6,3.1,2.7,2.7,0,0,0,1.9.8l1.2-.2L57.2,166a18.6,18.6,0,0,0,10.3-12.4A17.2,17.2,0,0,0,64.6,139Zm-2.5,13.3a12.9,12.9,0,0,1-7.2,8.7L25.8,174.2,39,145.1a12.9,12.9,0,0,1,8.7-7.2,11,11,0,0,1,3.1-.4,10.4,10.4,0,0,1,4.9,1.1l-2.6,4.6a2.7,2.7,0,0,0,3.7,3.7l4.6-2.6A11.5,11.5,0,0,1,62.1,152.3Z"/><path class="cls-1" d="M182.4,20.2a3,3,0,0,0-2.6-2.6c-1,0-26.5-2-56.5,11.8a3.2,3.2,0,0,0-1.6,2,3.3,3.3,0,0,0,.8,2.5l43.6,43.6a2.8,2.8,0,0,0,2,.8h.5a3.2,3.2,0,0,0,2-1.6C184.4,46.7,182.4,21.2,182.4,20.2ZM167.2,70.8l-38-38A124.2,124.2,0,0,1,177,23,122.3,122.3,0,0,1,167.2,70.8Z"/><path class="cls-1" d="M138.9,61.1a23.7,23.7,0,1,0,0,33.5A23.6,23.6,0,0,0,138.9,61.1Zm-3.8,29.6a18.2,18.2,0,1,1-12.9-31.1,18.6,18.6,0,0,1,12.9,5.3A18.3,18.3,0,0,1,135.1,90.7Z"/><path class="cls-1" d="M127.6,83.3a7.7,7.7,0,0,1-10.9-10.9,7.6,7.6,0,0,1,10.9,0,2.9,2.9,0,0,0,3.9,0,2.7,2.7,0,0,0,0-3.9,13.2,13.2,0,0,0-18.7,0,13.3,13.3,0,0,0,9.4,22.6,13,13,0,0,0,9.3-3.9,2.8,2.8,0,1,0-3.9-3.9Z"/></svg>