<svg id="Layer_1" data-name="Layer 1" xmlns="http://www.w3.org/2000/svg" viewBox="0 0 200 200"><defs><style>.cls-1{fill:#0072ce;}</style></defs><title>Good-eDIGITAL-Services-Section-Images</title><path class="cls-1" d="M180.1,43.3h-13V29.5a2.4,2.4,0,0,0-2.4-2.4L20.4,26.6A2.4,2.4,0,0,0,18,29l-.4,103.7a2.4,2.4,0,0,0,4.8,0l.3-85.2,139.5.5V71.5a2.5,2.5,0,0,0,4.9,0V64.1h10.6l-.4,104.5H161.3a2.4,2.4,0,0,0-2.4,2.4,2.4,2.4,0,0,0,2.4,2.5h18.3A2.4,2.4,0,0,0,182,171l.5-125.3A2.4,2.4,0,0,0,180.1,43.3ZM53.9,42.8l-31.1-.2V31.4H54Zm108.4.4L58.8,42.8V31.5l103.5.4Zm15.3,16.1H167V48h10.6Z"/><path class="cls-1" d="M164.5,79.5a2.4,2.4,0,0,0-2.4,2.4l-.3,70.6-139.5-.6v-8.8a2.4,2.4,0,0,0-2.4-2.4,2.4,2.4,0,0,0-2.5,2.4v11.2a2.4,2.4,0,0,0,2.4,2.4h13v13.7a2.4,2.4,0,0,0,2.4,2.4l115.9.4a2.4,2.4,0,0,0,2.4-2.4,2.4,2.4,0,0,0-2.4-2.4l-113.5-.4V156.8l126.5.5a2.4,2.4,0,0,0,2.4-2.4l.3-73A2.4,2.4,0,0,0,164.5,79.5Z"/><path class="cls-1" d="M116.3,122.3l-51.4-.2a8.8,8.8,0,0,0-8.9,8.8v6.4a8.8,8.8,0,0,0,8.8,8.9l51.4.2a8.8,8.8,0,0,0,8.9-8.8v-6.4A8.8,8.8,0,0,0,116.3,122.3Zm4,15.3a4.1,4.1,0,0,1-4.1,4l-51.4-.2a4,4,0,0,1-4-4v-6.5a4,4,0,0,1,4.1-4l51.4.2a4,4,0,0,1,4,4.1Z"/><circle class="cls-1" cx="29.7" cy="37" r="2.4"/><circle class="cls-1" cx="47.7" cy="37.1" r="2.4"/><circle class="cls-1" cx="38.7" cy="37.1" r="2.4"/><path class="cls-1" d="M75.3,107.2,60.4,64.7a2.5,2.5,0,0,0-2.3-1.6h0a2.4,2.4,0,0,0-2.3,1.5c0,.1-3.9,10.6-7.6,21-7.8,21.4-7.8,21.6-7.8,22.2a2.3,2.3,0,0,0,2.3,2.4h.1a2.3,2.3,0,0,0,2.3-1.9c.3-.8,2.1-5.9,4.6-12.7H66.2l4.6,13.2a2.5,2.5,0,0,0,2.3,1.6l.8-.2A2.3,2.3,0,0,0,75.3,107.2ZM51.4,90.8C53.5,85,55.9,78.5,58,72.6l6.5,18.2Z"/><path class="cls-1" d="M81.5,63.1h-.8a2.4,2.4,0,0,0-2.4,2.4L78.1,108a2.4,2.4,0,0,0,2.4,2.4h.8a23.7,23.7,0,0,0,.2-47.3Zm1.4,42.4L83.1,68a18.8,18.8,0,0,1-.2,37.5Z"/><path class="cls-1" d="M126.1,83.7H121a7.1,7.1,0,0,1-7.1-7.1V75.2a7.1,7.1,0,0,1,7.1-7.1h3.1a7.1,7.1,0,0,1,7,7.2,2.4,2.4,0,0,0,2.4,2.4,2.4,2.4,0,0,0,2.4-2.4,11.9,11.9,0,0,0-11.8-12H121a11.9,11.9,0,0,0-11.9,11.9v1.3a11.9,11.9,0,0,0,11.9,12h5a5.1,5.1,0,0,1,5.1,5.1v5.1a7,7,0,0,1-7.1,7h-3a7.1,7.1,0,0,1-7.1-7.1V97.1a2.4,2.4,0,1,0-4.8,0v1.5a11.9,11.9,0,0,0,11.9,11.9h3a12,12,0,0,0,12-11.9V93.6A9.9,9.9,0,0,0,126.1,83.7Z"/></svg>