<svg id="Layer_1" data-name="Layer 1" xmlns="http://www.w3.org/2000/svg" viewBox="0 0 200 200"><defs><style>.cls-1{fill:#0072ce;}</style></defs><title>Good-eDIGITAL-Services-Section-Images</title><path class="cls-1" d="M23.2,94.5H41l6.4,12.9a2.9,2.9,0,0,0,2.4,1.4,2.6,2.6,0,0,0,2.3-1.4l6.4-12.9h1.3a2.6,2.6,0,0,0,2.7-2.6,2.7,2.7,0,0,0-2.7-2.6H56.9a2.7,2.7,0,0,0-2.4,1.4l-4.7,9.6L45,90.7a2.7,2.7,0,0,0-2.4-1.4H23.2a.4.4,0,0,1-.4-.4V23.2c0-.3.1-.4.4-.4H76.4a.4.4,0,0,1,.4.4V51.7a2.6,2.6,0,1,0,5.2,0V23.2a5.6,5.6,0,0,0-5.6-5.7H23.2a5.6,5.6,0,0,0-5.7,5.7V88.9A5.6,5.6,0,0,0,23.2,94.5Z"/><path class="cls-1" d="M49.8,28A13.2,13.2,0,1,0,62.9,41.2,13.2,13.2,0,0,0,49.8,28Zm0,21.1a7.9,7.9,0,1,1,7.9-7.9A7.9,7.9,0,0,1,49.8,49.1Z"/><path class="cls-1" d="M49.8,64.9a16.6,16.6,0,0,1,8.7,2.5,2.6,2.6,0,0,0,3.6-.8,2.7,2.7,0,0,0-.8-3.7,22.3,22.3,0,0,0-11.5-3.3A21.9,21.9,0,0,0,28,81.4,2.7,2.7,0,0,0,30.7,84H59.8a2.7,2.7,0,1,0,0-5.3H33.5A16.6,16.6,0,0,1,49.8,64.9Z"/><path class="cls-1" d="M176.8,17.5H123.6a5.6,5.6,0,0,0-5.6,5.7V51.7a2.6,2.6,0,0,0,5.2,0V23.2a.4.4,0,0,1,.4-.4h53.2c.3,0,.4.1.4.4V88.9a.4.4,0,0,1-.4.4H157.4a2.7,2.7,0,0,0-2.4,1.4l-4.8,9.6-4.7-9.6a2.7,2.7,0,0,0-2.4-1.4h-2.9a2.7,2.7,0,0,0-2.7,2.6,2.6,2.6,0,0,0,2.7,2.6h1.3l6.4,12.9a2.6,2.6,0,0,0,2.3,1.4,2.9,2.9,0,0,0,2.4-1.4L159,94.5h17.8a5.6,5.6,0,0,0,5.7-5.6V23.2A5.6,5.6,0,0,0,176.8,17.5Z"/><path class="cls-1" d="M150.2,28a13.2,13.2,0,1,0,13.2,13.2A13.2,13.2,0,0,0,150.2,28Zm0,21.1a7.9,7.9,0,1,1,7.9-7.9A7.9,7.9,0,0,1,150.2,49.1Z"/><path class="cls-1" d="M137.5,81.4a2.7,2.7,0,0,0,2.7,2.6h29.1a2.7,2.7,0,0,0,2.7-2.6,21.9,21.9,0,0,0-21.8-21.8,22.3,22.3,0,0,0-11.5,3.3,2.7,2.7,0,0,0-.8,3.7,2.6,2.6,0,0,0,3.6.8,16.5,16.5,0,0,1,25,11.3H140.2a2.7,2.7,0,0,0-2.7,2.7Z"/><path class="cls-1" d="M67.7,65.2V131a5.7,5.7,0,0,0,5.7,5.6H91.2l6.4,12.8a2.7,2.7,0,0,0,4.8,0l6.4-12.8h17.8a5.7,5.7,0,0,0,5.7-5.6V65.2a5.7,5.7,0,0,0-5.7-5.6H73.4A5.7,5.7,0,0,0,67.7,65.2Zm59.3,0V131a.4.4,0,0,1-.4.4H107.1a2.4,2.4,0,0,0-2.3,1.4l-4.8,9.6-4.8-9.6a2.4,2.4,0,0,0-2.3-1.4H73.4a.4.4,0,0,1-.4-.4V65.2c0-.2.2-.3.4-.3h53.2c.2,0,.4.1.4.3Z"/><path class="cls-1" d="M100,96.5A13.2,13.2,0,1,0,86.8,83.3,13.2,13.2,0,0,0,100,96.5Zm0-21.1a7.9,7.9,0,1,1-7.9,7.9A7.9,7.9,0,0,1,100,75.4Z"/><path class="cls-1" d="M80.9,126.1h38.2a2.6,2.6,0,0,0,2.6-2.6,21.7,21.7,0,1,0-43.4,0,2.6,2.6,0,0,0,2.6,2.6ZM100,107a16.6,16.6,0,0,1,16.3,13.8H83.7A16.6,16.6,0,0,1,100,107Z"/><path class="cls-1" d="M151.4,172.1a2.7,2.7,0,0,0,2.8-2.8,2.8,2.8,0,0,0-2.8-2.8,2.9,2.9,0,0,0-2.8,2.8A2.8,2.8,0,0,0,151.4,172.1Z"/><path class="cls-1" d="M137,172.1a2.7,2.7,0,0,0,2.8-2.8,2.8,2.8,0,0,0-2.8-2.8,2.9,2.9,0,0,0-2.8,2.8A2.8,2.8,0,0,0,137,172.1Z"/><path class="cls-1" d="M165.8,172.1a2.7,2.7,0,0,0,2.8-2.8,2.8,2.8,0,0,0-2.8-2.8,2.9,2.9,0,0,0-2.8,2.8A2.8,2.8,0,0,0,165.8,172.1Z"/><path class="cls-1" d="M179.9,156.2H20.1a2.6,2.6,0,0,0-2.6,2.6v21.1a2.6,2.6,0,0,0,2.6,2.6H179.9a2.6,2.6,0,0,0,2.6-2.6V158.8A2.6,2.6,0,0,0,179.9,156.2ZM22.8,161.4h97.4v15.8H22.8Zm154.4,15.8H125.5V161.4h51.7Z"/></svg>