<svg id="Layer_1" data-name="Layer 1" xmlns="http://www.w3.org/2000/svg" viewBox="0 0 200 200"><defs><style>.cls-1{fill:#0072ce;}</style></defs><title>Good-eDIGITAL-Services-Section-Images</title><path class="cls-1" d="M162.2,26.5H125.4V18a2.8,2.8,0,0,0-2.8-2.8H77.4A2.8,2.8,0,0,0,74.6,18h0v8.5H37.8A2.9,2.9,0,0,0,35,29.3h0V182a2.9,2.9,0,0,0,2.8,2.8H162.2A2.9,2.9,0,0,0,165,182h0V29.3A2.9,2.9,0,0,0,162.2,26.5Zm-82-5.6h39.6V37.8H80.2Zm79.1,158.2H40.7V32.2H74.6v8.5a2.8,2.8,0,0,0,2.8,2.8h45.2a2.8,2.8,0,0,0,2.8-2.8h0V32.2h33.9Z"/><rect class="cls-1" x="46.3" y="145.2" width="62.2" height="5.65"/><rect class="cls-1" x="114.1" y="145.2" width="39.6" height="5.65"/><rect class="cls-1" x="46.3" y="156.5" width="107.4" height="5.65"/><rect class="cls-1" x="46.3" y="167.8" width="45.2" height="5.65"/><rect class="cls-1" x="97.2" y="167.8" width="56.5" height="5.65"/><path class="cls-1" d="M66.1,97.2h-17a2.8,2.8,0,0,0-2.8,2.8h0v36.7a2.9,2.9,0,0,0,2.8,2.9h17a2.9,2.9,0,0,0,2.8-2.9h0V100A2.8,2.8,0,0,0,66.1,97.2Zm-2.8,36.7H52V102.8H63.3Z"/><path class="cls-1" d="M94.3,85.9H77.4a2.7,2.7,0,0,0-2.8,2.8h0v48a2.8,2.8,0,0,0,2.8,2.9H94.3a2.9,2.9,0,0,0,2.9-2.9h0v-48A2.8,2.8,0,0,0,94.3,85.9Zm-2.8,48H80.2V91.5H91.5Z"/><path class="cls-1" d="M122.6,74.6H105.7a2.8,2.8,0,0,0-2.9,2.8h0v59.3a2.9,2.9,0,0,0,2.9,2.9h16.9a2.8,2.8,0,0,0,2.8-2.9h0V77.4A2.7,2.7,0,0,0,122.6,74.6Zm-2.8,59.3H108.5V80.2h11.3Z"/><path class="cls-1" d="M150.9,63.3h-17a2.8,2.8,0,0,0-2.8,2.8h0v70.6a2.9,2.9,0,0,0,2.8,2.9h17a2.9,2.9,0,0,0,2.8-2.9h0V66.1A2.8,2.8,0,0,0,150.9,63.3ZM148,133.9H136.7v-65H148Z"/><path class="cls-1" d="M150.3,43.5l-28.2,5.7-1.1.4L96.3,66.1H71.7a2.8,2.8,0,0,0-1.5.4L47.6,80.6l3,4.8L72.5,71.7H97.2a2.6,2.6,0,0,0,1.5-.4l25-16.7,27.7-5.5Z"/></svg>