<svg xmlns="http://www.w3.org/2000/svg" width="14" height="14" viewBox="0 0 14 14">
    <g fill="#ABD8A5" fill-rule="evenodd">
        <path d="M7 1.4C3.92 1.4 1.4 3.92 1.4 7c0 3.08 2.52 5.6 5.6 5.6 3.08 0 5.6-2.52 5.6-5.6 0-3.08-2.52-5.6-5.6-5.6M7 14c-3.85 0-7-3.15-7-7s3.15-7 7-7 7 3.15 7 7-3.15 7-7 7"/>
        <path d="M6.3 9.8c-.21 0-.35-.07-.49-.21l-2.1-2.1a.677.677 0 0 1 0-.98c.28-.28.7-.28.98 0l1.54 1.54 3.01-3.64c.28-.28.7-.35.98-.07.28.28.35.7.07.98l-3.5 4.2c-.07.21-.28.28-.49.28"/>
    </g>
</svg>
