<svg xmlns="http://www.w3.org/2000/svg" width="12" height="14" viewBox="0 0 12 14">
    <g fill="#837EBE" fill-rule="evenodd">
        <path d="M6.168.763a3.072 3.072 0 1 1 0 6.144 3.072 3.072 0 0 1 0-6.144M10.59 8.95a4.035 4.035 0 0 0-2.11-1.485l-.574-.17H4.43l-.574.17c-.27.084-.54.185-.777.32A4.21 4.21 0 0 0 1.745 8.95a4.222 4.222 0 0 0-.692 1.57c-.068.32-.118.642-.186.962a.828.828 0 0 0 .473.912c1.4.59 3.055.928 4.828.928 1.772 0 3.41-.337 4.827-.928a.829.829 0 0 0 .49-.912l-.203-.962a4.222 4.222 0 0 0-.692-1.57z"/>
    </g>
</svg>
