<svg xmlns="http://www.w3.org/2000/svg" width="32" height="32" viewBox="0 0 32 32">
    <path fill="#4A4A49" fill-rule="evenodd" d="M4.886 0C4.04 0 3.306.6 3.14 1.44l-3.106 16a1.4 1.4 0 0 0-.034.34v10.667C0 30.387 1.613 32 3.553 32h24.894C30.387 32 32 30.387 32 28.447V17.78a1.4 1.4 0 0 0-.034-.34l-3.106-16C28.694.6 27.96 0 27.114 0H4.886zm1.468 3.553h19.292l2.761 14.227h-5.294a1.77 1.77 0 0 0-1.686 1.213l-1.06 3.18a1.38 1.38 0 0 1-1.307.94h-6.12a1.38 1.38 0 0 1-1.307-.94l-1.06-3.18a1.77 1.77 0 0 0-1.686-1.213H3.593l2.76-14.227z"/>
</svg>
