<svg xmlns="http://www.w3.org/2000/svg" width="32" height="32" viewBox="0 0 32 32">
    <path fill="#4A4A49" fill-rule="evenodd" d="M28.447 0H3.553A3.557 3.557 0 0 0 0 3.553V17.78h14.22V14.5c0-.753.92-1.133 1.46-.6l4.58 4.58c.594.594.594 1.56 0 2.147l-4.58 4.586c-.54.534-1.46.153-1.46-.606v-3.274H0v7.114A3.557 3.557 0 0 0 3.553 32h24.894A3.557 3.557 0 0 0 32 28.447V3.553A3.557 3.557 0 0 0 28.447 0zm-8.894 8.887h-7.106c-.987 0-1.78-.794-1.78-1.774 0-.986.793-1.78 1.78-1.78h7.106a1.776 1.776 0 1 1 0 3.554z"/>
</svg>
