<svg xmlns="http://www.w3.org/2000/svg" width="32" height="32" viewBox="0 0 32 32">
    <path fill="#4A4A49" fill-rule="evenodd" d="M4.886 0c-.846 0-1.58.606-1.739 1.44l-3.113 16a1.91 1.91 0 0 0-.034.34v10.667A3.557 3.557 0 0 0 3.553 32h24.894A3.557 3.557 0 0 0 32 28.447V17.78a1.91 1.91 0 0 0-.034-.34l-3.113-16A1.775 1.775 0 0 0 27.113 0h-6.087l3.56 3.553h1.06l2.761 14.227h-5.294a1.77 1.77 0 0 0-1.686 1.213l-1.06 3.18a1.38 1.38 0 0 1-1.307.94h-6.12a1.38 1.38 0 0 1-1.307-.94l-1.06-3.18a1.77 1.77 0 0 0-1.686-1.213H3.593l2.76-14.227h1.068L10.974 0H4.886zM16 0L8.887 7.113h5.333v7.107h3.56V7.113h5.333L16 0z"/>
</svg>
