<svg xmlns="http://www.w3.org/2000/svg" width="32" height="32" viewBox="0 0 32 32">
    <path fill="#4A4A49" fill-rule="evenodd" d="M31.413 13.369l-4.109-.668c-.239-.826-.57-1.62-.983-2.37l2.402-3.423a.695.695 0 0 0-.076-.892l-2.706-2.7a.703.703 0 0 0-.898-.077l-3.37 2.424c-.76-.418-1.559-.75-2.39-.995L18.565.576A.69.69 0 0 0 17.88 0h-3.826a.695.695 0 0 0-.686.582l-.662 4.076c-.838.24-1.636.565-2.392.978L6.951 3.24a.693.693 0 0 0-.896.07L3.353 6.017a.695.695 0 0 0-.076.892l2.365 3.38c-.425.76-.756 1.57-1 2.408l-4.06.673a.705.705 0 0 0-.582.69v3.826a.7.7 0 0 0 .576.686l4.054.717c.245.837.582 1.641 1 2.408L3.24 25.043a.695.695 0 0 0 .07.898l2.707 2.706c.24.24.615.271.892.076l3.385-2.37c.76.418 1.565.75 2.397.989l.679 4.076a.695.695 0 0 0 .686.582h3.826c.337 0 .63-.245.685-.576l.727-4.097a11.504 11.504 0 0 0 2.386-.995l3.413 2.391a.695.695 0 0 0 .892-.076l2.706-2.706c.24-.24.271-.62.071-.898l-2.435-3.38c.413-.75.739-1.543.978-2.37l4.12-.722a.7.7 0 0 0 .576-.686V14.06a.7.7 0 0 0-.587-.69zM16 20.869A4.868 4.868 0 0 1 11.13 16c0-2.69 2.18-4.87 4.87-4.87s4.87 2.18 4.87 4.87-2.18 4.87-4.87 4.87z"/>
</svg>
