<svg xmlns="http://www.w3.org/2000/svg" xmlns:xlink="http://www.w3.org/1999/xlink" width="265" height="225" viewBox="0 0 265 225">
    <defs>
        <linearGradient id="b" x1="0%" x2="82.941%" y1="50%" y2="50%">
            <stop offset="0%" stop-color="#C9D0D8"/>
            <stop offset="100%" stop-color="#99A3B0"/>
        </linearGradient>
        <path id="a" d="M18 0c9.941 0 18 8.059 18 18v45L0 53.863V18C0 8.059 8.059 0 18 0z"/>
        <path id="d" d="M8.1 0h.085v.072a8.1 8.1 0 0 1-8.1 8.1H0V8.1A8.1 8.1 0 0 1 8.1 0z"/>
        <linearGradient id="f" x1="50%" x2="50%" y1="35.673%" y2="100%">
            <stop offset="0%" stop-color="#FFF"/>
            <stop offset="100%" stop-color="#FFF" stop-opacity=".158"/>
        </linearGradient>
    </defs>
    <g fill="none" fill-rule="evenodd" opacity=".9">
        <path fill="#C4CDD7" d="M174 151h9v74h-9z"/>
        <path fill="#DEE3EB" d="M168 151h6v74h-6z"/>
        <path fill="#B6BFC9" d="M160 98h27.85c14.442 0 26.15 11.708 26.15 26.15v21.95a5 5 0 0 1-4.137 4.926L158.62 160 122 151.252V136c0-20.987 17.013-38 38-38z"/>
        <g transform="translate(122 98)">
            <mask id="c" fill="#fff">
                <use xlink:href="#a"/>
            </mask>
            <use fill="url(#b)" xlink:href="#a"/>
            <path fill="#8996A3" d="M-2.458 53.93l47.774-5.424 32.692 4.944-41.981 9.545z" mask="url(#c)"/>
        </g>
        <path fill="#CCD3D8" d="M121.67 151l-14.37 21.742c-4.279 6.473-2.5 15.19 3.974 19.467a14.05 14.05 0 0 0 3.72 1.74 25.047 25.047 0 0 0 28.297-10.53L158 160.348 121.67 151z"/>
        <path stroke="#5C738E" stroke-dasharray="6,7" stroke-width="3" d="M137 133c-11.084-3.245-30.55-2.955-37.86-21.92-6.7-17.382 18.015-34.111 24.93-26.787 4.9 5.19-1.38 12.674-10.096 11.833-9.809-.946-15.607-9.72-13.673-19.157 3.837-18.72 33.334-31.106 34.577-31.969" opacity=".3"/>
        <circle cx="178.5" cy="132.5" r="7.5" fill="#9DACB9"/>
        <path fill="#FFF" d="M194.307 121.32l-13.47 13.828a2.797 2.797 0 0 1-4.007 0 2.948 2.948 0 0 1 0-4.114l15.155-15.559c.121-.195.265-.38.432-.552a3.03 3.03 0 0 1 4.34 0l5.344 5.485a3.194 3.194 0 0 1 0 4.457 3.03 3.03 0 0 1-4.341 0l-3.453-3.545z"/>
        <g transform="translate(126 26)">
            <path fill="#CED8E5" d="M12.177 12.64c-.184-4.652-.892-7.594-2.124-8.825a4.735 4.735 0 0 0-6.695.005 4.735 4.735 0 0 0-.006 6.696c1.232 1.231 4.174 1.94 8.825 2.123zM15.42 15.432c.183 4.652.89 7.593 2.123 8.825a4.735 4.735 0 0 0 6.696-.006 4.735 4.735 0 0 0 .005-6.695c-1.232-1.232-4.173-1.94-8.825-2.124z" opacity=".4"/>
            <g transform="translate(9.908 9.506)">
                <mask id="e" fill="#fff">
                    <use xlink:href="#d"/>
                </mask>
                <use fill="#A8B7C5" xlink:href="#d"/>
                <path fill="#DDE5F2" d="M1.723.43h1.292v9.462H1.723z" mask="url(#e)" transform="rotate(-45 2.37 5.161)"/>
                <path fill="#DDE5F2" d="M1.152.122l.913-.914L8.756 5.9l-.914.914z" mask="url(#e)"/>
            </g>
            <path stroke="#8696C5" stroke-width=".9" d="M22.487 7.459l3.144-.748M21.195 6.169l1.21-3.112"/>
            <ellipse cx="19.385" cy="8.646" fill="#8B9AA8" rx="3.446" ry="3.441"/>
        </g>
        <path fill="url(#f)" d="M230.291 51.266c-3.456 4.54-9.745 6.734-16.93 6.734-9.179 0-16.895-3.58-19.111-11.06-.37.024-.741.035-1.116.035-9.463 0-17.134-7.404-17.134-16.537s7.671-16.537 17.134-16.537h.068C193.944 6.104 200.662 0 208.84 0c4.632 0 8.796 1.959 11.67 5.075A19.87 19.87 0 0 1 233.827 0c10.909 0 19.752 8.692 19.752 19.413 0 .518-.021 1.03-.062 1.538C260.296 24.026 265 30.767 265 38.587 265 49.308 256.157 58 245.249 58c-5.978 0-11.336-2.61-14.958-6.734zM54.291 80.266C50.835 84.806 44.546 87 37.361 87c-9.179 0-16.895-3.58-19.111-11.06-.37.024-.741.035-1.116.035C7.67 75.975 0 68.571 0 59.438s7.671-16.537 17.134-16.537h.068C17.944 35.104 24.662 29 32.84 29c4.632 0 8.796 1.959 11.67 5.075A19.87 19.87 0 0 1 57.827 29c10.909 0 19.752 8.692 19.752 19.413 0 .518-.021 1.03-.062 1.538C84.296 53.026 89 59.767 89 67.587 89 78.308 80.157 87 69.249 87c-5.978 0-11.336-2.61-14.958-6.734z"/>
    </g>
</svg>
