<svg xmlns="http://www.w3.org/2000/svg" xmlns:xlink="http://www.w3.org/1999/xlink" width="173" height="173" viewBox="0 0 173 173">
    <defs>
        <circle id="a" cx="86.5" cy="86.5" r="86.5"/>
        <linearGradient id="b" x1="50%" x2="50%" y1="35.673%" y2="100%">
            <stop offset="0%" stop-color="#FFF"/>
            <stop offset="100%" stop-color="#FFF" stop-opacity=".158"/>
        </linearGradient>
        <linearGradient id="d" x1="132.053%" x2="16.568%" y1="40.295%" y2="65.83%">
            <stop offset="0%" stop-color="#A8C3FF"/>
            <stop offset="100%" stop-color="#6F90FF"/>
        </linearGradient>
        <linearGradient id="e" x1="72.405%" x2="50%" y1="-20.327%" y2="100%">
            <stop offset="0%" stop-color="#BDC8D4"/>
            <stop offset="100%" stop-color="#8897A9"/>
        </linearGradient>
        <linearGradient id="f" x1="132.053%" x2="10.836%" y1="40.295%" y2="15.87%">
            <stop offset="0%" stop-color="#A8C3FF"/>
            <stop offset="100%" stop-color="#6F90FF"/>
        </linearGradient>
        <linearGradient id="g" x1="146.567%" x2="50%" y1="18.3%" y2="100%">
            <stop offset="0%" stop-color="#FFDFC9"/>
            <stop offset="100%" stop-color="#FB9"/>
        </linearGradient>
        <linearGradient id="h" x1="132.053%" x2="10.132%" y1="40.295%" y2="-108.001%">
            <stop offset="0%" stop-color="#A8C3FF"/>
            <stop offset="100%" stop-color="#6F90FF"/>
        </linearGradient>
        <linearGradient id="i" x1="12.843%" x2="64.392%" y1="16.543%" y2="85.163%">
            <stop offset="0%" stop-color="#CB9577"/>
            <stop offset="100%" stop-color="#966060"/>
        </linearGradient>
    </defs>
    <g fill="none" fill-rule="evenodd">
        <mask id="c" fill="#fff">
            <use xlink:href="#a"/>
        </mask>
        <use fill="#DDE5E9" fill-opacity=".433" xlink:href="#a"/>
        <path fill="url(#b)" d="M160.491 61.872C156.26 67.352 148.556 70 139.757 70c-11.241 0-20.692-4.32-23.406-13.347-.452.027-.908.041-1.367.041-11.59 0-20.984-8.936-20.984-19.958 0-11.023 9.395-19.96 20.984-19.96l.083.001C115.977 7.367 124.204 0 134.22 0c5.674 0 10.774 2.364 14.294 6.124C152.814 2.32 158.538 0 164.821 0c13.36 0 24.19 10.49 24.19 23.43 0 .624-.026 1.243-.075 1.856C197.238 28.997 203 37.132 203 46.57 203 59.51 192.17 70 178.81 70c-7.321 0-13.883-3.15-18.319-8.128zM35.77 40.704C33.558 43.6 29.53 45 24.929 45c-5.879 0-10.82-2.283-12.24-7.055-.236.015-.475.022-.715.022C5.913 37.967 1 33.244 1 27.417c0-5.826 4.913-10.55 10.973-10.55h.044C12.492 11.895 16.795 8 22.032 8a10.16 10.16 0 0 1 7.475 3.237A12.755 12.755 0 0 1 38.035 8c6.986 0 12.65 5.545 12.65 12.384 0 .33-.014.658-.04.981C54.987 23.327 58 27.627 58 32.615 58 39.456 52.337 45 45.35 45c-3.828 0-7.26-1.665-9.58-4.296z" mask="url(#c)"/>
        <g mask="url(#c)">
            <path fill="#CCD3DC" d="M157.878 88.326c-24.146-.223-51.59 18.981-66.72 23.634-10.689 3.288-31.595 7.197-62.719 11.726 58.738 26.885 103.142 40.23 133.213 40.033 30.071-.195 47.52-19 52.348-56.412-21.943-12.511-40.65-18.838-56.122-18.98z"/>
            <path fill="#DAE0E6" d="M183.417 128.197c-51.433 79.634-93.863 119.452-127.29 119.452-33.428 0-79.085-41.794-136.973-125.383C-55.644 104.133-28.602 90.643.278 81.797c31.837-9.752 57.272 14.263 109.964 37.412 14.035 6.166 38.426 9.162 73.175 8.988z"/>
        </g>
        <g mask="url(#c)">
            <path fill="url(#d)" d="M27.157 64.666c9.827 4.565 17.08 6.875 21.757 6.93 9.74-.455 29.6-24.978 32.575-28.507-.006-2.88-1.504-4.892-4.495-6.036-16.72 14.487-26.593 20.948-29.618 19.382-3.025-1.566-7.623-5.321-13.794-11.266-3.002 1.71-4.906 3.74-5.713 6.086-.808 2.346-1.045 6.817-.712 13.41z" transform="rotate(-22 191.864 33.023)"/>
            <path fill="url(#e)" d="M.9 4.14h14.274a.9.9 0 0 1 .9.9v11.653a.9.9 0 0 1-.9.9H.9a.9.9 0 0 1-.9-.9V5.04a.9.9 0 0 1 .9-.9z" transform="rotate(-6 674.45 -644.532)"/>
            <path fill="#7C8A9B" d="M87.839 68.469l17.29-1.818a.9.9 0 0 1 .99.801l1.479 14.077a.9.9 0 0 1-.801.99l-17.29 1.816a.9.9 0 0 1-.99-.8l-1.479-14.077a.9.9 0 0 1 .801-.99z"/>
            <path fill="url(#e)" d="M18.011 2.07h17.905a.9.9 0 0 1 .9.9v15.793a.9.9 0 0 1-.9.9H18.01a.9.9 0 0 1-.9-.9V2.97a.9.9 0 0 1 .9-.9z" transform="rotate(-6 674.45 -644.532)"/>
            <path fill="#7C8A9B" d="M107.94 64.537l22.964-2.414a.9.9 0 0 1 .989.801l1.843 17.533a.9.9 0 0 1-.801.99l-22.963 2.413a.9.9 0 0 1-.99-.801l-1.842-17.533a.9.9 0 0 1 .8-.989z"/>
            <path fill="url(#e)" d="M38.753 0h23.351a.9.9 0 0 1 .852.61 31.579 31.579 0 0 1 1.69 10.222c0 3.498-.564 6.927-1.691 10.287a.9.9 0 0 1-.854.614H38.753a.9.9 0 0 1-.9-.9V.9a.9.9 0 0 1 .9-.9z" transform="rotate(-6 674.45 -644.532)"/>
            <g>
                <path fill="#FAB795" d="M42.834 93.4L54.2 98.72c.21 3.767 1.04 7.524 2.489 11.272.941 5.326 1.217 8.804.828 10.433l-9.447 1.663c-3.94-4.903-6.251-9.277-6.93-13.122.703-3.519 1.268-8.707 1.694-15.566z"/>
                <path fill="url(#f)" d="M24.41 31.689a15.643 15.643 0 0 1 14.828 8.202c2.55 4.746 4.108 8.755 4.672 12.027 1.752 10.158.63 11.185.63 23.533 0 8.231.931 21.879 2.793 40.942-5.037 1.877-11.935 2.816-20.697 2.816-8.761 0-17.523-2.095-26.284-6.286 5.143-12.35 8.192-21.961 9.146-28.833.738-5.313 3.168-9.002 3.198-27.25.005-3.274.369-8.257 1.091-14.95A11.457 11.457 0 0 1 24.41 31.69z" transform="translate(23.756 72.974)"/>
                <path fill="url(#g)" d="M76.765 12.829c.438-3.38 1.307-6.197 2.605-8.45 1.948-3.378 8.193-2.615 9.063.58.47 1.727-1.073 3.77-2.605 6.505-.926 1.653-1.78 4.885-3.094 5.33-2.081.705-4.07-.617-5.969-3.965z" transform="scale(-1 1) rotate(-56 56.744 223.831)"/>
                <path fill="url(#h)" d="M27.264 48.378c11.096 5.152 19.285 7.758 24.567 7.819 11-.515 33.429-28.203 36.79-32.188-.007-3.251-1.698-5.522-5.075-6.813-18.884 16.358-30.034 23.653-33.45 21.886-3.415-1.767-8.606-6.005-15.573-12.716-3.39 1.933-5.541 4.223-6.453 6.872-.912 2.65-1.18 7.696-.806 15.14z" transform="rotate(-16 329.357 -11.331)"/>
            </g>
            <g>
                <path fill="url(#g)" d="M27.52 52.273c1.447 1.605 5.403-.184 11.872-5.37l3.57 2.016c.815-5.254 2.209-8.85 4.182-10.786 2.96-2.905 4.647-8.752 4.68-10.96.157-10.392-8.46-18.865-18.87-18.876-10.412-.011-18.843 8.422-18.833 18.836.005 4.795 1.69 9.174 4.127 13.263 2.842 4.769 6.001 8.244 9.273 11.877z" transform="rotate(-48 98.125 35.355)"/>
                <path fill="url(#i)" d="M11.617 26.812l-5.92 1.695a3.429 3.429 0 0 1-4.24-2.35 3.42 3.42 0 0 1 .868-3.363 3.424 3.424 0 0 1-.314-6.01 3.42 3.42 0 0 1-.977-3.396 3.425 3.425 0 0 1 2.204-2.355 3.42 3.42 0 0 1 .255-3.503A3.435 3.435 0 0 1 7.3 6.215a3.421 3.421 0 0 1 1.444-3.164 3.436 3.436 0 0 1 4.753.804A3.43 3.43 0 0 1 16.215.488a3.435 3.435 0 0 1 3.92 2.131 3.433 3.433 0 0 1 6.521 1.608l-.196 5.601c5.762-1.277 12.008.133 16.603 4.46 1.152 1.393 1.975 1.955 3.14 3.987-1.671 2.555-6.316 8.071-11.276 11.196-2.477 1.56-4.67-1.989-7.47.955-.707.612-1.879 2.778-1.277 9.047.204 2.12-.114 4.595-1.439 7.374-2.681-1.159-5.39-3.254-6.936-4.567a18.783 18.783 0 0 1-6.188-15.468z" transform="translate(18 50)"/>
                <path fill="#3E3E3E" d="M29.818 76.703c7.201-3.824 12.072-9.409 14.612-16.757-7.129 2.386-12 7.972-14.612 16.757z"/>
            </g>
        </g>
    </g>
</svg>
