<svg xmlns="http://www.w3.org/2000/svg" width="142" height="138" viewBox="0 0 142 138">
    <defs>
        <linearGradient id="a" x1="105.492%" x2="50%" y1="-31.435%" y2="100%">
            <stop offset="0%" stop-color="#EBE0D8"/>
            <stop offset="100%" stop-color="#D3BDAF"/>
        </linearGradient>
        <linearGradient id="b" x1="153.224%" x2="50%" y1="-83.22%" y2="100%">
            <stop offset="0%" stop-color="#F9EDDD"/>
            <stop offset="100%" stop-color="#F0D7B8"/>
        </linearGradient>
    </defs>
    <g fill="none" fill-rule="evenodd" transform="translate(-2 -30)">
        <circle cx="80.5" cy="98.5" r="63.5" fill="#F7F7F7"/>
        <g transform="rotate(-24 90.142 18.204)">
            <path fill="#8F9EAF" d="M24.29 130.069h69.139a7.077 7.077 0 0 1-7.078 7.077H24.29a3.539 3.539 0 0 1 0-7.077z"/>
            <rect width="6.088" height="137.144" x="20.751" y="2.276" fill="#8F9EAF" rx="3.044"/>
            <path fill="#8F9EAF" d="M4.036 2.129h19.807a3.034 3.034 0 0 1 0 6.069H4.036a3.034 3.034 0 0 1 0-6.069z"/>
            <path fill="#3B4D63" d="M4.146.253H14.97a3.6 3.6 0 0 1 3.6 3.6v2.514a3.6 3.6 0 0 1-3.6 3.6H4.146a3.6 3.6 0 0 1-3.6-3.6V3.853a3.6 3.6 0 0 1 3.6-3.6z"/>
            <path fill="url(#a)" d="M.618.3h66.293v59.221H.618z" transform="translate(26.073 70.485)"/>
            <path fill="#FFF" d="M78.584 75.795h9.781v6.068h-9.781z"/>
            <path fill="#AD9A8E" d="M39.676 114.514v9.743H35.87v-9.743h-2.658l4.445-6.423 4.494 6.423h-2.475z"/>
            <g>
                <path fill="url(#b)" d="M.096.249h30.645v30.546H.096z" transform="translate(26.636 40.204)"/>
                <path fill="#FF9D9D" d="M37.986 40.513h5.992v9.35L40.92 48.17l-2.934 1.695z"/>
            </g>
            <g transform="translate(7.06 116.584)">
                <ellipse cx="17.199" cy="17.143" fill="#3B4D63" rx="17.199" ry="17.143"/>
                <ellipse cx="17.199" cy="17.143" fill="#F6F9FA" rx="8.261" ry="8.234"/>
            </g>
        </g>
    </g>
</svg>
