<svg xmlns="http://www.w3.org/2000/svg" xmlns:xlink="http://www.w3.org/1999/xlink" width="150" height="150" viewBox="0 0 150 150">
    <defs>
        <linearGradient id="b" x1="70.278%" x2="46.837%" y1="-19.824%" y2="27.162%">
            <stop offset="0%" stop-color="#BFECF6"/>
            <stop offset="100%" stop-color="#8AD4E9"/>
        </linearGradient>
        <circle id="a" cx="75" cy="75" r="75"/>
        <linearGradient id="c" x1="50%" x2="50%" y1="100%" y2="0%">
            <stop offset="0%" stop-color="#52C142"/>
            <stop offset="100%" stop-color="#AAF2A2"/>
        </linearGradient>
        <linearGradient id="e" x1="95.217%" x2="35.937%" y1="-70.934%" y2="89.919%">
            <stop offset="0%" stop-color="#FFF"/>
            <stop offset="100%" stop-color="#CEF1FF"/>
        </linearGradient>
        <path id="f" d="M12.694.643h32.065v24.77H.281z"/>
        <linearGradient id="h" x1="142.739%" x2="11.889%" y1="-22.203%" y2="28.583%">
            <stop offset="0%" stop-color="#D4A9E8"/>
            <stop offset="100%" stop-color="#A89BDE"/>
        </linearGradient>
    </defs>
    <g fill="none" fill-rule="evenodd">
        <mask id="d" fill="#fff">
            <use xlink:href="#a"/>
        </mask>
        <use fill="url(#b)" xlink:href="#a"/>
        <path fill="url(#c)" d="M-3.79 56.691c.038-2.43.552-4.747 1.452-6.858A11.79 11.79 0 0 1-7.93 39.797C-7.93 33.282-2.65 28 3.866 28c6.18 0 11.25 4.752 11.755 10.801a18.106 18.106 0 0 1 8.526 2.774 18.126 18.126 0 0 1 9.727-2.813c10.058 0 18.212 8.155 18.212 18.213 3.698 0 7.14 1.103 10.012 2.997 2.915-6.175 9.197-10.447 16.478-10.447.1 0 .2 0 .3.002a18.319 18.319 0 0 1-.3-3.314C78.576 36.154 86.73 28 96.788 28S115 36.154 115 46.213c0 5.656-2.578 10.71-6.623 14.05V129H-10V54.492c2.104.758 4.175 1.491 6.21 2.2z" mask="url(#d)"/>
        <path fill="url(#e)" d="M2.902 79.38H-.844V97h-8.143V79.38h-3.746V97h-8.144V79.38h-4.998V97h-8.143V79.38h-3.746V97h-8.144V79.38h-3.746V97h-8.143V79.38h-3.652V97h-8.143V79.38h-4.436V97h-8.144V79.38h-4.436V97h-8.144V79.38H-100v-7.274h5.248v-5.181a3.24 3.24 0 0 1 1.348-2.63l.832-.599a3.24 3.24 0 0 1 3.784 0l.832.598a3.24 3.24 0 0 1 1.348 2.63v5.182h4.436V67.34a4.05 4.05 0 0 1 1.685-3.288l.351-.253a3.486 3.486 0 0 1 4.072 0l.35.253a4.05 4.05 0 0 1 1.686 3.288v4.766h4.436V67.34a4.05 4.05 0 0 1 1.685-3.288l.35-.253a3.486 3.486 0 0 1 4.073 0l.35.253a4.05 4.05 0 0 1 1.685 3.288v4.766h3.652v-5.181a3.24 3.24 0 0 1 1.348-2.63l.831-.599a3.24 3.24 0 0 1 3.785 0l.832.598a3.24 3.24 0 0 1 1.347 2.63v5.182h3.746V67.34a4.05 4.05 0 0 1 1.685-3.288l.351-.253a3.486 3.486 0 0 1 4.072 0l.351.253a4.05 4.05 0 0 1 1.685 3.288v4.766h3.746V67.34a4.05 4.05 0 0 1 1.684-3.288l.352-.253a3.486 3.486 0 0 1 4.071 0l.351.253a4.05 4.05 0 0 1 1.685 3.288v4.766h4.998v-5.181a3.24 3.24 0 0 1 1.348-2.63l.832-.599a3.24 3.24 0 0 1 3.784 0l.832.598a3.24 3.24 0 0 1 1.348 2.63v5.182h3.746V67.34a4.05 4.05 0 0 1 1.684-3.288l.352-.253a3.486 3.486 0 0 1 4.071 0l.351.253A4.05 4.05 0 0 1-.844 67.34v4.766h3.746V67.34a4.05 4.05 0 0 1 1.685-3.288l.35-.253a3.486 3.486 0 0 1 4.073 0l.35.253a4.05 4.05 0 0 1 1.685 3.288v4.766h5.033v-5.181a3.24 3.24 0 0 1 1.348-2.63l.831-.599a3.24 3.24 0 0 1 3.785 0l.831.598a3.24 3.24 0 0 1 1.348 2.63v5.182h3.746V67.34a4.05 4.05 0 0 1 1.685-3.288l.351-.253a3.486 3.486 0 0 1 4.072 0l.35.253a4.05 4.05 0 0 1 1.686 3.288v4.766h3.746V67.34a4.05 4.05 0 0 1 1.684-3.288l.351-.253a3.486 3.486 0 0 1 4.072 0l.351.253A4.05 4.05 0 0 1 48 67.34V97h-8.143V79.38H36.11V97h-8.144V79.38h-3.746V97h-8.143V79.38h-5.033V97H2.902V79.38z" mask="url(#d)"/>
        <path fill="#7B8A9C" d="M2 87h164v69H2z" mask="url(#d)"/>
        <g mask="url(#d)">
            <g transform="translate(40 38)">
                <path fill="#FFF" d="M6.801 44.484h48.362v13.571H6.801z"/>
                <path fill="#FFF" d="M52.029 80.979c0-8.151-6.622-14.758-14.791-14.758s-14.79 6.607-14.79 14.758H4.917L0 75.899V51.775l17.187-31.769h40.102V80.98h-5.26zm-31.023-56.21L8.593 49.54h44.479V24.77H21.006z"/>
                <path fill="#E3E3E3" d="M0 63.333a4.906 4.906 0 0 0 4.912-4.9c0-2.707-2.2-4.901-4.912-4.901v9.801z"/>
                <g transform="translate(8.312 24.127)">
                    <mask id="g" fill="#fff">
                        <use xlink:href="#f"/>
                    </mask>
                    <use fill="#1B3554" opacity=".296" xlink:href="#f"/>
                    <path fill="#FFF" d="M31.304.643H63.37v24.77H18.89z" mask="url(#g)" opacity=".296" transform="matrix(1 0 0 -1 0 26.056)"/>
                    <path fill="#FFF" d="M39.807-5.799l5.575-.004-.026 37.45-7.733.006z" mask="url(#g)" opacity=".157" transform="scale(1 -1) rotate(19 118.741 0)"/>
                </g>
                <rect width="8.593" height="2.858" x="41.057" y="53.351" fill="#9DA8C6" rx="1.429"/>
                <g transform="translate(24.181 68.611)">
                    <ellipse cx="13.022" cy="13.106" fill="#1B3554" rx="12.676" ry="12.648"/>
                    <ellipse cx="13.022" cy="13.106" fill="#7B8A9C" rx="5.762" ry="5.749"/>
                </g>
                <path fill="#FFF" d="M57.29 0h65.882v80.979H57.289z"/>
                <path fill="url(#h)" d="M57.29 0h65.882v62.877H57.289z"/>
                <text font-family=".SFNSDisplay, .SF NS Display" font-size="39" opacity=".437">
                    <tspan x="72.543" y="44.029" fill="#FFF">DELI</tspan> <tspan x="72.543" y="90.029" fill="#FFF">VER</tspan> <tspan x="72.543" y="136.029" fill="#FFF">Y</tspan>
                </text>
            </g>
        </g>
    </g>
</svg>
