<svg xmlns="http://www.w3.org/2000/svg" xmlns:xlink="http://www.w3.org/1999/xlink" width="136" height="134" viewBox="0 0 136 134">
    <defs>
        <circle id="a" cx="66.5" cy="66.5" r="66.5"/>
        <linearGradient id="b" x1="50%" x2="50%" y1="100%" y2="0%">
            <stop offset="0%" stop-color="#52C142"/>
            <stop offset="100%" stop-color="#AAF2A2"/>
        </linearGradient>
        <linearGradient id="d" x1="50%" x2="26.098%" y1="24.343%" y2="123.378%">
            <stop offset="0%" stop-color="#FFF"/>
            <stop offset="100%" stop-color="#CEF1FF"/>
        </linearGradient>
    </defs>
    <g fill="none" fill-rule="evenodd">
        <g transform="translate(0 1)">
            <mask id="c" fill="#fff">
                <use xlink:href="#a"/>
            </mask>
            <use fill="#70A0AD" xlink:href="#a"/>
            <path fill="url(#b)" d="M.003 47.732c.054-3.535.8-6.902 2.11-9.971-4.88-3.024-8.131-8.428-8.131-14.591 0-9.473 7.679-17.152 17.151-17.152 8.985 0 16.357 6.909 17.092 15.704a26.327 26.327 0 0 1 12.397 4.032 26.356 26.356 0 0 1 14.143-4.089c14.624 0 26.48 11.855 26.48 26.48 5.377 0 10.38 1.603 14.556 4.357 4.238-8.978 13.373-15.19 23.96-15.19.145 0 .291.001.436.004a26.631 26.631 0 0 1-.437-4.818c0-14.625 11.856-26.48 26.48-26.48s26.48 11.855 26.48 26.48c0 8.223-3.749 15.57-9.63 20.427v99.935H-9.027V44.534c3.06 1.102 6.07 2.168 9.03 3.198z" mask="url(#c)"/>
            <g fill="url(#d)" mask="url(#c)">
                <path d="M40.708 91.36h12.359V70.757c0-1.3.624-2.52 1.677-3.282l9.384-6.782a4.05 4.05 0 0 1 4.744 0l9.384 6.782a4.05 4.05 0 0 1 1.677 3.282v20.605h12.359V70.756c0-1.3.624-2.52 1.677-3.282l9.384-6.782a4.05 4.05 0 0 1 4.745 0l9.383 6.782a4.05 4.05 0 0 1 1.677 3.282v20.605h17.853v24.108h-17.853v58.4H92.292v-58.4H79.933v58.4H53.067v-58.4H40.708v58.4H13.842v-58.4H-3.474V91.361h17.316V70.342c0-1.04.499-2.016 1.342-2.626l10.193-7.367a3.24 3.24 0 0 1 3.796 0l10.193 7.367a3.24 3.24 0 0 1 1.342 2.626v21.019z"/>
            </g>
            <path stroke="#5C738E" stroke-dasharray="7,7" stroke-width="3" d="M61.364 144.886c-2.194-2.842-5.43-5.208-9.706-7.099-15.475-4.53-42.652-4.125-52.858-30.6-9.354-24.263 25.151-47.615 34.805-37.39 6.841 7.244-1.927 17.692-14.095 16.518C5.815 84.994-2.28 72.746.42 59.572c5.357-26.131 46.54-43.42 48.276-44.625" mask="url(#c)" transform="rotate(-94 29.285 79.916)"/>
        </g>
        <path fill="#C4D5DF" d="M94.488 40.992h12.91l12.629-25.127z"/>
        <path fill="#D5DFE5" d="M94.509 41.076l.493-11.548 23.877-12.453z"/>
        <path fill="#FFF" d="M135.208.796l-17.206 51.619-11.465-11.465 11.971-23.454-23.45 11.974L83.59 18.002z"/>
    </g>
</svg>
