<svg xmlns="http://www.w3.org/2000/svg" xmlns:xlink="http://www.w3.org/1999/xlink" width="96" height="164" viewBox="0 0 96 164">
    <defs>
        <linearGradient id="a" x1="73.998%" x2="50%" y1="-5.257%" y2="37.607%">
            <stop offset="0%" stop-color="#B03838"/>
            <stop offset="100%" stop-color="#7D3535"/>
        </linearGradient>
        <linearGradient id="b" x1="-7.422%" x2="21.191%" y1="68.953%" y2="68.953%">
            <stop offset="0%" stop-color="#F8966F"/>
            <stop offset="100%" stop-color="#D05950"/>
        </linearGradient>
        <linearGradient id="c" x1="100%" x2="71.372%" y1="59.514%" y2="59.514%">
            <stop offset="0%" stop-color="#FEA684"/>
            <stop offset="100%" stop-color="#E0756D"/>
        </linearGradient>
        <linearGradient id="d" x1="150.568%" x2="50%" y1="-28.914%" y2="50%">
            <stop offset="0%" stop-color="#FFF"/>
            <stop offset="100%" stop-color="#FFAF54"/>
        </linearGradient>
        <linearGradient id="e" x1="50%" x2="0%" y1="13.071%" y2="67.741%">
            <stop offset="0%" stop-color="#C8D5E5"/>
            <stop offset="100%" stop-color="#E9E9E9" stop-opacity=".646"/>
        </linearGradient>
        <path id="f" d="M8.1 0h2.732v2.746a8.1 8.1 0 0 1-8.1 8.1H0V8.1A8.1 8.1 0 0 1 8.1 0z"/>
    </defs>
    <g fill="none" fill-rule="evenodd">
        <g transform="translate(1 83)">
            <path fill="url(#a)" d="M12.143 7.057L57.396.038c7.62-.28 12.717 5.664 12.717 13.881v38.879c0 8.217-5.266 14.647-11.763 14.36L13.194 65.17c-6.497-.286-11.763-6.576-11.763-14.048V20.875c0-7.473 3.627-12.434 10.712-13.818z"/>
            <path fill="url(#a)" d="M13.878 10.852L55.694 4.54c6.853-.252 10.31 3.393 10.31 10.783V50.28c0 7.39-4.736 13.171-10.578 12.914l-40.603-.09C8.98 62.849 4.245 57.194 4.245 50.475V23.276c0-6.719 3.262-11.18 9.633-12.424z" opacity=".269" style="mix-blend-mode:multiply"/>
            <path fill="#7D3535" d="M69.922 19.03l17.135 11.49a14.4 14.4 0 0 1 6.38 11.96v5.346l-22.61-15.152-.905-13.645z"/>
            <path fill="url(#b)" d="M24.548 17.06l47.473-1.663c8.166-.286 14.786 6.144 14.786 14.362l-.563 36.958c0 8.218-7.745 14.08-15.911 13.795l-55.07-1.423C7.097 78.803.477 72.514.477 65.041V31.434c0-.428.022-.853.064-1.273C-.007 17.283 2.805 9.895 8.977 7.996c-3.46 1.937-4.486 3.907-3.08 5.909 2.363 3.364 11.255 3.304 18.651 3.156z"/>
            <path fill="#565656" d="M73.972 41.502c4.49-1.44 7.72-3.01 9.685-4.712 1.966-1.702 3.007-3.826 3.122-6.373v11.085H73.972z" opacity=".2" style="mix-blend-mode:multiply"/>
            <path fill="url(#c)" d="M86.793 39.653a1.994 1.994 0 0 1-.03-.021c6.667-1.62 4.624-5.928 3.547-6.795 1.894 1.217 3.12 4.112 3.12 5.71v.012l.007-.001c.114 1.886.192 3.817.234 5.792.161 7.567-5.572 13.963-13.112 14.626l-3.554.313a8.572 8.572 0 0 1-9.324-8.54c0-5.248 4.014-9.625 9.242-10.08 3.872-.335 7.162-.675 9.87-1.016z"/>
            <ellipse cx="77.459" cy="50.183" fill="url(#d)" rx="5.008" ry="5.04"/>
            <path stroke="#DA6A6A" stroke-dasharray="9" stroke-linecap="round" stroke-width="3" d="M2.017 21.118C3.876 26.414 13.075 27.39 16.5 27.67c3.426.279 63.194 1.103 69.124-3.767M1.452 63.712c1.766 5.328 10.958 5.21 14.378 5.548 3.42.34 63.154 3.464 69.168-1.302"/>
        </g>
        <path stroke="url(#e)" stroke-dasharray="6,15" stroke-linecap="round" stroke-linejoin="round" stroke-width="5" d="M1.68 96.558c-8.791-22.867 23.637-44.875 32.71-35.24 6.428 6.828-1.812 16.674-13.247 15.568C8.273 75.641.664 64.1 3.203 51.683c5.033-24.627 43.737-25.805 45.369-26.94" transform="translate(23 -3)"/>
        <g transform="translate(61.048 -3)">
            <path fill="#CED8E5" d="M17.01 16.775c-.243-6.173-1.18-10.078-2.81-11.712a6.254 6.254 0 0 0-8.862.007c-2.45 2.456-2.452 6.435-.007 8.887 1.63 1.634 5.523 2.574 11.68 2.818zM21.301 20.482c.244 6.173 1.18 10.078 2.81 11.712a6.254 6.254 0 0 0 8.863-.007c2.449-2.456 2.452-6.435.007-8.887-1.63-1.634-5.524-2.574-11.68-2.818z" opacity=".4"/>
            <g transform="translate(14.007 12.617)">
                <mask id="g" fill="#fff">
                    <use xlink:href="#f"/>
                </mask>
                <use fill="#A8B7C5" xlink:href="#f"/>
                <path fill="#DDE5F2" d="M2.288.58L4.001.579l-.018 12.54-1.713.003z" mask="url(#g)" transform="rotate(-45 3.136 6.85)"/>
                <path fill="#DDE5F2" d="M1.524.162l1.21-1.213 8.855 8.88-1.21 1.213z" mask="url(#g)"/>
            </g>
            <path stroke="#8696C5" stroke-width=".9" d="M30.655 9.9l4.161-.993M28.945 8.187l1.601-4.13"/>
            <ellipse cx="26.55" cy="11.475" fill="#8B9AA8" rx="4.561" ry="4.567"/>
        </g>
    </g>
</svg>
