<svg xmlns="http://www.w3.org/2000/svg" xmlns:xlink="http://www.w3.org/1999/xlink" width="184" height="184" viewBox="0 0 184 184">
    <defs>
        <circle id="b" cx="79" cy="68" r="68"/>
        <filter id="a" width="164.7%" height="164.7%" x="-32.4%" y="-22.8%" filterUnits="objectBoundingBox">
            <feOffset dy="13" in="SourceAlpha" result="shadowOffsetOuter1"/>
            <feGaussianBlur in="shadowOffsetOuter1" result="shadowBlurOuter1" stdDeviation="12.5"/>
            <feColorMatrix in="shadowBlurOuter1" values="0 0 0 0 0.226735433 0 0 0 0 0.437054197 0 0 0 0 0.687818878 0 0 0 0.0769927536 0"/>
        </filter>
        <path id="c" d="M6.78 6.794c3.744 0 6.78-3.042 6.78-6.794H0c0 3.752 3.035 6.794 6.78 6.794z"/>
        <path id="e" d="M5.737 5.749A5.743 5.743 0 0 0 11.473 0H0a5.743 5.743 0 0 0 5.737 5.749z"/>
        <path id="g" d="M69.836 28.891c0-10.874-7.56-17.11-18.65-21.854C46.326 4.96 40.791.578 34.917.578c-7.075 0-13.66 4.912-19.16 7.845C6.266 13.483 0 18.99 0 28.89c0 15.637 69.836 15.637 69.836 0z"/>
        <path id="i" d="M9.063 9.082c5.005 0 9.062-4.066 9.062-9.082H0c0 5.016 4.058 9.082 9.063 9.082z"/>
    </defs>
    <g fill="none" fill-rule="evenodd">
        <g transform="translate(13 11)">
            <use fill="#000" filter="url(#a)" xlink:href="#b"/>
            <use fill="#FFF" xlink:href="#b"/>
        </g>
        <g transform="translate(13 52.505)">
            <path fill="#2A3D49" d="M52.244 84.062c0-8.135-5.656-12.8-13.953-16.349-3.634-1.554-7.775-4.831-12.169-4.831-5.293 0-10.219 3.674-14.334 5.868C4.688 72.536 0 76.656 0 84.062c0 11.698 52.244 11.698 52.244 0z"/>
            <path fill="#C4A588" d="M25.524 48.894a6.24 6.24 0 0 1 6.238 6.38l-.18 8.078a6.06 6.06 0 1 1-12.115 0l-.181-8.078a6.24 6.24 0 0 1 6.238-6.38z"/>
            <path fill="#EBCFB6" d="M25.524 9.082c9.04 0 16.367 7.328 16.367 16.367 0 .126-.001.252-.004.378l-.45 19.507c-.2 8.645-7.266 15.55-15.913 15.55-8.648 0-15.713-6.905-15.913-15.55l-.45-19.507C8.95 16.79 16.109 9.295 25.146 9.086c.126-.003.252-.004.378-.004z"/>
            <path fill="#FF9575" d="M9.307 37.564c1.081 7.104 2.367 11.595 3.856 13.474 2.762 3.482 7.342 7.36 12.238 7.36 4.832 0 9.63-3.969 12.432-7.36 1.556-1.884 2.859-6.375 3.908-13.474l-.37 19.521c-.163 8.636-7.21 15.55-15.847 15.55S9.839 65.722 9.676 57.086l-.37-19.52z"/>
            <ellipse cx="25.589" cy="63.036" fill="#FF9575" rx="7.997" ry="8.013"/>
            <ellipse cx="8.973" cy="34.707" fill="#EBCFB6" rx="3.39" ry="3.797"/>
            <ellipse cx="42.074" cy="34.707" fill="#EBCFB6" rx="3.39" ry="3.797"/>
            <path fill="#81685D" d="M18.769 31.44a2.368 2.368 0 0 1 2.368 2.369v.148a.58.58 0 0 1-.898.484c-.49-.323-.985-.484-1.482-.484-.5 0-1.001.163-1.501.49a.585.585 0 0 1-.905-.49v-.099a2.418 2.418 0 0 1 2.418-2.417z"/>
            <g transform="translate(18.744 47.7)">
                <mask id="d" fill="#fff">
                    <use xlink:href="#c"/>
                </mask>
                <use fill="#372C28" xlink:href="#c"/>
                <path fill="#D96B70" d="M6.78 10.79c3.744 0 6.78-3.042 6.78-6.794H0c0 3.752 3.035 6.794 6.78 6.794z" mask="url(#d)" transform="matrix(1 0 0 -1 0 14.787)"/>
                <path fill="#FFF" d="M6.78 1.199a4.391 4.391 0 0 0 4.387-4.396H2.393A4.391 4.391 0 0 0 6.78 1.199z" mask="url(#d)" transform="matrix(1 0 0 -1 0 -1.998)"/>
            </g>
            <path fill="#A5725C" d="M25.324 34.238c.574 0 1.063.418 1.153.985l.7 4.442a1.875 1.875 0 0 1-1.853 2.166 1.875 1.875 0 0 1-1.852-2.166l.7-4.442c.09-.567.578-.985 1.152-.985z" opacity=".2"/>
            <path fill="#81685D" d="M32.328 31.44a2.368 2.368 0 0 1 2.368 2.369v.148a.58.58 0 0 1-.897.484c-.491-.323-.985-.484-1.483-.484-.5 0-1 .163-1.5.49a.585.585 0 0 1-.905-.49v-.099a2.418 2.418 0 0 1 2.417-2.417z"/>
            <path fill="#FF9575" d="M22.086 14.546c-1.412-1.717-1.481-4.726 1.411-7.17C26.39 4.934 24.828.71 22.086.664c-2.743-.047 7.406-1.935 8.512 7.185 1.106 9.12-7.1 8.414-8.512 6.698zM26.205 42.993c1.47-1.121 4.05-1.176 6.143 1.12 2.094 2.297 5.713 1.057 5.753-1.12.04-2.178 1.659 5.88-6.157 6.758-7.816.879-7.21-5.638-5.74-6.758z"/>
            <path fill="#FF9575" d="M24.569 42.993c-1.472-1.121-4.05-1.176-6.144 1.12-2.094 2.297-5.713 1.057-5.753-1.12-.04-2.178-1.659 5.88 6.157 6.758 7.816.879 7.21-5.638 5.74-6.758z"/>
        </g>
        <g transform="translate(116.955 57.847)">
            <path fill="#FFDD8D" d="M4.798 28.313h40.516v45.408H4.798z"/>
            <path fill="#8897F8" d="M52.244 78.72c0-8.135-5.656-12.8-13.953-16.349-2.003-.856-2.56-1.168-4.829-2.234-1.847-.869 2.395 6.332-7.34 6.332s-6.997-6.694-9.036-5.796c-2.873 1.265-2.891 1.452-5.298 2.735C4.688 67.194 0 71.314 0 78.72c0 11.698 52.244 11.698 52.244 0z"/>
            <ellipse cx="25.322" cy="67.043" fill="#6479FF" rx="11.462" ry="11.485"/>
            <path fill="#F2DDCA" d="M25.524 43.552a6.24 6.24 0 0 1 6.238 6.38l-.18 8.078a6.06 6.06 0 0 1-12.115 0l-.181-8.078a6.24 6.24 0 0 1 6.238-6.38z"/>
            <path fill="#FFEBD8" d="M25.49 13.205h.067c8.627 0 15.621 6.994 15.621 15.622 0 .353-.012.705-.036 1.057l-.96 14.166a8 8 0 0 1-1.978 4.746c-3.96 4.497-8.186 6.745-12.68 6.745s-8.72-2.248-12.68-6.745a8 8 0 0 1-1.978-4.746l-.96-14.166c-.585-8.608 5.92-16.059 14.528-16.643.351-.024.704-.036 1.057-.036z"/>
            <path fill="#A5725C" d="M25.324 33.17c.41 0 .756.3.814.706l.533 3.73a1.36 1.36 0 0 1-1.347 1.552 1.36 1.36 0 0 1-1.347-1.553l.533-3.73a.822.822 0 0 1 .814-.705z" opacity=".2"/>
            <path fill="#81685D" d="M32.328 26.633A2.368 2.368 0 0 1 34.696 29v.148a.58.58 0 0 1-.897.484c-.491-.323-.985-.484-1.483-.484-.5 0-1 .163-1.5.49a.585.585 0 0 1-.905-.49v-.098a2.418 2.418 0 0 1 2.417-2.418z"/>
            <g fill="#81685D">
                <path d="M15.234 31.899c1.3-.942 2.442-1.412 3.43-1.412.986 0 1.973.524 2.96 1.572a.855.855 0 0 1-1.294.735c-.557-.332-1.118-.498-1.682-.498-.491 0-1.016.19-1.573.573a1.176 1.176 0 0 1-1.841-.97z"/>
                <path d="M14.02 30.697c.418 1.361 1.195 2.15 2.33 2.364.673-.47.415-2.024-.492-1.574-.468.232-1.08-.031-1.838-.79z"/>
            </g>
            <g fill="#81685D">
                <path d="M34.878 31.899c-1.3-.942-2.443-1.412-3.43-1.412-.986 0-1.973.524-2.96 1.572a.855.855 0 0 0 1.293.735c.558-.332 1.118-.498 1.683-.498.491 0 1.015.19 1.572.573a1.176 1.176 0 0 0 1.842-.97z"/>
                <path d="M36.092 30.697c-.418 1.361-1.195 2.15-2.33 2.364-.673-.47-.416-2.024.491-1.574.468.232 1.081-.031 1.839-.79z"/>
            </g>
            <path fill="#FFDD8D" d="M27.748 29.031c6.392 4.475 14.193 6.504 16.079 4.453 1.886-2.051-.399-20.11-6.79-24.585-6.391-4.475-12.743-5.575-16.887-1.505-4.143 4.07 1.207 17.163 7.598 21.637z"/>
            <g transform="translate(19.77 42.322)">
                <mask id="f" fill="#fff">
                    <use xlink:href="#e"/>
                </mask>
                <use fill="#372C28" xlink:href="#e"/>
                <path fill="#D96B70" d="M5.737 9.13a5.743 5.743 0 0 0 5.736-5.748H0A5.743 5.743 0 0 0 5.737 9.13z" mask="url(#f)" transform="matrix(1 0 0 -1 0 12.512)"/>
                <path fill="#FFF" d="M5.737 1.014a3.716 3.716 0 0 0 3.712-3.72H2.025a3.716 3.716 0 0 0 3.712 3.72z" mask="url(#f)" transform="matrix(1 0 0 -1 0 -1.69)"/>
            </g>
            <path fill="#FFDD8D" d="M40.6 28.722v20.322c5.713-10.208 6.549-20.638 2.508-31.29-5.026-11.411-5.862-7.755-2.509 10.968zM21.963 16.332c-7.643 6.766-11.503 11.73-11.58 14.892-.078 3.163-.04 8.607.115 16.333-4.502-7.003-6.439-14.047-5.81-21.132C5.63 15.798 13.71 6.248 22.8 5.292c6.061-.638 5.781 3.042-.838 11.04z"/>
        </g>
        <g transform="translate(56.181 29)">
            <g transform="translate(0 80.621)">
                <mask id="h" fill="#fff">
                    <use xlink:href="#g"/>
                </mask>
                <use fill="#69DC8F" xlink:href="#g"/>
                <path fill="#62D186" d="M45.516 29.29l3.823.693 4.475-.748a3 3 0 0 1 3.494 2.959v8.781a3 3 0 0 1-3 3h-9.326a3 3 0 0 1-3-3v-8.732a3 3 0 0 1 3.534-2.952z" mask="url(#h)"/>
            </g>
            <path fill="#866E57" d="M34.119 62.502a8.341 8.341 0 0 1 8.338 8.528l-.241 10.798a8.1 8.1 0 1 1-16.195 0L25.78 71.03a8.341 8.341 0 0 1 8.339-8.528z"/>
            <path fill="#93775E" d="M11.728 24.04h44.78l-.989 33.706c-.34 11.575-9.82 20.782-21.4 20.782-11.58 0-21.062-9.207-21.401-20.782l-.99-33.707z"/>
            <ellipse cx="11.995" cy="43.538" fill="#93775E" rx="4.531" ry="5.075"/>
            <ellipse cx="56.242" cy="43.538" fill="#93775E" rx="4.531" ry="5.075"/>
            <path fill="#5A4840" d="M25.089 40.6a3.165 3.165 0 0 1 3.165 3.165v.198a.774.774 0 0 1-1.2.647c-.656-.432-1.316-.647-1.981-.647-.669 0-1.338.218-2.007.654a.782.782 0 0 1-1.209-.654v-.131A3.232 3.232 0 0 1 25.09 40.6z"/>
            <g transform="translate(25.056 58.763)">
                <mask id="j" fill="#fff">
                    <use xlink:href="#i"/>
                </mask>
                <use fill="#372C28" xlink:href="#i"/>
                <path fill="#D96B70" d="M9.063 14.424c5.005 0 9.062-4.066 9.062-9.082H0c0 5.016 4.058 9.082 9.063 9.082z" mask="url(#j)" transform="matrix(1 0 0 -1 0 19.766)"/>
                <path fill="#FFF" d="M9.063 1.603c3.238 0 5.864-2.631 5.864-5.877H3.199c0 3.246 2.625 5.877 5.864 5.877z" mask="url(#j)" transform="matrix(1 0 0 -1 0 -2.671)"/>
            </g>
            <path fill="#482222" d="M33.852 44.34c.767 0 1.42.558 1.54 1.316l.936 5.937a2.506 2.506 0 0 1-2.476 2.896 2.506 2.506 0 0 1-2.476-2.896l.936-5.937a1.56 1.56 0 0 1 1.54-1.317z" opacity=".2"/>
            <path fill="#5A4840" d="M43.214 40.6a3.165 3.165 0 0 1 3.166 3.165v.198a.774.774 0 0 1-1.2.647c-.656-.432-1.317-.647-1.982-.647-.669 0-1.337.218-2.006.654a.782.782 0 0 1-1.21-.654v-.131a3.232 3.232 0 0 1 3.232-3.232z"/>
            <ellipse cx="13.061" cy="25.909" fill="#272D35" rx="4.531" ry="4.541"/>
            <ellipse cx="13.061" cy="20.033" fill="#272D35" rx="4.531" ry="4.541"/>
            <ellipse cx="16.793" cy="13.622" fill="#272D35" rx="8.263" ry="8.28"/>
            <ellipse cx="24.256" cy="9.349" fill="#272D35" rx="8.263" ry="8.28"/>
            <ellipse cx="25.855" cy="15.225" fill="#272D35" rx="8.263" ry="8.28"/>
            <ellipse cx="33.852" cy="8.28" fill="#272D35" rx="8.263" ry="8.28"/>
            <ellipse cx="39.716" cy="13.088" fill="#272D35" rx="8.263" ry="8.28"/>
            <ellipse cx="45.047" cy="8.814" fill="#272D35" rx="8.263" ry="8.28"/>
            <ellipse cx="51.444" cy="14.156" fill="#272D35" rx="8.263" ry="8.28"/>
            <path fill="#272D35" d="M10.662 25.108h2.666V43.27l-2.133-4.274zM55.443 25.108h2.665l-.533 13.89-2.132 4.273z"/>
            <ellipse cx="17.859" cy="22.17" fill="#272D35" rx="4.531" ry="4.541"/>
            <ellipse cx="22.657" cy="24.306" fill="#272D35" rx="4.531" ry="4.541"/>
            <ellipse cx="29.587" cy="23.238" fill="#272D35" rx="4.531" ry="4.541"/>
            <ellipse cx="36.517" cy="21.635" fill="#272D35" rx="4.531" ry="4.541"/>
            <ellipse cx="42.382" cy="24.306" fill="#272D35" rx="4.531" ry="4.541"/>
            <ellipse cx="48.246" cy="22.17" fill="#272D35" rx="4.531" ry="4.541"/>
            <ellipse cx="54.643" cy="24.841" fill="#272D35" rx="4.531" ry="4.541"/>
            <ellipse cx="55.709" cy="20.033" fill="#272D35" rx="4.531" ry="4.541"/>
        </g>
    </g>
</svg>
