<svg xmlns="http://www.w3.org/2000/svg" xmlns:xlink="http://www.w3.org/1999/xlink" width="104" height="207" viewBox="0 0 104 207">
    <defs>
        <linearGradient id="a" x1="192.181%" x2="124.295%" y1="72.329%" y2="0%">
            <stop offset="0%" stop-color="#9CBCFF"/>
            <stop offset="100%" stop-color="#6386FF"/>
        </linearGradient>
        <ellipse id="c" cx="6.733" cy="6.717" rx="6.205" ry="6.184"/>
        <filter id="b" width="220.9%" height="221.3%" x="-60.4%" y="-36.4%" filterUnits="objectBoundingBox">
            <feOffset dy="3" in="SourceAlpha" result="shadowOffsetOuter1"/>
            <feGaussianBlur in="shadowOffsetOuter1" result="shadowBlurOuter1" stdDeviation="2"/>
            <feColorMatrix in="shadowBlurOuter1" values="0 0 0 0 1 0 0 0 0 0.658537492 0 0 0 0 0.386284722 0 0 0 0.328662817 0"/>
        </filter>
        <linearGradient id="d" x1="50%" x2="50%" y1="-27.97%" y2="100%">
            <stop offset="0%" stop-color="#D4D4D4"/>
            <stop offset="100%" stop-color="#B5B5B5"/>
        </linearGradient>
    </defs>
    <g fill="none" fill-rule="evenodd">
        <path fill="#1B3554" d="M22.839 114H57.16L59 202h-7.718l-10.67-76.257L27.804 202H21z"/>
        <path fill="#FFAE75" d="M18.974 103.198l4.05 1.398a3.077 3.077 0 0 1 1.905 3.908 3.069 3.069 0 0 1-3.903 1.904l-4.049-1.398a3.077 3.077 0 0 1-1.906-3.908 3.069 3.069 0 0 1 3.903-1.904z"/>
        <g transform="translate(25 13)">
            <path fill="#FFAE75" d="M18.53 37.547l2.745 10.21H7.549V13.687c0-6.476 5.25-11.726 11.726-11.726A12.782 12.782 0 0 1 32.01 13.645l.508 5.888 3.602 6.622-3.422.255.3 2.468a8 8 0 0 1-8.313 8.954l-6.155-.285z"/>
            <ellipse cx="8.922" cy="18.798" fill="#AB5C5C" rx="8.922" ry="12.795"/>
            <path fill="#AB5C5C" d="M22.647 20.145c7.58 0 13.726-4.372 13.726-9.765 0-5.393-2.531-2.367-12.25-8.481-7.441-4.68-16.257 2.28-18.604 5.27-1.105 1.406 3.403 1.485 3.403 3.211 0 5.393 6.145 9.765 13.725 9.765z"/>
            <path fill="#AB5C5C" d="M6.58 9.204c.463-.712 1.411-1.476 2.845-2.293 1.433-.816 2.867-1.408 4.3-1.775v27.688H7.55l-1.87-4.082-.891-10.43L6.58 9.204zM35.433 3.511c1.147 1.874 3.558 8.423-1.68 12.53-3.49 2.738-4.972.317-4.444-7.264 2.963 0 5.005-1.755 6.124-5.266z"/>
        </g>
        <path fill="url(#a)" d="M43.5 57c8.015 0 14.513 6.498 14.513 14.513 0 .53-.029 1.06-.087 1.587l-.69 6.279L63 116H24l2.398-42.828C26.906 64.098 34.412 57 43.5 57z" transform="translate(-3 -2)"/>
        <path fill="#3F3F3F" d="M78.875 58.548L84.7 61.51A3 3 0 0 0 89 59.425l4.013-20.062a3 3 0 0 0-2.426-3.544l-6.56-1.144A3 3 0 0 0 80.56 37.1l-3.277 18.244a3 3 0 0 0 1.592 3.204z"/>
        <path fill="#E7F6FF" d="M78.662 56.335l7.666 3.768 4.586-22.067-8.68-1.708z"/>
        <path fill="#FFAE75" d="M91.65 47.117l1.472 1.688a7.294 7.294 0 0 1 .64 8.739l-1.383 2.153a3.786 3.786 0 0 1-4.355 1.554 2.546 2.546 0 0 1-1.505-3.531l5.13-10.603z"/>
        <path fill="#FFAE75" d="M87.04 49.326a.619.619 0 0 1 .943.263l1.949 4.787a1.659 1.659 0 0 1-.823 2.123 1.19 1.19 0 0 1-1.685-.869l-.887-5.039c-.085-.483.11-.972.503-1.265z"/>
        <path fill="#6386FF" fill-rule="nonzero" d="M46.52 71.506c4.523 11.26 12.409 15.144 24.666 14.566 13.182-.623 19.31-12.152 20.933-25.374l-5.84-.523c-1.128 9.188-4.592 16.027-13.45 16.445-8.25.39-15.994-5.68-19.256-13.8-2.154-.654-4.083.067-5.785 2.163-1.702 2.097-2.125 4.27-1.268 6.523z"/>
        <g transform="translate(87 29)">
            <use fill="#000" filter="url(#b)" xlink:href="#c"/>
            <use fill="#FFC063" xlink:href="#c"/>
        </g>
        <path fill="#FFF" d="M93.385 36.189l-.157-2.343c-.03-.457-.044-.785-.044-.983 0-.271.071-.482.213-.634a.731.731 0 0 1 .56-.227c.28 0 .468.097.563.29.094.195.141.474.141.84 0 .215-.011.433-.034.655l-.21 2.412c-.023.287-.072.507-.147.66a.384.384 0 0 1-.372.23c-.176 0-.298-.074-.367-.223-.068-.148-.117-.374-.146-.677zm.543 3.219a.77.77 0 0 1-.521-.194c-.149-.129-.223-.309-.223-.54 0-.202.071-.374.213-.516a.708.708 0 0 1 .52-.213c.206 0 .382.07.527.213a.695.695 0 0 1 .217.516c0 .228-.073.407-.22.538a.749.749 0 0 1-.513.196z"/>
        <path fill="#6386FF" fill-rule="nonzero" d="M32.51 55.419C17.001 62.458 2.732 74.894 1.065 84.966c-1.882 11.375 4.487 20.612 17.06 24.566l1.8-6.205C11.263 100.602 8.39 93.311 9.537 86.373c1.062-6.415 9.843-9.98 22.972-15.939V55.419z"/>
        <path fill="#6386FF" d="M21 202h14.194L41 207H21zM52 202h14.194L72 207H52z"/>
        <g fill="url(#d)" transform="rotate(-5 29.18 -609.085)">
            <rect width="2.849" height="7.852" rx="1.425"/>
            <path d="M14.994 5.762a1.43 1.43 0 0 1 0 2.019l-3.525 3.533a1.423 1.423 0 0 1-2.015 0 1.43 1.43 0 0 1 0-2.019l3.526-3.533a1.423 1.423 0 0 1 2.014 0zM22.08 18.56c0 .789-.64 1.428-1.428 1.428h-4.98a1.428 1.428 0 1 1 0-2.855h4.98c.789 0 1.428.639 1.428 1.427z"/>
        </g>
    </g>
</svg>
