<svg xmlns="http://www.w3.org/2000/svg" width="17" height="21" viewBox="0 0 17 21">
    <path fill="#0C133E" fill-rule="evenodd" d="M8.413 21a4.375 4.375 0 0 1-2.187-.586.874.874 0 1 1 .875-1.513 2.625 2.625 0 0 0 3.874-1.748 1.75 1.75 0 0 1 1.75-1.417H15.2l-.604-2.412a.875.875 0 0 1 0-.21v-5.01a6.26 6.26 0 0 0-5.711-6.347 6.124 6.124 0 0 0-6.534 6.12v5.245c.009.07.009.14 0 .21l-.603 2.413H8.5a.874.874 0 1 1 0 1.749H1.748A1.75 1.75 0 0 1 .05 15.326l.577-2.308V7.886A7.867 7.867 0 0 1 9.025.018a8.01 8.01 0 0 1 7.347 8.086V13l.577 2.308a1.748 1.748 0 0 1-1.697 2.168h-2.475A4.373 4.373 0 0 1 8.413 21z"/>
</svg>
