<svg xmlns="http://www.w3.org/2000/svg" width="29" height="30" viewBox="0 0 29 30">
    <path fill="#F5B300" fill-rule="nonzero" d="M14.364 29.63C6.431 29.63 0 23.08 0 15 0 6.92 6.431.37 14.364.37 22.297.37 28.728 6.92 28.728 15c0 8.08-6.43 14.63-14.364 14.63zM10.467 7.524c-.045.046-.045.046.136-.092-.136.507-.272 1.061-.408 1.569-.045.092 0 .138.09.138.363.093.771.185 1.18.324.407.138.633.553.543.923-.544 2.4-1.133 4.753-1.722 7.107-.045.323-.317.508-.68.416a7.77 7.77 0 0 1-.997-.231c-.136 0-.18 0-.226.138-.136.37-.317.785-.499 1.2-.09.185-.136.323-.226.508 1.087.277 2.13.554 3.172.83 0 .093-.046.14-.046.185-.226.739-.407 1.524-.589 2.308-.045.092-.045.139.09.185a14.5 14.5 0 0 1 1.36.323c.136.046.136 0 .182-.092.09-.416.226-.831.317-1.247.09-.415.226-.83.317-1.246.408.093.77.185 1.133.277.09.046.045.092.045.185-.226.738-.408 1.523-.589 2.307-.045.093-.045.139.09.185.408.092.862.23 1.27.323.226.092.226.046.271-.138.182-.739.363-1.523.544-2.262.045-.138.136-.184.272-.138.906.138 1.812.23 2.764.092a2.8 2.8 0 0 0 1.858-1.015c.408-.508.634-1.062.815-1.708.136-.508.182-1.062.091-1.57-.181-.645-.544-1.153-1.087-1.569-.182-.138-.363-.23-.544-.369.09 0 .136-.046.181-.046.363-.138.725-.323.997-.6.362-.37.544-.83.68-1.338.18-.739.136-1.477-.272-2.17a3.872 3.872 0 0 0-1.178-1.107l-1.496-.693c-.136-.046-.181-.092-.136-.23.09-.231.136-.462.182-.693.136-.554.271-1.107.407-1.707-.045 0-.045-.047-.09-.047-.499-.138-.952-.23-1.405-.369-.09-.046-.136 0-.136.093l-.136.553c-.181.6-.317 1.154-.453 1.754-.045.046-.09.139-.136.139-.362-.093-.77-.185-1.133-.277.046-.093.046-.139.046-.185.18-.738.362-1.523.543-2.261.046-.093.046-.139-.09-.185-.453-.092-.861-.185-1.314-.323-.136-.046-.182 0-.227.138-.181.785-.362 1.523-.544 2.308-.045.139-.09.185-.226.139-.499-.139-.997-.231-1.495-.37-.499-.138-.997-.23-1.496-.369zm2.311 11.4c.181-.692.317-1.338.499-1.985.09-.461.226-.876.317-1.338.045-.138.045-.185.181-.138.906.184 1.858.369 2.673.83.363.231.725.462.952.831.498.739.136 1.892-.725 2.17-.498.184-.997.184-1.54.138-.77-.046-1.541-.277-2.266-.462 0 0-.046-.046-.09-.046zm3.806-4.708c-.725 0-1.314-.138-1.993-.23-.182-.047-.318-.093-.499-.139-.09-.046-.136-.092-.09-.184.271-.97.498-1.893.725-2.862.045-.138.09-.185.226-.138.68.184 1.314.323 1.949.6.407.184.815.461 1.042.876.453.785 0 1.8-.861 1.985a2.91 2.91 0 0 1-.499.092z"/>
</svg>
