<svg xmlns="http://www.w3.org/2000/svg" width="21" height="18" viewBox="0 0 21 18">
    <path fill="#FFF" fill-rule="evenodd" d="M17.209 11H7.706c-1.286 0-2.39-.885-2.625-2.105L3.844 2.423a.883.883 0 0 0-.89-.704H.89c-.492 0-.89-.385-.89-.86C0 .385.398 0 .89 0h2.082c1.286 0 2.39.885 2.625 2.105l1.237 6.472a.883.883 0 0 0 .89.704h9.494a.883.883 0 0 0 .89-.704l1.12-5.844a.838.838 0 0 0-.196-.71.903.903 0 0 0-.693-.304H8.009c-.492 0-.89-.385-.89-.86 0-.474.398-.859.89-.859h10.32c.795 0 1.547.34 2.055.93.507.59.716 1.367.57 2.12l-1.12 5.845c-.236 1.22-1.34 2.105-2.625 2.105zM12 15a3 3 0 0 0-3-3 1 1 0 1 0 0 2 1 1 0 1 1-1 1 1 1 0 1 0-2 0 3 3 0 0 0 6 0zm5 2a1 1 0 0 0-1-1 1 1 0 1 1 1-1 1 1 0 1 0 2 0 3 3 0 1 0-3 3 1 1 0 0 0 1-1z"/>
</svg>
