<svg xmlns="http://www.w3.org/2000/svg" width="24" height="24" viewBox="0 0 24 24">
    <defs>
        <linearGradient id="a" x1="0%" y1="0%" y2="100%">
            <stop offset="0%" stop-color="#66A6FF"/>
            <stop offset="100%" stop-color="#89F7FE"/>
        </linearGradient>
    </defs>
    <path fill="url(#a)" fill-rule="evenodd" d="M108.811 58.151c-.001-.68-.13-1.15.445-1.516a1.974 1.974 0 0 1 1.893-.147 9.335 9.335 0 0 0 11.657-3.382 9.332 9.332 0 0 0-1.54-12.038 9.336 9.336 0 0 0-12.133-.339 9.332 9.332 0 0 0-2.21 11.933 1.333 1.333 0 0 1-2.308 1.333 11.998 11.998 0 0 1-1.467-7.893 12 12 0 0 1 22.167-4.233 11.998 11.998 0 0 1-1.038 13.741 12.003 12.003 0 0 1-13.274 3.705l-2.192-1.164zm5.808-6.543l5.076-5.386a1.407 1.407 0 0 0-.067-1.828 1.216 1.216 0 0 0-1.722-.07l-4.175 4.43-1.637-1.737a1.216 1.216 0 0 0-1.722.07 1.407 1.407 0 0 0-.067 1.828l2.538 2.693a1.218 1.218 0 0 0 1.789 0h-.013z" transform="translate(-103 -36)"/>
</svg>
