<svg xmlns="http://www.w3.org/2000/svg" width="84" height="84" viewBox="0 0 84 84">
    <defs>
        <linearGradient id="a" x1="0%" y1="0%" y2="100%">
            <stop offset="0%" stop-color="#66A6FF"/>
            <stop offset="100%" stop-color="#89F7FE"/>
        </linearGradient>
    </defs>
    <path fill="url(#a)" fill-rule="evenodd" d="M750.183 425c-19.19.083-35.995-12.853-40.826-31.426-4.832-18.573 3.54-38.058 20.338-47.337 16.798-9.279 37.749-5.991 50.897 7.987 13.149 13.979 15.15 35.092 4.863 51.292a3.486 3.486 0 1 1-5.89-3.73c9.51-15.115 6.057-34.973-7.997-45.99-14.054-11.018-34.161-9.631-46.57 3.212-12.407 12.844-13.1 32.988-1.605 46.654 11.496 13.666 31.46 16.432 46.238 6.407a3.49 3.49 0 1 1 3.904 5.785A41.822 41.822 0 0 1 750.183 425zm12.768-29.032a3.508 3.508 0 0 0 0-5.003l-9.738-9.616v-19.8c0-1.96-1.614-3.549-3.606-3.549-1.992 0-3.607 1.589-3.607 3.548v22.746l11.866 11.674a3.649 3.649 0 0 0 5.085 0z" transform="translate(-708 -341)"/>
</svg>
