<svg xmlns="http://www.w3.org/2000/svg" width="45" height="46" viewBox="0 0 45 46">
    <path fill="#FFF" fill-rule="nonzero" d="M22.29 45.148C9.98 45.148 0 35.104 0 22.714S9.98.28 22.29.28c12.309 0 22.288 10.044 22.288 22.434S34.6 45.148 22.29 45.148zM16.241 11.25c-.07.07-.07.07.211-.142-.21.779-.422 1.628-.633 2.406-.07.142 0 .213.14.213.563.141 1.196.283 1.83.495.632.212.983.85.843 1.415-.844 3.68-1.758 7.29-2.672 10.899-.07.495-.492.778-1.055.637a12.179 12.179 0 0 1-1.547-.354c-.21 0-.28 0-.351.212-.211.566-.492 1.203-.774 1.84-.14.283-.21.496-.351.779 1.687.424 3.305.849 4.922 1.274 0 .141-.07.212-.07.283-.352 1.132-.633 2.335-.915 3.538-.07.142-.07.212.14.283.704.142 1.407.283 2.11.496.211.07.211 0 .282-.142.14-.637.351-1.274.492-1.91.14-.638.351-1.275.492-1.912.633.142 1.195.284 1.758.425.14.07.07.142.07.283-.352 1.132-.633 2.336-.914 3.539-.07.141-.07.212.14.283.633.141 1.337.354 1.97.495.35.142.35.07.421-.212.282-1.133.563-2.336.844-3.468.07-.212.21-.283.422-.212 1.406.212 2.812.354 4.289.141 1.125-.141 2.11-.637 2.883-1.557.633-.778.984-1.627 1.265-2.618.211-.779.282-1.628.141-2.406-.281-.991-.844-1.77-1.688-2.406-.28-.213-.562-.354-.843-.567.14 0 .21-.07.281-.07.563-.213 1.125-.496 1.547-.92.562-.566.844-1.274 1.055-2.053.28-1.132.21-2.264-.422-3.326a5.98 5.98 0 0 0-1.828-1.698l-2.32-1.062c-.212-.07-.282-.141-.212-.354.14-.353.211-.707.282-1.061.21-.85.421-1.699.632-2.619-.07 0-.07-.07-.14-.07-.774-.213-1.477-.354-2.18-.567-.14-.07-.21 0-.21.142l-.212.85c-.281.92-.492 1.768-.703 2.688-.07.071-.14.213-.21.213-.563-.142-1.196-.283-1.759-.425a.538.538 0 0 0 .07-.283c.282-1.132.563-2.335.844-3.468.07-.141.07-.212-.14-.283a21.355 21.355 0 0 1-2.04-.495c-.21-.07-.28 0-.35.212-.282 1.203-.563 2.336-.845 3.539-.07.212-.14.283-.351.212-.774-.212-1.547-.354-2.32-.566-.774-.212-1.547-.354-2.32-.566zm3.586 17.48c.281-1.062.492-2.053.774-3.043.14-.708.351-1.345.492-2.053.07-.212.07-.283.281-.212 1.406.283 2.883.566 4.148 1.274.563.354 1.125.708 1.477 1.274.773 1.132.21 2.901-1.125 3.326-.773.283-1.547.283-2.39.212-1.196-.07-2.391-.424-3.516-.708 0 0-.07-.07-.14-.07zm5.906-7.219c-1.125 0-2.039-.212-3.093-.354-.282-.07-.493-.141-.774-.212-.14-.07-.21-.141-.14-.283.421-1.486.773-2.902 1.125-4.388.07-.212.14-.283.351-.212 1.055.283 2.04.495 3.024.92.632.283 1.265.708 1.617 1.345.703 1.203 0 2.76-1.336 3.043-.281.07-.633.141-.774.141z"/>
</svg>
