<svg xmlns="http://www.w3.org/2000/svg" width="58" height="77" viewBox="0 0 58 77">
    <defs>
        <linearGradient id="a" x1="0%" y1="0%" y2="100%">
            <stop offset="0%" stop-color="#66A6FF"/>
            <stop offset="100%" stop-color="#89F7FE"/>
        </linearGradient>
    </defs>
    <path fill="url(#a)" fill-rule="evenodd" d="M831.333 276h-32.222a3.215 3.215 0 0 1-3.222-3.208 3.215 3.215 0 0 1 3.222-3.209h32.222a3.215 3.215 0 0 0 3.223-3.208v-45.462a3.201 3.201 0 0 0-.935-2.278l-12.341-12.288a3.23 3.23 0 0 0-2.288-.93h-26.325a3.215 3.215 0 0 0-3.223 3.208v64.167a3.215 3.215 0 0 1-3.222 3.208 3.215 3.215 0 0 1-3.222-3.208v-64.167c0-5.316 4.328-9.625 9.667-9.625h26.325a9.688 9.688 0 0 1 6.831 2.823l12.341 12.288a9.604 9.604 0 0 1 2.836 6.802v45.462c0 2.553-1.018 5-2.831 6.806a9.688 9.688 0 0 1-6.836 2.819zm-21.287-40.952a3.266 3.266 0 0 0 0-4.614l-4.629-4.647a3.29 3.29 0 0 0-4.456.172 3.265 3.265 0 0 0-.172 4.442l4.628 4.647a3.29 3.29 0 0 0 4.629 0zm13.03 14.028a3.179 3.179 0 0 0 0-4.483l-4.483-4.482a3.179 3.179 0 1 0-4.482 4.482l4.482 4.483a3.179 3.179 0 0 0 4.483 0zm-18.4-.204l4.548-4.548a3.226 3.226 0 0 0-4.548-4.548l-4.548 4.548a3.226 3.226 0 1 0 4.548 4.548zm14-13.996l4.548-4.568a3.21 3.21 0 0 0-.169-4.366 3.233 3.233 0 0 0-4.379-.169l-4.548 4.568a3.21 3.21 0 0 0-1.038 3.195 3.221 3.221 0 0 0 2.381 2.375 3.231 3.231 0 0 0 3.205-1.035z" transform="translate(-783 -199)"/>
</svg>
