<svg xmlns="http://www.w3.org/2000/svg" width="13" height="13" viewBox="0 0 13 13">
    <path fill="#FFF" fill-rule="evenodd" d="M.755 13a.752.752 0 0 1-.698-.444.699.699 0 0 1 .165-.787L10.932 1.5l-6.008.382c-.412.025-.768-.275-.796-.67-.026-.395.286-.736.698-.763l6.97-.446c.47-.031.91.22 1.104.631.194.411.101.894-.232 1.212L1.25 12.79A.767.767 0 0 1 .755 13zM12.7 9.235l.298-4.361c.03-.452-.325-.842-.793-.872-.469-.029-.873.313-.905.765l-.298 4.36c-.03.453.325.842.793.873h.06a.841.841 0 0 0 .853-.765H12.7z" opacity=".6"/>
</svg>
