<svg xmlns="http://www.w3.org/2000/svg" width="11" height="14" viewBox="0 0 11 14">
    <path fill="#0C133E" fill-rule="evenodd" d="M9.352 11H4.716c-.944 0-1.71-.824-1.71-1.84V6.705c0-.34.255-.614.57-.614.315 0 .57.275.57.614v2.453c0 .34.255.614.57.614h4.659c.275 0 .498-.238.501-.534V3.601a.555.555 0 0 0-.148-.38l-1.71-1.84a.49.49 0 0 0-.354-.16H4.636c-.274.003-.496.244-.496.54 0 .339-.255.613-.57.613-.315 0-.57-.274-.57-.613C3.003.787 3.737 0 4.642 0H7.67c.428.007.836.191 1.14.515l1.71 1.84c.304.326.476.767.48 1.228v5.613c.009.476-.16.936-.471 1.276-.31.34-.735.53-1.177.528zm-1.375 1.186c0-.34-.255-.615-.57-.615-.316 0-.571.276-.571.615 0 .297-.221.538-.496.541H1.61c-.274-.003-.494-.24-.497-.535V4.74c.003-.296.227-.535.502-.535h3.03c.133 0 .26.058.354.16L6.71 6.21c.095.1.149.237.149.38v.708c0 .34.255.615.57.615.316 0 .571-.275.571-.615V6.59a1.829 1.829 0 0 0-.48-1.23L5.81 3.516A1.57 1.57 0 0 0 4.668 3h-3.03C.732 3.003 0 3.795 0 4.77v7.46C0 13.206.736 14 1.643 14h4.73c.897-.04 1.598-.847 1.576-1.814h.028z"/>
</svg>
