<svg xmlns="http://www.w3.org/2000/svg" width="81" height="61" viewBox="0 0 81 61">
    <defs>
        <linearGradient id="a" x1="0%" y1="21.643%" y2="78.357%">
            <stop offset="0%" stop-color="#66A6FF"/>
            <stop offset="100%" stop-color="#89F7FE"/>
        </linearGradient>
    </defs>
    <path fill="url(#a)" fill-rule="evenodd" d="M712.93 252.999a9.94 9.94 0 0 1-6.692-2.45l-5.923-5.171a3.442 3.442 0 0 1-.368-4.797 3.308 3.308 0 0 1 4.718-.374l5.923 5.171a3.304 3.304 0 0 0 4.216 0l31.12-24.325-63.578-.238c-1.848 0-3.346-1.523-3.346-3.402 0-1.879 1.498-3.402 3.346-3.402h63.578c3.003-.175 5.752 1.709 6.72 4.604.967 2.896-.084 6.093-2.57 7.814l-31.12 24.324A9.94 9.94 0 0 1 712.93 253zM753 264.75v-27.333c0-1.887-1.517-3.417-3.389-3.417-1.872 0-3.389 1.53-3.389 3.417v27.333c0 1.887-1.517 3.417-3.389 3.417H695.39c-1.872 0-3.389 1.53-3.389 3.416 0 1.887 1.517 3.417 3.389 3.417h47.444c5.615 0 10.167-4.59 10.167-10.25zm-54-34.25c0-1.933-1.511-3.5-3.375-3.5h-20.25c-1.864 0-3.375 1.567-3.375 3.5s1.511 3.5 3.375 3.5h20.25c1.864 0 3.375-1.567 3.375-3.5zm0 28c0-1.933-1.433-3.5-3.2-3.5h-9.6c-1.767 0-3.2 1.567-3.2 3.5s1.433 3.5 3.2 3.5h9.6c1.767 0 3.2-1.567 3.2-3.5z" transform="translate(-672 -214)"/>
</svg>
