<svg xmlns="http://www.w3.org/2000/svg" width="13" height="17" viewBox="0 0 13 17">
    <path fill="#FFF" fill-rule="evenodd" d="M12.284 13H.71a.712.712 0 0 1-.71-.713c0-.395.318-.714.71-.714h9.692L7.768 9.254a.718.718 0 0 1-.068-1.01.71.71 0 0 1 1.005-.067l4.055 3.567a.716.716 0 0 1-.47 1.249l-.006.007zm-3.94 3.876l1.314-.73c.374-.209.454-.606.177-.888-.277-.282-.805-.342-1.18-.134l-1.313.73c-.374.209-.454.606-.177.888.277.282.805.342 1.18.134zM5.296 8.758a.717.717 0 0 0-.064-1.007L2.598 5.429h9.692c.392 0 .71-.32.71-.715A.712.712 0 0 0 12.29 4H.71a.71.71 0 0 0-.664.462.717.717 0 0 0 .194.788l4.055 3.572a.707.707 0 0 0 1.001-.064zm-1.19-6.932l.666-.595a.728.728 0 0 0 .063-.99.644.644 0 0 0-.941-.067l-.666.595a.728.728 0 0 0-.063.99.644.644 0 0 0 .941.067z"/>
</svg>
