<?xml version="1.0" encoding="UTF-8"?>
<svg width="262px" height="57px" viewBox="0 0 262 57" version="1.1" xmlns="http://www.w3.org/2000/svg" xmlns:xlink="http://www.w3.org/1999/xlink">
    <!-- Generator: Sketch 52.2 (67145) - http://www.bohemiancoding.com/sketch -->
    <title>Group 7</title>
    <desc>Created with Sketch.</desc>
    <defs>
        <linearGradient x1="56.7090346%" y1="24.2591841%" x2="56.7090346%" y2="92.6189394%" id="linearGradient-1">
            <stop stop-color="#2DCE89" offset="0%"></stop>
            <stop stop-color="#FFFFFF" stop-opacity="0" offset="100%"></stop>
        </linearGradient>
    </defs>
    <g id="Page-1" stroke="none" stroke-width="1" fill="none" fill-rule="evenodd">
        <g id="Bank-/-Reports" transform="translate(-387.000000, -190.000000)" fill-rule="nonzero">
            <g id="Group-5" transform="translate(278.000000, 151.000000)">
                <g id="Group-7" transform="translate(110.000000, 40.000000)">
                    <path d="M2.84217094e-14,37 L15.8398716,19.6101972 C19.850166,15.2074956 26.6702467,14.8893867 31.0729484,18.899681 C31.1701744,18.9882415 31.2657722,19.0785732 31.3596937,19.1706308 L31.3596937,19.1706308 C36.4797303,24.1890618 43.3632912,27 50.5326304,27 L52.0723952,27 C60.4931474,27 68.8514553,28.4450099 76.7834476,31.2721225 L84.6616308,34.0800564 C94.8684315,37.7179539 106.251524,35.3741867 114.190947,28 L116.98431,25.4055071 C123.615491,19.2464243 131.767356,14.9645138 140.601808,13 L140.601808,13 C149.353959,11.0537875 158.502784,12.0298324 166.647356,15.7786765 L181.59708,22.6598459 C191.997949,27.4472347 203.308036,29.9379839 214.757777,29.9626168 L214.757777,29.9626168 C225.839138,29.9864572 236.431098,25.3999217 243.99559,17.3020458 L260.157998,0 L260.157998,60 L2.84217094e-14,60 L2.84217094e-14,37 Z" id="Path-18" fill="url(#linearGradient-1)" opacity="0.324720982"></path>
                    <path d="M2.84217094e-14,37 L15.8398716,19.6101972 C19.850166,15.2074956 26.6702467,14.8893867 31.0729484,18.899681 C31.1701744,18.9882415 31.2657722,19.0785732 31.3596937,19.1706308 L31.3596937,19.1706308 C36.4797303,24.1890618 43.3632912,27 50.5326304,27 L52.0723952,27 C60.4931474,27 68.8514553,28.4450099 76.7834476,31.2721225 L84.6616308,34.0800564 C94.8684315,37.7179539 106.251524,35.3741867 114.190947,28 L116.98431,25.4055071 C123.615491,19.2464243 131.767356,14.9645138 140.601808,13 L140.601808,13 C149.353959,11.0537875 158.502784,12.0298324 166.647356,15.7786765 L181.59708,22.6598459 C191.997949,27.4472347 203.308036,29.9379839 214.757777,29.9626168 L214.757777,29.9626168 C225.839138,29.9864572 236.431098,25.3999217 243.99559,17.3020458 L260.157998,-3.55271368e-15" id="Path-18-Copy" stroke="#2DCE89" stroke-width="2"></path>
                    <circle id="Oval-9" stroke="#FFFFFF" stroke-width="2" fill="#2DCE89" cx="147.634014" cy="12.5" r="5.5"></circle>
                </g>
            </g>
        </g>
    </g>
</svg>