<svg xmlns="http://www.w3.org/2000/svg" width="82" height="80" viewBox="0 0 82 80">
    <defs>
        <linearGradient id="a" x1="0%" y1="0%" y2="100%">
            <stop offset="0%" stop-color="#66A6FF"/>
            <stop offset="100%" stop-color="#89F7FE"/>
        </linearGradient>
    </defs>
    <g fill="url(#a)" fill-rule="evenodd" transform="translate(-692 -297)">
        <path d="M759.02 308.99a.984.984 0 0 1-.698-.285l-2.085-2.083a.982.982 0 0 1 1.387-1.386l2.085 2.084a.982.982 0 0 1-.698 1.68l.01-.01zm9.278 11.768a1.085 1.085 0 0 0-1.214-1.799 10.963 10.963 0 1 1 3.088-3.195 1.083 1.083 0 0 0 1.83 1.159 13 13 0 1 0-3.704 3.835zm-10.59-6.097l2.059-2.059a.97.97 0 0 0-1.37-1.369l-2.058 2.059a.97.97 0 1 0 1.37 1.369zm7.943-.01a1.199 1.199 0 0 0 0-1.69l-2.541-2.542a1.199 1.199 0 1 0-1.69 1.69l2.54 2.542a1.199 1.199 0 0 0 1.691 0zm-1.943-5.99l2.059-2.059a.97.97 0 0 0-1.37-1.369l-2.058 2.059a.97.97 0 1 0 1.37 1.369zM738.667 377h-31.111c-1.719 0-3.112-1.383-3.112-3.09 0-1.705 1.393-3.088 3.112-3.088h31.11c1.719 0 3.112-1.383 3.112-3.09v-12.82a5.035 5.035 0 0 0-2.77-4.046 51.108 51.108 0 0 0-38.017 0 5.035 5.035 0 0 0-2.769 4.046v18.999c0 1.706-1.393 3.089-3.11 3.089-1.72 0-3.112-1.383-3.112-3.09v-18.998c.138-4.264 2.726-8.071 6.658-9.792a57.34 57.34 0 0 1 42.684 0c3.932 1.72 6.52 5.528 6.658 9.792v12.82c0 5.119-4.179 9.268-9.333 9.268zM736 317.5c0-8.56-6.94-15.5-15.5-15.5-8.56 0-15.5 6.94-15.5 15.5 0 8.56 6.94 15.5 15.5 15.5 8.56 0 15.5-6.94 15.5-15.5zm-6 1a9.5 9.5 0 1 1-19 0 9.5 9.5 0 0 1 19 0z"/>
    </g>
</svg>
