<svg xmlns="http://www.w3.org/2000/svg" width="179" height="136" viewBox="0 0 179 136">
    <g fill="none" fill-rule="evenodd">
        <path fill="#F4F7F9" d="M101.874 64.406c1.469 2.544.606 5.792-1.926 7.253l-50.435 29.12c-2.532 1.461-5.775.584-7.244-1.96L1.492 28.192C.024 25.648.886 22.4 3.418 20.938L38.569.643l31.456 8.6 31.849 55.163z"/>
        <path fill="#B9C5CD" d="M69.86 9.197l-15.827 9.138c-2.174 1.255-4.958.501-6.22-1.683L38.573.645 69.86 9.197z"/>
        <path fill="#FF6D4A" d="M27.525 25.892c-1.92 1.109-3.582 2.594-4.981 4.455-.429.569-.471 1.15-.13 1.742.202.35.493.577.874.68.38.102.733.06 1.06-.13.11-.063.238-.167.388-.311a21.265 21.265 0 0 1 1.803-1.83c.568-.504 1.266-.995 2.096-1.474 1.506-.87 2.797-1.191 3.873-.966 1.077.226 2.033 1.064 2.869 2.512l.151.262-3.961 2.288c-2.467 1.424-4.06 2.987-4.78 4.69-.72 1.702-.612 3.364.325 4.987.57.988 1.313 1.72 2.23 2.199.917.48 1.9.681 2.947.603a7.004 7.004 0 0 0 3.01-.949c2.489-1.437 4.06-3.455 4.712-6.053l.493.854c.24.416.586.687 1.035.807a1.64 1.64 0 0 0 1.295-.178c.413-.238.686-.586.817-1.041a1.63 1.63 0 0 0-.166-1.309l-5.375-9.31a8.045 8.045 0 0 0-2.57-2.747c-1.054-.694-2.278-1.047-3.669-1.063-1.391-.014-2.84.413-4.346 1.282zm7.367 15.484c-1.244.718-2.272.99-3.085.818-.815-.175-1.449-.658-1.904-1.446-1-1.732.147-3.55 3.444-5.453l3.568-2.06 1.596 2.763c-.207 1.054-.62 2.076-1.244 3.063-.622.989-1.413 1.76-2.375 2.315z"/>
        <path fill="#B9C5CD" d="M56.6 60.935l-14.065 8.12a1.662 1.662 0 0 1-2.268-.619 1.662 1.662 0 0 1 .598-2.273l14.065-8.12a1.662 1.662 0 0 1 2.268.618 1.662 1.662 0 0 1-.598 2.274z"/>
        <path fill="#A6E50F" d="M67.887 80.483l-14.066 8.12a1.663 1.663 0 0 1-2.268-.619 1.662 1.662 0 0 1 .597-2.274l14.066-8.121a1.662 1.662 0 0 1 2.268.62c.46.798.194 1.817-.597 2.274z"/>
        <path fill="#B9C5CD" d="M62.867 42.682L36.197 58.08a1.66 1.66 0 0 1-2.266-.618 1.663 1.663 0 0 1 .597-2.275L61.197 39.79a1.663 1.663 0 0 1 2.268.62 1.66 1.66 0 0 1-.598 2.272zM35.879 87.587l-.749-1.296 59.56-34.386.748 1.296zM65.654 47.51L38.985 62.908a1.662 1.662 0 0 1-2.267-.618 1.662 1.662 0 0 1 .598-2.273l26.669-15.398a1.662 1.662 0 0 1 2.268.62c.46.797.192 1.815-.599 2.271z"/>
        <g opacity=".4">
            <path fill="#F4F7F9" d="M152.327 133.833c-1.19 2.05-3.836 2.75-5.907 1.562l-41.25-23.655c-2.07-1.188-2.784-3.813-1.592-5.863l33.093-56.933c1.192-2.049 3.837-2.75 5.908-1.562l28.75 16.488 6.846 25.495-25.848 44.468z"/>
            <path fill="#B9C5CD" d="M178.14 89.232l-12.945-7.424a3.671 3.671 0 0 1-1.365-5.033l7.5-12.904 6.81 25.361z"/>
            <path fill="#FF6D4A" d="M148.98 66.266c-1.57-.902-3.3-1.468-5.187-1.703-.577-.072-1.005.131-1.282.61a1.114 1.114 0 0 0-.122.884c.084.307.259.537.527.692.089.05.215.099.379.146.766.156 1.443.333 2.031.528.588.196 1.222.488 1.901.877 1.232.707 1.988 1.482 2.271 2.329.282.845.084 1.85-.594 3.018l-.123.212L145.54 72c-2.018-1.157-3.775-1.646-5.271-1.467-1.498.18-2.626.922-3.386 2.23-.463.797-.675 1.612-.636 2.447.038.835.3 1.605.784 2.306a5.733 5.733 0 0 0 1.905 1.729c2.035 1.167 4.103 1.458 6.206.872l-.4.69a1.319 1.319 0 0 0-.145 1.048c.098.362.317.64.656.835.339.194.696.247 1.071.155.374-.091.66-.306.855-.642l4.362-7.504a6.39 6.39 0 0 0 .884-2.904c.056-1.016-.197-2.016-.757-2.998-.56-.98-1.456-1.825-2.688-2.531zm-7.899 11.38c-1.018-.584-1.633-1.195-1.844-1.835-.211-.64-.132-1.278.238-1.914.811-1.397 2.565-1.322 5.261.223l2.92 1.675-1.295 2.227c-.83.279-1.72.399-2.673.359a5.638 5.638 0 0 1-2.607-.736z"/>
            <path fill="#B9C5CD" d="M136.191 100.712l-11.504-6.597a1.34 1.34 0 0 1-.493-1.838 1.358 1.358 0 0 1 1.849-.494l11.504 6.597a1.34 1.34 0 0 1 .494 1.837 1.36 1.36 0 0 1-1.85.495z"/>
            <path fill="#A6E50F" d="M127.033 116.468l-11.505-6.596a1.341 1.341 0 0 1-.493-1.839 1.36 1.36 0 0 1 1.85-.494l11.503 6.597c.647.371.868 1.194.494 1.839a1.359 1.359 0 0 1-1.85.493z"/>
            <path fill="#B9C5CD" d="M151.642 97.776L129.83 85.267a1.34 1.34 0 0 1-.494-1.837 1.36 1.36 0 0 1 1.85-.494l21.812 12.507a1.34 1.34 0 0 1 .493 1.839 1.359 1.359 0 0 1-1.849.494zM108.88 96.89l.608-1.046 48.277 27.686-.608 1.045zM149.38 101.667L127.57 89.16a1.34 1.34 0 0 1-.494-1.837 1.358 1.358 0 0 1 1.848-.493l21.812 12.507a1.34 1.34 0 0 1 .494 1.837 1.36 1.36 0 0 1-1.848.494z"/>
        </g>
    </g>
</svg>
