<svg xmlns="http://www.w3.org/2000/svg" width="24" height="18" viewBox="0 0 24 18">
    <defs>
        <linearGradient id="a" x1="0%" y1="0%" y2="100%">
            <stop offset="0%" stop-color="#66A6FF"/>
            <stop offset="100%" stop-color="#89F7FE"/>
        </linearGradient>
    </defs>
    <path fill="url(#a)" fill-rule="evenodd" d="M16.333 17h-1.777c-.982 0-1.778-.733-1.778-1.636V9.636H9.222v5.728c0 .903-.796 1.636-1.778 1.636H5.667C4.194 17 3 15.901 3 14.545V8.818C3 8.366 3.398 8 3.889 8c.49 0 .889.366.889.818v5.727c0 .452.398.819.889.819h1.777V9.636C7.444 8.733 8.24 8 9.222 8h3.556c.982 0 1.778.733 1.778 1.636v5.728h1.777c.491 0 .89-.367.89-.819V8.818c0-.452.397-.818.888-.818s.889.366.889.818v5.727C19 15.901 17.806 17 16.333 17zm5.533-10.377a.808.808 0 0 0-.242-1.128l-7.81-4.97a3.389 3.389 0 0 0-3.624 0l-7.81 4.97a.809.809 0 0 0-.245 1.132c.25.38.767.487 1.154.241l7.809-4.97a1.694 1.694 0 0 1 1.817 0l7.809 4.97a.843.843 0 0 0 1.15-.237l-.008-.008z"/>
</svg>
