<?xml version="1.0" encoding="UTF-8"?>
<svg width="29px" height="29px" viewBox="0 0 29 29" version="1.1" xmlns="http://www.w3.org/2000/svg" xmlns:xlink="http://www.w3.org/1999/xlink">
    <!-- Generator: Sketch 52.2 (67145) - http://www.bohemiancoding.com/sketch -->
    <title>Information</title>
    <desc>Created with Sketch.</desc>
    <defs>
        <linearGradient x1="0%" y1="0%" x2="100%" y2="100%" id="linearGradient-1">
            <stop stop-color="#66A6FF" offset="0%"></stop>
            <stop stop-color="#89F7FE" offset="100%"></stop>
        </linearGradient>
    </defs>
    <g id="Page-1" stroke="none" stroke-width="1" fill="none" fill-rule="evenodd">
        <g id="Wizard-/-Step-6" transform="translate(-489.000000, -225.000000)" fill="url(#linearGradient-1)">
            <g id="Sweet-alerts/Success-alert" transform="translate(463.000000, 210.000000)">
                <g id="Group">
                    <path d="M30.261396,43.9926603 C29.7476666,43.9948344 29.2887431,43.6718729 29.1173352,43.1875422 C28.9459273,42.7032115 29.0995248,42.163443 29.5002419,41.8419411 L31.6266406,40.114116 C32.4164164,39.4740869 33.5222775,39.3968159 34.3933753,39.920793 C39.0919701,42.6748709 45.0522088,41.9446939 48.947154,38.1378384 C52.8420992,34.3309829 53.7087886,28.3886325 51.063446,23.6277395 C48.4181035,18.8668464 42.9147471,16.4644647 37.625288,17.7615765 C32.3358288,19.0586882 28.568,23.7346034 28.4249608,29.1792795 C28.3411362,31.5716417 28.9903233,33.9324944 30.2855596,35.9455872 C30.5164878,36.3103509 30.5352894,36.7706142 30.3348819,37.1530003 C30.1344744,37.5353865 29.7453046,37.7818019 29.3139689,37.7994244 C28.8826332,37.8170468 28.4746618,37.603199 28.2437336,37.2384353 C26.6880707,34.8187516 25.9082591,31.9817163 26.0085986,29.1067833 C26.1860114,22.5748203 30.7104061,16.9686107 37.0572568,15.4163127 C43.4041074,13.8640148 50.0050107,16.7492249 53.1767884,22.4620508 C56.348566,28.1748766 55.3074236,35.3035922 50.6342987,39.8705099 C45.9611738,44.4374276 38.8108666,45.3139928 33.1731124,42.0110987 L31.0225501,43.7147584 C30.8083836,43.8922542 30.539537,43.9904118 30.261396,43.9926603 L30.261396,43.9926603 Z M41,33.8571429 L41,28.1428571 C41,27.5116746 40.5522847,27 40,27 C39.4477153,27 39,27.5116746 39,28.1428571 L39,33.8571429 C39,34.4883254 39.4477153,35 40,35 C40.5522847,35 41,34.4883254 41,33.8571429 Z M39,25 C39,25.5522847 39.4477153,26 40,26 C40.5522847,26 41,25.5522847 41,25 C41,24.4477153 40.5522847,24 40,24 C39.4477153,24 39,24.4477153 39,25 Z" id="Information"></path>
                </g>
            </g>
        </g>
    </g>
</svg>