<svg xmlns="http://www.w3.org/2000/svg" width="92" height="92" viewBox="0 0 92 92">
    <defs>
        <linearGradient id="a" x1="0%" y1="0%" y2="100%">
            <stop offset="0%" stop-color="#66A6FF"/>
            <stop offset="100%" stop-color="#89F7FE"/>
        </linearGradient>
    </defs>
    <path fill="url(#a)" fill-rule="evenodd" d="M299.519 139.977a3.833 3.833 0 0 1-2.415-6.823l6.746-5.482a7.665 7.665 0 0 1 8.777-.613c14.906 8.737 33.814 6.42 46.17-5.656 12.357-12.077 15.107-30.929 6.715-46.032-8.392-15.104-25.851-22.725-42.632-18.61-16.78 4.115-28.733 18.949-29.187 36.222a37.26 37.26 0 0 0 5.903 21.465 3.834 3.834 0 0 1-6.478 4.102 44.812 44.812 0 0 1-7.09-25.797c.562-20.723 14.915-38.508 35.05-43.432 20.135-4.925 41.076 4.228 51.138 22.352 10.062 18.123 6.76 40.738-8.066 55.227-14.825 14.488-37.509 17.269-55.394 6.79l-6.822 5.405a3.833 3.833 0 0 1-2.415.882zM336 110.143V90.857c0-2.13-1.567-3.857-3.5-3.857s-3.5 1.727-3.5 3.857v19.286c0 2.13 1.567 3.857 3.5 3.857s3.5-1.727 3.5-3.857zM329 79.5a3.5 3.5 0 1 0 7 0 3.5 3.5 0 0 0-7 0z" transform="translate(-286 -48)"/>
</svg>
