<svg xmlns="http://www.w3.org/2000/svg" width="45" height="24" viewBox="0 0 45 24">
    <defs>
        <linearGradient id="a" x1="0%" y1="0%" y2="100%">
            <stop offset="0%" stop-color="#66A6FF"/>
            <stop offset="100%" stop-color="#89F7FE"/>
        </linearGradient>
    </defs>
    <path fill="url(#a)" fill-rule="evenodd" d="M317.875 214c-2.071 0-3.75-1.69-3.75-3.774v-1.358A1.88 1.88 0 0 1 316 206.98a1.88 1.88 0 0 1 1.875 1.887v1.358l5.175-1.301c.343-.101.707-.101 1.05 0l3.15 1.056v-4.887a1.88 1.88 0 0 0-1.875-1.886h-17.044c-.914 5.442-5.596 9.428-11.081 9.434-6.18-.082-11.17-5.103-11.25-11.321 0-4.288 2.408-8.208 6.219-10.126a11.192 11.192 0 0 1 11.781 1.07c.828.624.996 1.807.375 2.64a1.867 1.867 0 0 1-2.625.378 7.461 7.461 0 0 0-7.854-.713 7.552 7.552 0 0 0-4.146 6.75c.05 4.148 3.379 7.497 7.5 7.548 3.662.006 6.793-2.65 7.406-6.283a3.757 3.757 0 0 1 3.75-3.151h16.969c3.107 0 5.625 2.534 5.625 5.66v4.925a3.781 3.781 0 0 1-1.554 3.062 3.73 3.73 0 0 1-3.377.523l-2.569-.962-4.65 1.17a3.73 3.73 0 0 1-.975.188z" transform="translate(-286 -190)"/>
</svg>
