<svg xmlns="http://www.w3.org/2000/svg" width="17" height="17" viewBox="0 0 17 17">
    <path fill="#FFF" fill-rule="evenodd" d="M7.2 9H4.8c-.442 0-.8-.224-.8-.5s.358-.5.8-.5h2.4c.442 0 .8.224.8.5s-.358.5-.8.5zm6.066 6.542a.71.71 0 0 0-.793-1.176 7.175 7.175 0 1 1 2.019-2.09.708.708 0 0 0 1.197.759 8.5 8.5 0 1 0-2.43 2.507h.007zM13 8.5c0-.276-.358-.5-.8-.5H9.8c-.442 0-.8.224-.8.5s.358.5.8.5h2.4c.442 0 .8-.224.8-.5zm-4 3.7V9.8c0-.442-.224-.8-.5-.8s-.5.358-.5.8v2.4c0 .442.224.8.5.8s.5-.358.5-.8zm0-5V4.8c0-.442-.224-.8-.5-.8s-.5.358-.5.8v2.4c0 .442.224.8.5.8s.5-.358.5-.8z"/>
</svg>
