<svg xmlns="http://www.w3.org/2000/svg" width="46" height="38" viewBox="0 0 46 38">
    <defs>
        <linearGradient id="a" x1="0%" y1="0%" y2="100%">
            <stop offset="0%" stop-color="#66A6FF"/>
            <stop offset="100%" stop-color="#89F7FE"/>
        </linearGradient>
    </defs>
    <path fill="url(#a)" fill-rule="evenodd" d="M322.577 222c-1.982.009-3.644-1.482-3.833-3.439l-.498-5.32a3.781 3.781 0 0 1 1.246-3.572 3.777 3.777 0 0 0 .952-4.544 3.843 3.843 0 0 0-4.192-2.068 3.82 3.82 0 0 0-2.99 2.764 3.78 3.78 0 0 0 1.227 3.867 3.781 3.781 0 0 1 1.246 3.534l-.518 5.339c-.188 1.957-1.85 3.448-3.833 3.439H299.75c-3.176 0-5.75-2.552-5.75-5.7v-26.6c0-3.148 2.574-5.7 5.75-5.7h11.826a5.776 5.776 0 0 1 4.063 1.672l.786.779a1.888 1.888 0 0 1-.1 2.58 1.929 1.929 0 0 1-2.602.099l-.786-.779a1.925 1.925 0 0 0-1.361-.551H299.75c-1.059 0-1.917.85-1.917 1.9v26.6c0 1.05.858 1.9 1.917 1.9h11.673l.536-5.434a1.751 1.751 0 0 1 0-.228 7.563 7.563 0 0 1-2.549-7.03c.568-3.298 3.245-5.84 6.593-6.26 3.349-.42 6.58 1.38 7.96 4.432a7.555 7.555 0 0 1-1.96 8.839c.004.082.004.165 0 .247l.517 5.434h11.73c1.059 0 1.917-.85 1.917-1.9v-19c0-1.05-.858-1.9-1.917-1.9h-30.667a1.908 1.908 0 0 1-1.916-1.9c0-1.05.858-1.9 1.916-1.9h30.667c3.176 0 5.75 2.552 5.75 5.7v19c0 3.148-2.574 5.7-5.75 5.7h-11.673z" transform="translate(-294 -184)"/>
</svg>
