<svg xmlns="http://www.w3.org/2000/svg" width="93" height="70" viewBox="0 0 93 70">
    <defs>
        <linearGradient id="a" x1="0%" y1="0%" y2="100%">
            <stop offset="0%" stop-color="#66A6FF"/>
            <stop offset="100%" stop-color="#89F7FE"/>
        </linearGradient>
    </defs>
    <path fill="url(#a)" fill-rule="evenodd" d="M784.273 396h-62.546C715.25 396 710 390.777 710 384.333v-46.666c0-6.444 5.25-11.667 11.727-11.667h62.546c6.477 0 11.727 5.223 11.727 11.667v3.889c0 2.147-1.75 3.888-3.91 3.888-2.158 0-3.908-1.74-3.908-3.888v-3.89c0-2.147-1.75-3.888-3.91-3.888h-62.545c-2.159 0-3.909 1.74-3.909 3.889v46.666c0 2.148 1.75 3.89 3.91 3.89h62.545c2.159 0 3.909-1.742 3.909-3.89v-3.889c0-2.147 1.75-3.888 3.909-3.888s3.909 1.74 3.909 3.888v3.89c0 6.443-5.25 11.666-11.727 11.666zM803 365.333v-7.666c0-4.235-3.482-7.667-7.778-7.667h-19.444c-4.296 0-7.778 3.432-7.778 7.667v11.5c0 2.117 1.741 3.833 3.889 3.833 2.148 0 3.889-1.716 3.889-3.833v-11.5h19.444v7.666h-7.778c-2.147 0-3.888 1.717-3.888 3.834s1.74 3.833 3.888 3.833h7.778c4.296 0 7.778-3.432 7.778-7.667z" transform="translate(-710 -326)"/>
</svg>
