<svg xmlns="http://www.w3.org/2000/svg" width="12" height="12" viewBox="0 0 12 12">
    <path fill="#0C133E" fill-rule="evenodd" d="M4.615 6H.462a.462.462 0 1 1 0-.923h4.153a.462.462 0 0 0 .462-.462V.462a.462.462 0 1 1 .923 0v4.153C6 5.38 5.38 6 4.615 6zM5 4.444V1.111C5 .497 4.503 0 3.889 0H1.11C.497 0 0 .497 0 1.111V3.89C0 4.503.497 5 1.111 5h1.111a.556.556 0 1 0 0-1.111h-1.11V1.11h2.777v3.333a.556.556 0 1 0 1.111 0zm7-.555V1.11C12 .497 11.503 0 10.889 0H8.11C7.497 0 7 .497 7 1.111v1.111a.556.556 0 1 0 1.111 0v-1.11h2.778v2.777H7.556a.556.556 0 1 0 0 1.111h3.333C11.503 5 12 4.503 12 3.889zm-7 7V9.778a.556.556 0 1 0-1.111 0v1.11H1.11V8.112h3.333a.556.556 0 1 0 0-1.111H1.111C.497 7 0 7.497 0 8.111v2.778C0 11.503.497 12 1.111 12H3.89C4.503 12 5 11.503 5 10.889zm7 0V8.11C12 7.497 11.503 7 10.889 7H9.778a.556.556 0 1 0 0 1.111h1.11v2.778H8.112V7.556a.556.556 0 1 0-1.111 0v3.333C7 11.503 7.497 12 8.111 12h2.778c.614 0 1.111-.497 1.111-1.111zm-5 .555V7.556C7 7.249 6.776 7 6.5 7s-.5.249-.5.556v3.888c0 .307.224.556.5.556s.5-.249.5-.556zM12 6.5c0-.276-.249-.5-.556-.5H7.556C7.249 6 7 6.224 7 6.5s.249.5.556.5h3.888c.307 0 .556-.224.556-.5z"/>
</svg>
