<svg xmlns="http://www.w3.org/2000/svg" width="21" height="21" viewBox="0 0 21 21">
    <path fill="#FFF" fill-rule="evenodd" stroke="#FFF" stroke-width=".5" d="M8.751 1.042c.437-.047.427.173.474.612.047.44.133.934-.303.98-4.01.821-6.738 4.586-6.292 8.685.445 4.1 3.917 7.182 8.008 7.11 4.092-.071 7.454-3.273 7.756-7.385.302-4.112-2.059-7.729-6.095-8.409-.134-.022.101 6.326.001 7.626-.052.683-.301.784-.512.782-.07 0-.152.015-.203 0-.324-.095-.437-.637-.446-.782-.005-.06-.012-8.544-.002-8.606a.805.805 0 0 1 .923-.67c4.844.814 8.274 5.215 7.912 10.15-.361 4.935-4.396 8.778-9.306 8.864-4.91.085-9.077-3.614-9.61-8.534-.534-4.92 2.74-9.437 7.553-10.42"/>
</svg>
