<svg xmlns="http://www.w3.org/2000/svg" width="47" height="47" viewBox="0 0 47 47">
    <defs>
        <linearGradient id="a" x1="0%" y1="0%" y2="100%">
            <stop offset="0%" stop-color="#66A6FF"/>
            <stop offset="100%" stop-color="#89F7FE"/>
        </linearGradient>
    </defs>
    <path fill="url(#a)" fill-rule="evenodd" d="M56.226 82a3.355 3.355 0 0 1-2.387-.992L51.45 78.62a2.254 2.254 0 1 1 3.176-3.177l1.599 1.6.788-.79c.17-.17.28-.391.315-.63l1.33-9.283a4.507 4.507 0 0 1 1.283-2.546l5.608-5.61a20.147 20.147 0 0 0 5.946-14.33v-4.348h-4.347a20.13 20.13 0 0 0-14.324 5.948l-5.608 5.61a4.504 4.504 0 0 1-2.545 1.285l-9.301 1.33c-.239.034-.46.145-.63.314l-.79.79 1.6 1.599a2.254 2.254 0 1 1-3.176 3.177l-2.387-2.389a3.38 3.38 0 0 1 0-4.776l1.599-1.6a5.652 5.652 0 0 1 3.176-1.6l9.301-1.329 5.608-5.61A24.611 24.611 0 0 1 67.194 35h6.554A2.253 2.253 0 0 1 76 37.253v6.602a24.631 24.631 0 0 1-7.252 17.529l-5.608 5.61-1.329 9.305a5.656 5.656 0 0 1-1.599 3.177l-1.599 1.6c-.642.61-1.5.943-2.387.923zm-11.098-6.82l3.308-3.308a2.346 2.346 0 0 0-3.308-3.308l-3.308 3.308a2.346 2.346 0 1 0 3.308 3.308zm-9.12-2.976l6.444-6.445a2.277 2.277 0 0 0-3.21-3.211l-6.446 6.445a2.277 2.277 0 1 0 3.211 3.21zm27.966-16.27c2.701-2.536 2.701-6.642 0-9.177-.565-.618-1.45-.887-2.294-.697-.844.19-1.503.808-1.706 1.598-.202.79.085 1.621.744 2.15.437.407.683.96.683 1.537s-.246 1.13-.683 1.537c-.901.839-2.356.839-3.257 0a2.098 2.098 0 0 1-.683-1.537c0-.577.246-1.13.683-1.537.785-.858.732-2.138-.12-2.938-.854-.8-2.22-.849-3.136-.113-1.853 1.618-2.616 4.056-1.99 6.357.628 2.3 2.544 4.096 4.999 4.684 2.455.587 5.056-.128 6.783-1.865h-.023z" transform="translate(-29 -35)"/>
</svg>
