<svg xmlns="http://www.w3.org/2000/svg" width="21" height="21" viewBox="0 0 21 21">
    <path fill="#FFF" fill-rule="evenodd" d="M12.089 20.86a1.49 1.49 0 0 1-1.06-.44l-1.06-1.06a1 1 0 1 1 1.41-1.41l.71.71.35-.35a.5.5 0 0 0 .14-.28l.59-4.12a2 2 0 0 1 .57-1.13l2.49-2.49a8.94 8.94 0 0 0 2.64-6.36V2h-1.93a8.94 8.94 0 0 0-6.36 2.64l-2.49 2.49a2 2 0 0 1-1.13.57l-4.13.59a.5.5 0 0 0-.28.14l-.35.35.71.71a1 1 0 1 1-1.41 1.41L.439 9.84a1.5 1.5 0 0 1 0-2.12l.71-.71a2.51 2.51 0 0 1 1.41-.71l4.13-.59 2.49-2.49A10.93 10.93 0 0 1 16.959 0h2.91a1 1 0 0 1 1 1v2.93a10.93 10.93 0 0 1-3.22 7.78l-2.49 2.49-.59 4.13a2.51 2.51 0 0 1-.71 1.41l-.71.71a1.49 1.49 0 0 1-1.06.41zm-4.95-2.91l1.41-1.41a1 1 0 0 0-1.41-1.41l-1.41 1.41a1 1 0 1 0 1.41 1.41zm-4.24-1.41l2.83-2.83a1 1 0 0 0-1.41-1.41l-2.83 2.83a1 1 0 1 0 1.41 1.41zm12.73-7.07a3 3 0 0 0 0-4.24 1 1 0 1 0-1.41 1.41 1 1 0 1 1-1.41 0 1 1 0 0 0-1.41-1.41 3 3 0 1 0 4.24 4.24h-.01z"/>
</svg>
