<svg xmlns="http://www.w3.org/2000/svg" width="12" height="12" viewBox="0 0 12 12">
    <path fill="#0C133E" fill-rule="evenodd" d="M1.5 12a1.5 1.5 0 1 1 0-3 1.5 1.5 0 0 1 0 3zm0-2a.5.5 0 1 0 .5.5.5.5 0 0 0-.5-.475V10zm10.49 1.497C11.99 5.75 7.526.703 1.824.015a1.692 1.692 0 0 0-1.3.372c-.344.3-.535.73-.524 1.175.01.79.628 1.45 1.443 1.543 4.035.503 7.317 4.257 7.317 8.392 0 .278.234.503.522.503a.513.513 0 0 0 .523-.503c0-4.623-3.695-8.834-8.231-9.392a.572.572 0 0 1-.523-.548.538.538 0 0 1 .183-.422.613.613 0 0 1 .475-.125c5.185.628 9.246 5.231 9.246 10.487 0 .278.234.503.522.503a.513.513 0 0 0 .523-.503h-.01zM8 11.47c0-3.418-2.612-6.68-5.948-7.429-.49-.109-1.005 0-1.399.296-.414.308-.655.78-.653 1.278-.007.74.525 1.385 1.284 1.559 1.816.41 3.292 2.327 3.292 4.275 0 .287.246.52.549.52.303 0 .549-.233.549-.52 0-2.436-1.839-4.753-4.154-5.278a.562.562 0 0 1-.209-1.008.572.572 0 0 1 .461-.103c2.865.638 5.103 3.46 5.103 6.42 0 .287.246.52.549.52.303 0 .549-.233.549-.52L8 11.47z"/>
</svg>
