<svg xmlns="http://www.w3.org/2000/svg" width="19" height="21" viewBox="0 0 19 21">
    <defs>
        <linearGradient id="a" x1="0%" y1="0%" y2="100%">
            <stop offset="0%" stop-color="#66A6FF"/>
            <stop offset="100%" stop-color="#89F7FE"/>
        </linearGradient>
    </defs>
    <path fill="url(#a)" fill-rule="evenodd" d="M44.975 39.97c-.292-.001-.57-.127-.762-.348l-3.921-4.463a8.627 8.627 0 0 1-8.06.625 8.702 8.702 0 0 1-5.066-6.334 8.77 8.77 0 0 1 4.11-9.231 8.67 8.67 0 0 1 10.027.828 8.782 8.782 0 0 1 2.555 9.782c-.2.528-.786.793-1.31.593-.525-.2-.79-.79-.59-1.318a6.74 6.74 0 0 0-.717-6.117 6.666 6.666 0 0 0-5.379-2.952 6.548 6.548 0 0 0-5.242 2.37 6.736 6.736 0 0 0 .078 8.7 6.65 6.65 0 0 0 8.558 1.308c.847-.5 1.929-.32 2.57.429l3.921 4.463c.263.3.327.729.163 1.094-.164.366-.526.6-.925.601l-.01-.03z" transform="translate(-27 -19)"/>
</svg>
