<svg xmlns="http://www.w3.org/2000/svg" width="12" height="13" viewBox="0 0 12 13">
    <path fill="#0C133E" fill-rule="evenodd" d="M11.353 12.981a.646.646 0 0 1-.481-.215l-2.477-2.763a5.544 5.544 0 0 1-5.09.387 5.41 5.41 0 0 1-3.2-3.92C-.348 4.214.692 1.923 2.7.753a5.564 5.564 0 0 1 6.333.513 5.367 5.367 0 0 1 1.614 6.056.645.645 0 0 1-.828.367.63.63 0 0 1-.372-.816 4.102 4.102 0 0 0-.453-3.787A4.232 4.232 0 0 0 5.597 1.26a4.172 4.172 0 0 0-3.31 1.467 4.107 4.107 0 0 0 .048 5.386 4.26 4.26 0 0 0 5.405.81 1.297 1.297 0 0 1 1.624.265l2.476 2.763a.625.625 0 0 1 .103.677.642.642 0 0 1-.584.372l-.006-.019z"/>
</svg>
