<svg xmlns="http://www.w3.org/2000/svg" width="9" height="15" viewBox="0 0 9 15">
    <path fill="#0C133E" fill-rule="evenodd" d="M7.071 15H6.43a.634.634 0 0 1-.643-.625c0-.345.288-.625.643-.625h.642c.355 0 .643-.28.643-.625V1.875a.634.634 0 0 0-.643-.625H1.93a.634.634 0 0 0-.643.625v11.25c0 .345.288.625.643.625h.642c.355 0 .643.28.643.625a.634.634 0 0 1-.643.625H1.93C.863 15 0 14.16 0 13.125V1.875C0 .839.863 0 1.929 0H7.07C8.137 0 9 .84 9 1.875v11.25C9 14.161 8.137 15 7.071 15zM4.5 13a.5.5 0 1 0 0 1 .5.5 0 0 0 0-1z"/>
</svg>
