<svg xmlns="http://www.w3.org/2000/svg" width="29" height="30" viewBox="0 0 64 65">
    <g fill="none" fill-rule="nonzero">
        <circle cx="32.2" cy="32.4" r="31.7" fill="#00A478"/>
        <path fill="#FFF" d="M28.6 29.4v-8.1H17.9v-7.1h29.9v7.2H37.1v8z"/>
        <path fill="#FFF" d="M32.6 26.2c11.2 0 17 3.1 17.7 4.1-.7 1-6.4 2.5-17.7 2.5-11.2 0-17-1.5-17.7-2.5.7-1.1 6.5-4.1 17.7-4.1zm0-.8c-10.7 0-19.3 2.2-19.3 4.9s8.6 4.9 19.3 4.9c10.7 0 19.3-2.2 19.3-4.9s-8.6-4.9-19.3-4.9z"/>
        <g fill="#FFF">
            <path d="M37.1 31.9v-5.6c-1.4-.1-2.9-.2-4.4-.2-1.4 0-2.7 0-4 .1v5.6c1.2 0 2.6.1 4 .1 1.5.1 3 .1 4.4 0zM32.6 35.2c-1.4 0-2.7 0-4-.1V50H37V35c-1.4.1-2.9.2-4.4.2z"/>
        </g>
    </g>
</svg>
