<svg xmlns="http://www.w3.org/2000/svg" width="22" height="28" viewBox="0 0 22 28">
    <path fill="#fff" fill-rule="evenodd" d="M18.704 22H9.432c-1.889 0-3.42-1.648-3.42-3.681v-4.908c0-.678.51-1.227 1.14-1.227.63 0 1.14.55 1.14 1.227v4.908c0 .678.51 1.227 1.14 1.227h9.317c.55 0 .998-.476 1.004-1.067V7.202c0-.286-.107-.56-.297-.76l-3.42-3.681a.98.98 0 0 0-.708-.32H9.273c-.55.007-.992.489-.992 1.08 0 .678-.51 1.227-1.14 1.227C6.51 4.748 6 4.2 6 3.521 6.006 1.575 7.475 0 9.284 0h6.056a3.195 3.195 0 0 1 2.28 1.03l3.421 3.682c.607.65.95 1.532.958 2.454v11.227a3.682 3.682 0 0 1-.941 2.55c-.62.68-1.47 1.06-2.354 1.057zm-2.75 2.372c0-.679-.51-1.23-1.14-1.23-.631 0-1.142.551-1.142 1.23 0 .593-.443 1.076-.993 1.082h-9.46c-.547-.006-.987-.481-.994-1.07V9.48c.007-.593.454-1.07 1.005-1.07h6.06a.97.97 0 0 1 .707.32l3.424 3.69c.19.2.296.475.297.762v1.414c0 .679.51 1.23 1.14 1.23.631 0 1.142-.551 1.142-1.23v-1.414a3.658 3.658 0 0 0-.959-2.46l-3.423-3.689A3.14 3.14 0 0 0 9.335 6h-6.06C1.465 6.007 0 7.59 0 9.542v14.916C0 26.414 1.472 28 3.287 28h9.46c1.793-.08 3.195-1.695 3.15-3.628h.057z"/>
</svg>
