<svg xmlns="http://www.w3.org/2000/svg" width="17" height="18" fill="none" viewBox="0 0 17 18">
    <path fill="#FF3953" d="M5.135 1.62h-.177a.18.18 0 0 0 .177-.18v.18h6.73v-.18c0 .099.08.18.177.18h-.177v1.62h1.593v-1.8A1.43 1.43 0 0 0 12.042 0H4.958a1.43 1.43 0 0 0-1.416 1.44v1.8h1.593V1.62zm11.157 1.62H.708A.713.713 0 0 0 0 3.96v.72c0 .099.08.18.177.18h1.337l.547 11.768c.035.767.66 1.372 1.414 1.372h10.05c.757 0 1.379-.603 1.414-1.372l.547-11.768h1.337A.18.18 0 0 0 17 4.68v-.72a.713.713 0 0 0-.708-.72zm-2.938 13.14H3.646L3.11 4.86h10.78l-.536 11.52z"/>
</svg>
