<svg xmlns="http://www.w3.org/2000/svg" width="20" height="16" fill="none" viewBox="0 0 20 16">
    <path fill="#6F5EFF" d="M13.97 10.779l1.11-1c.174-.156.476-.047.476.178V14.5c0 .828-.747 1.5-1.667 1.5H1.667C.747 16 0 15.328 0 14.5V3.502c0-.828.747-1.5 1.667-1.5h9.496c.247 0 .372.269.198.428l-1.11 1a.292.292 0 0 1-.199.072H1.667V14.5h12.222v-3.546c0-.066.028-.128.08-.175zm5.437-6.305l-9.119 8.205-3.139.312c-.91.09-1.684-.6-1.583-1.425l.347-2.824L15.032.537c.795-.716 2.08-.716 2.871 0l1.5 1.35c.795.715.795 1.874.004 2.587zm-3.431.965l-2.017-1.815-6.452 5.808-.253 2.04 2.267-.228 6.455-5.805zm2.25-2.49l-1.5-1.35a.392.392 0 0 0-.514 0l-1.073.965 2.018 1.816 1.073-.966a.31.31 0 0 0-.004-.465z"/>
</svg>
