<svg xmlns="http://www.w3.org/2000/svg" width="15" height="13" fill="none" viewBox="0 0 15 13">
    <path fill="#FC749A" d="M8.372 2.294a9.414 9.414 0 0 0-.872-.053c-1.288.006-2.623.32-3.886.92A9.899 9.899 0 0 0 .968 5.086C.578 5.5.08 6.097 0 6.735c.01.552.602 1.233.968 1.647.744.776 1.634 1.412 2.646 1.927a9.9 9.9 0 0 0 .103.05l-.938 1.638 1.275.754 6.892-12L9.72 0 8.372 2.294zm2.91.819l-.937 1.623c.431.56.687 1.25.687 1.999 0 1.865-1.581 3.378-3.533 3.378-.084 0-.166-.01-.249-.015l-.62 1.073c.286.03.575.053.87.057 1.289-.006 2.623-.323 3.886-.92a9.902 9.902 0 0 0 2.646-1.926c.39-.413.888-1.01.968-1.647-.01-.553-.602-1.234-.968-1.648-.744-.776-1.635-1.412-2.646-1.927l-.104-.047zm-3.783.243c.086 0 .17.004.255.01l-.726 1.256c-1.02.207-1.784 1.074-1.784 2.112 0 .26.048.51.137.741v.001l-.728 1.26a3.266 3.266 0 0 1-.687-2.002c0-1.865 1.582-3.378 3.533-3.378zm2.112 2.65L7.975 8.842c1.014-.21 1.773-1.073 1.773-2.107 0-.256-.051-.5-.137-.727z"/>
</svg>
