<svg xmlns="http://www.w3.org/2000/svg" width="57" height="57" fill="none" viewBox="0 0 57 57">
    <circle cx="28.5" cy="28.5" r="28.5" fill="#3C55A0"/>
    <path fill="#fff" d="M33.999 17.005L30.886 17c-3.496 0-5.756 2.318-5.756 5.906v2.724h-3.129a.49.49 0 0 0-.49.49v3.945c0 .27.22.49.49.49h3.13v9.956c0 .27.218.489.489.489h4.082c.27 0 .49-.22.49-.49v-9.956h3.659a.49.49 0 0 0 .489-.489l.002-3.946a.49.49 0 0 0-.49-.49h-3.66v-2.308c0-1.11.264-1.673 1.71-1.673h2.096c.27 0 .49-.22.49-.49v-3.664a.49.49 0 0 0-.49-.489z"/>
</svg>
