<svg xmlns="http://www.w3.org/2000/svg" width="27" height="18" fill="none" viewBox="0 0 27 18">
    <path fill="#BD4126" d="M9.473 10.42h4.219a5.368 5.368 0 0 1-5.094 3.578c-2.849-.021-5.204-2.3-5.315-5.147a5.365 5.365 0 0 1 5.355-5.572c1.384 0 2.646.527 3.598 1.39a.581.581 0 0 0 .79-.002l1.55-1.458a.58.58 0 0 0 .002-.842A8.607 8.607 0 0 0 8.81.002C4.048-.091.033 3.813 0 8.577a8.638 8.638 0 0 0 17.262.547c.007-.057.011-1.982.011-1.982h-7.8c-.32 0-.578.259-.578.578v2.122c0 .32.259.579.578.579zM24.42 7.334V5.262a.507.507 0 0 0-.507-.508h-1.744a.507.507 0 0 0-.508.508v2.072H19.59a.507.507 0 0 0-.508.507v1.745c0 .28.228.507.508.507h2.072v2.073c0 .28.227.507.508.507h1.744c.28 0 .507-.227.507-.507v-2.073h2.073c.28 0 .507-.227.507-.507V7.84a.507.507 0 0 0-.507-.507H24.42z"/>
</svg>
