<svg xmlns="http://www.w3.org/2000/svg" width="57" height="57" fill="none" viewBox="0 0 57 57">
    <circle cx="28.5" cy="28.5" r="28.5" fill="#3C6E9B"/>
    <path fill="#fff" d="M33.377 17H22.623A6.63 6.63 0 0 0 16 23.623v10.754A6.63 6.63 0 0 0 22.623 41h10.754A6.63 6.63 0 0 0 40 34.377V23.623A6.63 6.63 0 0 0 33.377 17zm4.494 17.377a4.499 4.499 0 0 1-4.494 4.494H22.623a4.499 4.499 0 0 1-4.494-4.494V23.623a4.499 4.499 0 0 1 4.494-4.494h10.754a4.499 4.499 0 0 1 4.494 4.494v10.754z"/>
    <path fill="#fff" d="M28 22.816A6.191 6.191 0 0 0 21.815 29 6.191 6.191 0 0 0 28 35.184 6.191 6.191 0 0 0 34.184 29 6.191 6.191 0 0 0 28 22.816zm0 10.239A4.06 4.06 0 0 1 23.945 29 4.06 4.06 0 0 1 28 24.945 4.06 4.06 0 0 1 32.054 29 4.06 4.06 0 0 1 28 33.055zM34.443 21.01a1.569 1.569 0 0 0-1.562 1.562c0 .41.168.814.46 1.105.289.29.692.457 1.102.457.412 0 .814-.168 1.105-.457.29-.291.457-.695.457-1.105 0-.412-.166-.815-.457-1.104a1.568 1.568 0 0 0-1.105-.457z"/>
</svg>
