<svg xmlns="http://www.w3.org/2000/svg" width="103" height="65" fill="none" viewBox="0 0 103 65">
    <mask id="a" width="797" height="465" x="-694" y="0" maskUnits="userSpaceOnUse">
        <path fill="#fff" stroke="#E5E2FF" stroke-width="1.978" d="M-692.95 11.872c0-6.01 4.872-10.883 10.882-10.883H90.601c6.01 0 10.883 4.873 10.883 10.883v440.496c0 6.011-4.873 10.883-10.883 10.883h-772.669c-6.01 0-10.882-4.872-10.882-10.883V11.872z"/>
    </mask>
    <g mask="url(#a)">
        <mask id="b" width="103" height="70" x="0" y="0" maskUnits="userSpaceOnUse">
            <path fill="#C4C4C4" d="M102.472 18.002c0 29.537-19.454 51.034-48.99 51.034C23.944 69.036 0 45.09 0 15.554 0 10.378 2.13 0 2.13 0h100.342v18.002z"/>
        </mask>
        <g mask="url(#b)">
            <path fill="url(#c)" d="M28.857-139.73c-13.124 7.485-20.9 21.725-20.705 36.834.135 10.528 2.803 24.06 12.01 38.573 20.596 32.463 25.77 47.215 10.504 89.555C15.4 67.572 63.288 81.034 92.63 41.186 121.972 1.338 82.7-27.645 88.84-68.21c5.327-35.178-23.566-92.288-59.984-71.519z"/>
            <path fill="url(#d)" d="M-10.495-179.704c-14.976 8.334-23 24.23-21.457 41.116 1.075 11.769 5.426 26.9 17.646 43.144C13.032-59.107 20.47-42.606 5.968 4.68-8.533 51.964 49.65 67.13 81.128 22.666c31.478-44.463-17.794-76.956-14-122.281 3.29-39.305-36.066-103.21-77.623-80.089z"/>
        </g>
    </g>
    <defs>
        <linearGradient id="c" x1="-7.755" x2="107.361" y1="-110.99" y2="32.464" gradientUnits="userSpaceOnUse">
            <stop offset=".797" stop-color="#E15590"/>
            <stop offset="1" stop-color="#A845A9"/>
        </linearGradient>
        <linearGradient id="d" x1="-54.727" x2="106.025" y1="-102.115" y2="-29.406" gradientUnits="userSpaceOnUse">
            <stop stop-color="#6F5EFF"/>
            <stop offset="1" stop-color="#F83656"/>
        </linearGradient>
    </defs>
</svg>
