<svg xmlns="http://www.w3.org/2000/svg" width="162" height="38" fill="none" viewBox="0 0 162 38">
    <path fill="#6F5EFF" d="M10.48 26.55H6.79L30.899 0h3.69L10.482 26.55z"/>
    <path fill="url(#a)" d="M23.43 26.55h-8.416L39.123 0h8.415L23.43 26.55z"/>
    <path fill="url(#b)" d="M41.018 16.589h-3.632v3.634h3.632v-3.634z"/>
    <path fill="url(#c)" d="M47.056 16.589h-3.633v3.634h3.633v-3.634z"/>
    <path fill="url(#d)" d="M41.018 22.307h-3.632v3.633h3.632v-3.633z"/>
    <path fill="url(#e)" d="M47.056 22.307h-3.633v3.633h3.633v-3.633z"/>
    <path fill="#6F5EFF" d="M74.689 34.968s-.293-.087-.841-.231c-.547-.151-1.359-.335-2.386-.556a74.41 74.41 0 0 0-8.549-1.262 82.117 82.117 0 0 0-5.713-.32 88.077 88.077 0 0 0-6.355.092c-1.099.056-2.215.14-3.343.23l-1.698.17-1.711.201c-.573.062-1.145.16-1.72.24-.576.076-1.15.178-1.726.27-1.155.175-2.304.41-3.454.635l-1.721.367c-.574.114-1.14.27-1.71.4l-.852.207-.897.213-.872.202c-.294.067-.608.127-.911.19l-.913.188-.902.16c-.3.053-.6.104-.9.15l-.898.122a44.942 44.942 0 0 1-3.56.35c-2.348.146-4.64.072-6.793-.171a31.14 31.14 0 0 1-5.967-1.286 28.461 28.461 0 0 1-2.53-.973 24.261 24.261 0 0 1-2.171-1.101 21.38 21.38 0 0 1-3.22-2.244 19.267 19.267 0 0 1-1.801-1.73c-.196-.209-.336-.38-.431-.493L0 28.817s.256.17.737.469c.479.303 1.199.717 2.128 1.188.93.467 2.08.98 3.433 1.433 1.349.465 2.903.863 4.613 1.15.857.134 1.748.267 2.68.33.464.045.94.066 1.418.096.483.015.97.035 1.466.032 1.982.01 4.073-.118 6.224-.4 1.076-.156 2.168-.309 3.269-.525a410 410 0 0 1 .827-.16l.83-.18.834-.177.82-.197c.277-.067.544-.126.829-.199.287-.077.575-.155.865-.231l.843-.222.895-.226a79.41 79.41 0 0 1 3.612-.841c1.217-.225 2.434-.46 3.656-.632l.915-.135c.305-.042.611-.072.915-.108.612-.064 1.219-.147 1.827-.193.608-.05 1.212-.108 1.815-.147l1.803-.084a57.765 57.765 0 0 1 3.537-.022c2.321.045 4.56.228 6.666.506 2.106.279 4.078.66 5.874 1.1 1.795.442 3.415.94 4.826 1.444a40.181 40.181 0 0 1 3.582 1.47 29.06 29.06 0 0 1 2.203 1.15c.496.287.747.462.747.462zM89.55 14.51h-2.472v5.512h-3.103V4.962h5.596c1.779 0 3.15.397 4.116 1.19.965.793 1.448 1.914 1.448 3.362 0 1.027-.224 1.885-.672 2.575-.442.683-1.114 1.227-2.017 1.634l3.258 6.154v.145h-3.33l-2.824-5.513zm-2.472-2.514h2.503c.779 0 1.382-.197 1.81-.59.427-.4.641-.948.641-1.644 0-.71-.203-1.269-.61-1.676-.4-.407-1.017-.61-1.852-.61h-2.492v4.52zm19.91 1.5h-5.958v4.033h6.992v2.493H97.927V4.962h10.074v2.514h-6.971v3.589h5.958v2.43zm15.524 6.526h-3.103l-6.04-9.909v9.909h-3.103V4.962h3.103l6.05 9.93v-9.93h3.093v15.06zm14.159-12.546h-4.613v12.546h-3.103V7.476h-4.551V4.963h12.267v2.513zm9.463 9.443h-5.44l-1.034 3.103h-3.3l5.606-15.06h2.876l5.636 15.06h-3.299l-1.045-3.103zm-4.602-2.513h3.765l-1.893-5.637-1.872 5.637zm13.88 3.123H162v2.493h-9.691V4.962h3.103V17.53zm-52.358 13.903h-1.31v2.605h-1.175v-6.761h2.378c.78 0 1.382.175 1.806.525.424.35.636.856.636 1.518 0 .452-.109.832-.329 1.138-.217.303-.52.537-.91.701l1.518 2.819v.06h-1.258l-1.356-2.605zm-1.31-.942h1.207c.397 0 .706-.1.929-.298.223-.2.335-.475.335-.822 0-.362-.104-.642-.312-.84-.204-.198-.51-.3-.919-.307h-1.24v2.267zm13.199.343c0 .663-.114 1.245-.343 1.746a2.613 2.613 0 0 1-.985 1.152c-.424.266-.913.4-1.467.4a2.735 2.735 0 0 1-1.468-.4 2.672 2.672 0 0 1-.993-1.147c-.233-.495-.35-1.067-.353-1.714v-.38c0-.66.116-1.242.348-1.746.235-.505.565-.89.989-1.157.427-.27.916-.404 1.468-.404a2.69 2.69 0 0 1 1.462.4c.428.263.757.643.989 1.142.233.495.35 1.073.353 1.732v.376zm-1.175-.353c0-.749-.142-1.323-.427-1.723-.281-.399-.682-.599-1.202-.599-.508 0-.906.2-1.194.6-.285.396-.43.958-.436 1.685v.39c0 .743.144 1.317.431 1.723.291.406.694.608 1.208.608.52 0 .919-.198 1.198-.594.282-.396.422-.975.422-1.737v-.353zm10.785.353c0 .663-.115 1.245-.344 1.746a2.61 2.61 0 0 1-.984 1.152c-.424.266-.913.4-1.468.4a2.73 2.73 0 0 1-1.467-.4 2.68 2.68 0 0 1-.994-1.147c-.232-.495-.35-1.067-.353-1.714v-.38c0-.66.116-1.242.349-1.746.235-.505.565-.89.989-1.157a2.69 2.69 0 0 1 1.467-.404c.551 0 1.039.133 1.463.4.427.263.757.643.989 1.142.232.495.35 1.073.353 1.732v.376zm-1.175-.353c0-.749-.142-1.323-.427-1.723-.282-.399-.683-.599-1.203-.599-.508 0-.905.2-1.193.6-.285.396-.431.958-.437 1.685v.39c0 .743.144 1.317.432 1.723.291.406.694.608 1.207.608.521 0 .92-.198 1.199-.594.281-.396.422-.975.422-1.737v-.353zm6.912-3.204l1.95 5.183 1.946-5.183h1.518v6.761h-1.17v-2.229l.116-2.981-1.997 5.21h-.84l-1.992-5.205.116 2.976v2.23h-1.17v-6.762h1.523zm13.385 5.02c0-.297-.106-.526-.316-.687-.207-.161-.584-.324-1.128-.488-.545-.164-.979-.347-1.301-.548-.616-.387-.924-.892-.924-1.514 0-.545.222-.994.664-1.347.446-.352 1.023-.529 1.732-.529.471 0 .89.087 1.259.26.368.174.658.421.868.743.211.32.316.674.316 1.064h-1.17c0-.353-.112-.629-.335-.827-.219-.201-.535-.302-.947-.302-.384 0-.683.082-.896.246-.211.164-.316.393-.316.688 0 .247.115.455.344.622.229.164.606.325 1.133.483.526.155.949.333 1.267.534.319.198.553.427.702.687.148.257.223.559.223.906 0 .563-.217 1.012-.651 1.346-.43.332-1.015.497-1.755.497-.489 0-.939-.09-1.351-.27a2.3 2.3 0 0 1-.957-.751 1.878 1.878 0 0 1-.339-1.115h1.175c0 .384.127.681.381.892.254.21.617.316 1.091.316.409 0 .715-.083.92-.247a.807.807 0 0 0 .311-.66z"/>
    <defs>
        <linearGradient id="a" x1="31.276" x2="31.276" y1="-.001" y2="26.55" gradientUnits="userSpaceOnUse">
            <stop stop-color="#6F5EFF"/>
            <stop offset="1" stop-color="#F83656"/>
        </linearGradient>
        <linearGradient id="b" x1="39.202" x2="39.202" y1="16.589" y2="20.223" gradientUnits="userSpaceOnUse">
            <stop stop-color="#6F5EFF"/>
            <stop offset="1" stop-color="#F83656"/>
        </linearGradient>
        <linearGradient id="c" x1="45.239" x2="45.239" y1="16.589" y2="20.223" gradientUnits="userSpaceOnUse">
            <stop stop-color="#6F5EFF"/>
            <stop offset="1" stop-color="#F83656"/>
        </linearGradient>
        <linearGradient id="d" x1="39.202" x2="39.202" y1="22.306" y2="25.94" gradientUnits="userSpaceOnUse">
            <stop stop-color="#6F5EFF"/>
            <stop offset="1" stop-color="#F83656"/>
        </linearGradient>
        <linearGradient id="e" x1="45.239" x2="45.239" y1="22.306" y2="25.94" gradientUnits="userSpaceOnUse">
            <stop stop-color="#6F5EFF"/>
            <stop offset="1" stop-color="#F83656"/>
        </linearGradient>
    </defs>
</svg>
