<svg xmlns="http://www.w3.org/2000/svg" width="95" height="43" fill="none" viewBox="0 0 95 43">
    <path fill="#6F5EFF" d="M13.33 30.466H8.637L39.3 0h4.695L13.331 30.466z"/>
    <path fill="url(#a)" d="M29.801 30.466H19.096L49.762 0h10.704L29.801 30.466z"/>
    <path fill="url(#b)" d="M52.173 19.036h-4.62v4.17h4.62v-4.17z"/>
    <path fill="url(#c)" d="M59.852 19.036h-4.62v4.17h4.62v-4.17z"/>
    <path fill="url(#d)" d="M52.173 25.597h-4.62v4.17h4.62v-4.17z"/>
    <path fill="url(#e)" d="M59.852 25.597h-4.62v4.17h4.62v-4.17z"/>
    <path fill="#6F5EFF" d="M95 40.127s-.372-.101-1.07-.266c-.696-.174-1.727-.384-3.035-.638a104.257 104.257 0 0 0-10.873-1.448c-2.25-.186-4.69-.318-7.267-.368a124.109 124.109 0 0 0-8.083.106c-1.398.064-2.817.161-4.251.265l-2.16.194-2.178.231c-.728.071-1.455.184-2.188.274-.732.088-1.462.205-2.194.312-1.47.2-2.931.47-4.394.728l-2.189.42c-.73.132-1.45.31-2.174.461l-1.084.237-1.141.244-1.109.232c-.374.076-.774.146-1.16.218l-1.16.216c-.384.06-.767.122-1.148.183-.382.06-.762.12-1.143.171l-1.144.142c-1.52.188-3.033.325-4.527.402a55.298 55.298 0 0 1-8.641-.197 43.33 43.33 0 0 1-7.59-1.476 38.684 38.684 0 0 1-3.218-1.116c-.994-.41-1.924-.821-2.761-1.265a27.423 27.423 0 0 1-4.096-2.574A23.585 23.585 0 0 1 .731 33.83c-.248-.239-.427-.435-.548-.565L0 33.067s.325.195.938.539c.608.348 1.524.823 2.706 1.364a35.471 35.471 0 0 0 4.367 1.644c1.715.533 3.692.99 5.867 1.32 1.091.153 2.224.305 3.41.378.59.051 1.194.076 1.803.11.614.018 1.234.04 1.864.037 2.522.012 5.18-.136 7.917-.46 1.368-.178 2.757-.353 4.158-.602l1.051-.183 1.057-.207 1.06-.202 1.043-.226c.353-.077.693-.145 1.054-.23.366-.088.733-.177 1.1-.264l1.074-.255 1.138-.26c1.516-.36 3.053-.666 4.593-.965 1.549-.258 3.097-.528 4.651-.724l1.164-.156c.387-.048.778-.082 1.164-.123.779-.074 1.55-.17 2.324-.223.774-.056 1.541-.123 2.309-.168l2.293-.096c1.52-.042 3.02-.067 4.498-.026 2.953.053 5.801.262 8.479.58 2.68.321 5.188.76 7.472 1.264a67.947 67.947 0 0 1 6.138 1.657 54.376 54.376 0 0 1 4.556 1.687c1.236.519 2.17.996 2.803 1.32.63.329.949.53.949.53z"/>
    <defs>
        <linearGradient id="a" x1="39.781" x2="39.781" y1="-.001" y2="30.466" gradientUnits="userSpaceOnUse">
            <stop stop-color="#6F5EFF"/>
            <stop offset="1" stop-color="#F83656"/>
        </linearGradient>
        <linearGradient id="b" x1="49.863" x2="49.863" y1="19.036" y2="23.206" gradientUnits="userSpaceOnUse">
            <stop stop-color="#6F5EFF"/>
            <stop offset="1" stop-color="#F83656"/>
        </linearGradient>
        <linearGradient id="c" x1="57.542" x2="57.542" y1="19.036" y2="23.206" gradientUnits="userSpaceOnUse">
            <stop stop-color="#6F5EFF"/>
            <stop offset="1" stop-color="#F83656"/>
        </linearGradient>
        <linearGradient id="d" x1="49.863" x2="49.863" y1="25.597" y2="29.767" gradientUnits="userSpaceOnUse">
            <stop stop-color="#6F5EFF"/>
            <stop offset="1" stop-color="#F83656"/>
        </linearGradient>
        <linearGradient id="e" x1="57.542" x2="57.542" y1="25.597" y2="29.767" gradientUnits="userSpaceOnUse">
            <stop stop-color="#6F5EFF"/>
            <stop offset="1" stop-color="#F83656"/>
        </linearGradient>
    </defs>
</svg>
