<svg xmlns="http://www.w3.org/2000/svg" width="34" height="30" fill="none" viewBox="0 0 34 30">
    <path fill="#FF3953" fill-rule="evenodd" d="M9.492 7.383a7.383 7.383 0 1 1 14.766 0c0 3.296-4.825 9.305-6.674 11.485a.924.924 0 0 1-1.418 0c-1.849-2.18-6.674-8.189-6.674-11.485zm-9.17 5.96c.21-.31.509-.55.857-.69l6.95-2.78c.304.872.728 1.784 1.246 2.72V26.25l-8.09 3.682A.938.938 0 0 1 0 29.062V14.393c0-.375.112-.74.323-1.051zm14.414 6.738a2.8 2.8 0 0 0 4.278 0 61.876 61.876 0 0 0 3.486-4.495v14.413l-11.25-3.75V15.585a61.933 61.933 0 0 0 3.486 4.496zm9.639-6.956l8.09-3.682a.938.938 0 0 1 1.285.87v14.668a1.874 1.874 0 0 1-1.179 1.74L24.375 30V13.125zm-7.5-1.875a4.375 4.375 0 1 0 0-8.75 4.375 4.375 0 0 0 0 8.75z" clip-rule="evenodd"/>
</svg>
