<svg xmlns="http://www.w3.org/2000/svg" width="215" height="116" fill="none" viewBox="0 0 215 116">
    <mask id="a" width="785" height="544" x="-570" y="-428" maskUnits="userSpaceOnUse">
        <path fill="#F2F2F2" stroke="#E5E2FF" stroke-width="1.978" d="M-177.506 114.17H-557.786c-6.025 0-10.91-4.885-10.91-10.91v-518.966c0-6.026 4.885-10.91 10.91-10.91h760.555c6.025 0 10.91 4.884 10.91 10.91v519.804c0 6.035-4.899 10.923-10.934 10.91l-380.251-.838z"/>
    </mask>
    <g mask="url(#a)">
        <path fill="url(#b)" d="M448.62 266.907c2.219-35.493-15.762-69.182-45.743-88.309-20.894-13.33-50.968-25.555-91.415-26.176-90.478-1.393-126.188-10.263-189.792-94.977C58.066-27.27-30.265 49.58 10.259 158.778c40.523 109.196 148.27 69.344 220.165 133.813 62.346 55.907 212.038 72.798 218.196-25.684z"/>
        <path fill="url(#c)" d="M578.096 241.09c2.941-40.232-17.979-76.547-53.199-95.319-24.547-13.081-59.941-24.06-107.687-20.989-106.806 6.873-148.883.202-223.203-89.395-74.322-89.597-179.302 5.31-132.453 124.672 46.849 119.359 174.414 64.361 258.708 130.355 73.096 57.23 249.669 62.309 257.834-49.324z"/>
    </g>
    <defs>
        <linearGradient id="b" x1="439.344" x2="8.401" y1="157.747" y2="199.028" gradientUnits="userSpaceOnUse">
            <stop offset=".797" stop-color="#E15590"/>
            <stop offset="1" stop-color="#A845A9"/>
        </linearGradient>
        <linearGradient id="c" x1="482.534" x2="131.872" y1="53.856" y2="276.294" gradientUnits="userSpaceOnUse">
            <stop stop-color="#6F5EFF"/>
            <stop offset="1" stop-color="#F83656"/>
        </linearGradient>
    </defs>
</svg>
