<svg xmlns="http://www.w3.org/2000/svg" width="110" height="110" fill="none" viewBox="0 0 110 110">
    <g clip-path="url(#a)">
        <path fill="#0E0F0F" d="M88 64.167V38.5c.026-12.06-8.985-22.227-20.96-23.65l6.11-12.198A1.833 1.833 0 0 0 71.5 0h-33a1.835 1.835 0 0 0-1.64 2.652l6.102 12.198C31.006 16.311 22.015 26.455 22 38.5v33h3.667v-33c.013-11.133 9.034-20.153 20.166-20.167h18.334A20.134 20.134 0 0 1 84.333 38.5v25.667H88zm-24.967-49.5H46.967l-5.5-11h27.066l-5.5 11z"/>
        <path fill="#0E0F0F" d="M39.417 27.388a12.706 12.706 0 0 1 3.206-1.316l-.916-3.55a16.543 16.543 0 0 0-4.127 1.693l1.837 3.173zM29.333 45.833H33V38.5a12.736 12.736 0 0 1 3.897-9.203l-2.554-2.63a16.37 16.37 0 0 0-5.01 11.833v7.333z"/>
        <path fill="url(#b)" d="M90.5 75.5c0 2.956-15.447 4.5-29.254 4.5C47.438 80 38 79.685 38 76.73c0-1.068.55-4.022 4.825-5.054 2.934-.71 9.248.394 11.842 0C58.75 71.054 64.185 69 69.579 69c5.014 0 4.858.348 8.772.892 6.864.954 12.149 3.726 12.149 5.608z"/>
        <path fill="#0E0F0F" d="M5.229 90.105l31.124 16.975A23.826 23.826 0 0 0 47.777 110h60.39a1.833 1.833 0 0 0 1.833-1.833v-33a1.833 1.833 0 0 0-1.833-1.834h-14.03l-.21-.162a29.022 29.022 0 0 0-7.07-4.066A29.736 29.736 0 0 0 59.74 71.5H45.833a9.168 9.168 0 0 0-8.746 11.917L14.422 72.06a9.808 9.808 0 0 0-10.386.994A10.081 10.081 0 0 0 0 81.107v.202a9.992 9.992 0 0 0 5.229 8.796zM95.333 77h11v29.333h-11V77zM3.667 81.107a6.477 6.477 0 0 1 2.657-5.188 6.135 6.135 0 0 1 6.458-.58l28.566 14.3c.253.128.534.194.819.194h27.5v-3.666H45.833a5.5 5.5 0 0 1 0-11H60.28c.359-.001.71-.106 1.01-.303a26.066 26.066 0 0 1 24.2-2.358 25.462 25.462 0 0 1 6.177 3.55v30.277h-43.89a20.164 20.164 0 0 1-9.666-2.471L6.979 86.884a6.328 6.328 0 0 1-3.311-5.575v-.202z"/>
        <path fill="#000" d="M99 97.167h3.667v3.666H99v-3.666z"/>
        <path fill="#0E0F0F" d="M61.25 40.531a.442.442 0 0 0-.327-.128h-2.429c-.16-.785-.464-1.467-.909-2.045h3.31a.444.444 0 0 0 .326-.128.444.444 0 0 0 .128-.326v-1.45a.444.444 0 0 0-.127-.326.444.444 0 0 0-.328-.128H49.078a.443.443 0 0 0-.327.128.443.443 0 0 0-.128.327v1.889c0 .123.045.23.135.32.09.09.197.134.32.134h2.06c1.997 0 3.266.535 3.806 1.605h-5.866a.442.442 0 0 0-.327.128.443.443 0 0 0-.128.327v1.449c0 .132.043.241.128.326a.443.443 0 0 0 .327.128h6.065c-.208.777-.694 1.368-1.456 1.776-.763.407-1.769.61-3.019.61h-1.59a.437.437 0 0 0-.32.135.437.437 0 0 0-.135.32v1.804c0 .123.043.227.128.313 1.818 1.931 4.176 4.635 7.074 8.11.085.114.203.17.355.17h2.77c.199 0 .336-.084.412-.255.094-.17.076-.331-.057-.483-2.765-3.39-4.939-5.928-6.52-7.614 1.61-.189 2.917-.71 3.92-1.562 1.004-.852 1.615-1.96 1.833-3.324h2.386a.442.442 0 0 0 .327-.128.442.442 0 0 0 .128-.326v-1.449a.442.442 0 0 0-.128-.327z"/>
    </g>
    <defs>
        <linearGradient id="b" x1="63" x2="63" y1="68.999" y2="82.081" gradientUnits="userSpaceOnUse">
            <stop stop-color="#6F5EFF"/>
            <stop offset="1" stop-color="#F83656"/>
        </linearGradient>
        <clipPath id="a">
            <path fill="#fff" d="M0 0h110v110H0z"/>
        </clipPath>
    </defs>
</svg>
