<svg xmlns="http://www.w3.org/2000/svg" width="111" height="109" fill="none" viewBox="0 0 111 109">
    <path fill="#000" d="M55.4 108.382H4.37c-2.979 0-4.17-1.433-4.369-4.837V62.7 6.628C0 1.791 1.787 0 6.553 0h97.894C109.213 0 111 1.791 111 6.628v96.917c0 3.583-1.191 4.837-4.766 4.837H55.401zM3.178 31.529v67.538c0 3.941 1.787 5.732 5.56 5.911h93.526c3.773 0 5.56-1.97 5.56-5.911v-58.76-2.329c-34.948 0-69.698-6.449-104.646-6.449zm104.646 3.583V9.136c0-4.478-1.39-5.732-5.56-5.732H7.546c-2.185 0-3.376 1.075-3.773 3.224-.199 1.075-.397 2.15-.397 3.225 0 7.703-.199 18.63 0 19.168 34.75 0 69.499 6.091 104.447 6.091z"/>
    <path fill="url(#a)" d="M99.466 26.233c-14.654-1.447-16.238-1.447-32.872-.905-2.376 0-5.346-2.532-4.95-4.883 1.188-3.256 1.188-4.884.396-8.682-.396-2.17.396-3.98 5.346-4.522 17.228-.723 19.803-.543 32.872.904 3.367.543 5.941 1.628 4.951 4.884-1.386 3.617-.396 6.33-.396 8.682-.198 2.532-2.773 4.522-5.347 4.522z"/>
    <path fill="url(#b)" d="M46.237 24.802c-15.01-.527-16.612-.527-33.224.703-2.401.175-5.604-2.108-5.203-4.39 1-3.161.8-4.742-.2-8.43-.601-2.107.2-3.863 5.003-4.565 17.213-1.58 20.014-1.58 33.224-.702 3.402.35 6.204 1.229 5.204 4.39-1.201 3.512 0 6.146.2 8.428.2 2.459-2.402 4.566-5.004 4.566z"/>
    <defs>
        <linearGradient id="a" x1="83.516" x2="83.516" y1="6.827" y2="26.233" gradientUnits="userSpaceOnUse">
            <stop stop-color="#6F5EFF"/>
            <stop offset="1" stop-color="#F83656"/>
        </linearGradient>
        <linearGradient id="b" x1="29.344" x2="29.344" y1="6.827" y2="25.514" gradientUnits="userSpaceOnUse">
            <stop stop-color="#6F5EFF"/>
            <stop offset="1" stop-color="#F83656"/>
        </linearGradient>
    </defs>
</svg>
