<svg xmlns="http://www.w3.org/2000/svg" width="18" height="19" fill="none" viewBox="0 0 18 19">
    <path fill="#AFAFAF" d="M15 13.363c-.76 0-1.44.285-1.96.731l-7.13-3.939c.05-.218.09-.436.09-.664 0-.228-.04-.446-.09-.664l7.05-3.901c.54.474 1.25.769 2.04.769 1.66 0 3-1.272 3-2.848C18 1.272 16.66 0 15 0s-3 1.272-3 2.847c0 .228.04.446.09.665l-7.05 3.9A3.075 3.075 0 0 0 3 6.644c-1.66 0-3 1.271-3 2.847 0 1.575 1.34 2.847 3 2.847.79 0 1.5-.294 2.04-.768l7.12 3.948c-.05.2-.08.408-.08.617 0 1.528 1.31 2.771 2.92 2.771 1.61 0 2.92-1.243 2.92-2.771 0-1.528-1.31-2.772-2.92-2.772z"/>
</svg>
