<svg xmlns="http://www.w3.org/2000/svg" width="124" height="109" fill="none" viewBox="0 0 124 109">
    <path fill="url(#a)" d="M45.534 26.033c-14.606-1.47-16.185-1.47-32.765-.919-2.369 0-5.33-2.57-4.935-4.957 1.185-3.306 1.185-4.958.395-8.815-.395-2.203.395-4.04 5.33-4.59 17.171-.735 19.737-.551 32.764.918 3.356.55 5.922 1.653 4.935 4.958-1.382 3.672-.395 6.427-.395 8.814-.197 2.57-2.763 4.59-5.33 4.59z"/>
    <path fill="#0E0F0F" d="M58.49 54.176v48.236c0 4.68-1.397 5.94-6.787 5.94H5.19c-3.593 0-4.99-1.44-4.99-5.04 0-17.638 0-35.277-.2-52.916V6.48C0 1.8 2.196 0 7.187 0 21.959 0 36.93 0 51.703.18c4.791 0 6.388 1.44 6.388 5.76.2 16.198.2 32.217.4 48.236-.2 0-.2 0 0 0zM3.794 31.318v66.955c0 5.039 1.797 6.659 7.386 6.659h37.13c4.592 0 6.588-1.8 6.588-5.94V37.978c-17.167 0-33.936-6.66-51.104-6.66zm50.905 3.78V7.738c0-.36-.2-.54-.2-.9C53.9 4.5 52.502 3.6 49.907 3.6H8.584c-2.396 0-3.793 1.26-4.392 3.06-.4 1.08-.4 2.16-.4 3.24v17.279c0 .54.2 1.08.2 1.8 16.969 0 33.738 6.12 50.706 6.12z"/>
    <path fill="url(#b)" d="M111.043 26.033c-14.606-1.47-16.185-1.47-32.765-.919-2.369 0-5.33-2.57-4.935-4.957 1.185-3.306 1.185-4.958.395-8.815-.395-2.203.395-4.04 5.33-4.59 17.172-.735 19.737-.551 32.765.918 3.355.55 5.921 1.653 4.934 4.958-1.382 3.672-.395 6.427-.395 8.814-.197 2.57-2.763 4.59-5.329 4.59z"/>
    <path fill="#0E0F0F" d="M124 54.176v48.236c0 4.68-1.397 5.94-6.787 5.94H70.699c-3.593 0-4.99-1.44-4.99-5.04 0-17.638 0-35.277-.2-52.916V6.48C65.51 1.8 67.705 0 72.696 0c14.772 0 29.744 0 44.517.18 4.791 0 6.388 1.44 6.388 5.76.399 16.198.399 32.217.399 48.236zM69.502 31.318v66.955c0 5.039 1.796 6.659 7.386 6.659h37.131c4.591 0 6.587-1.8 6.587-5.94V37.978c-17.168 0-34.136-6.66-51.104-6.66zm50.905 3.78V7.738c0-.36-.2-.54-.2-.9-.599-2.34-1.996-3.24-4.591-3.24H74.293c-2.396 0-3.793 1.26-4.392 3.06-.4 1.08-.4 2.16-.4 3.24v17.279c0 .54.2 1.08.2 1.8 16.769 0 33.538 6.12 50.706 6.12z"/>
    <defs>
        <linearGradient id="a" x1="29.635" x2="29.635" y1="6.331" y2="26.033" gradientUnits="userSpaceOnUse">
            <stop stop-color="#6F5EFF"/>
            <stop offset="1" stop-color="#F83656"/>
        </linearGradient>
        <linearGradient id="b" x1="95.144" x2="95.144" y1="6.331" y2="26.033" gradientUnits="userSpaceOnUse">
            <stop stop-color="#6F5EFF"/>
            <stop offset="1" stop-color="#F83656"/>
        </linearGradient>
    </defs>
</svg>
