<svg xmlns="http://www.w3.org/2000/svg" width="10" height="9" fill="none" viewBox="0 0 10 9">
    <path fill="#A8A8A8" d="M.222 7.62l2.946-3.124L.222 1.37a.846.846 0 0 1 0-1.136.756.756 0 0 1 .245-.174.72.72 0 0 1 .825.174l3.486 3.697a.837.837 0 0 1 0 1.136L1.292 8.764a.755.755 0 0 1-.245.175.719.719 0 0 1-.825-.175.855.855 0 0 1 0-1.143z"/>
    <path fill="#A8A8A8" d="M5.222 7.62l2.946-3.124L5.222 1.37a.845.845 0 0 1 0-1.136.756.756 0 0 1 .245-.174.72.72 0 0 1 .825.174l3.486 3.697a.837.837 0 0 1 0 1.136L6.292 8.764a.755.755 0 0 1-.245.175.719.719 0 0 1-.825-.175.855.855 0 0 1 0-1.143z"/>
</svg>
