<svg width="57" height="57" viewBox="0 0 57 57" fill="none" xmlns="http://www.w3.org/2000/svg">
<circle cx="28.5" cy="28.5" r="28.5" fill="#00AAE9"/>
<path d="M40.6154 21.3677C39.7 21.7692 38.7246 22.0354 37.7077 22.1646C38.7538 21.54 39.5523 20.5585 39.9277 19.3754C38.9523 19.9569 37.8754 20.3677 36.7277 20.5969C35.8015 19.6108 34.4815 19 33.0415 19C30.2477 19 27.9985 21.2677 27.9985 24.0477C27.9985 24.4477 28.0323 24.8323 28.1154 25.1985C23.92 24.9938 20.2077 22.9831 17.7138 19.92C17.2785 20.6754 17.0231 21.54 17.0231 22.4708C17.0231 24.2185 17.9231 25.7677 19.2646 26.6646C18.4538 26.6492 17.6585 26.4138 16.9846 26.0431C16.9846 26.0585 16.9846 26.0785 16.9846 26.0985C16.9846 28.5508 18.7338 30.5877 21.0277 31.0569C20.6169 31.1692 20.1692 31.2231 19.7046 31.2231C19.3815 31.2231 19.0554 31.2046 18.7492 31.1369C19.4031 33.1354 21.2585 34.6046 23.4646 34.6523C21.7477 35.9954 19.5677 36.8046 17.2077 36.8046C16.7938 36.8046 16.3969 36.7862 16 36.7354C18.2354 38.1769 20.8846 39 23.7415 39C33.0277 39 38.1046 31.3077 38.1046 24.64C38.1046 24.4169 38.0969 24.2015 38.0862 23.9877C39.0877 23.2769 39.9292 22.3892 40.6154 21.3677Z" fill="white"/>
</svg>
