<svg xmlns="http://www.w3.org/2000/svg" width="106" height="106" fill="none" viewBox="0 0 106 106">
    <path fill="url(#a)" d="M92 56h12v16H92z"/>
    <path fill="#0E0F0F" d="M91.675 46.146h-2.864v4.472h2.864v-4.472zM91.675 39.44h-2.864v4.471h2.864V39.44zM88.81 37.202h2.865v-2.865l-1.432-1.433h-2.865v2.865h1.432v1.433zM48.805 32.904H42.87v2.865h5.935v-2.865zM39.903 32.904H33.97v2.865h5.934v-2.865zM31.002 32.904h-5.935v2.865h5.935v-2.865zM84.412 32.904h-5.934v2.865h5.934v-2.865zM13.2 32.904H7.266v2.865H13.2v-2.865zM75.51 32.904h-5.936v2.865h5.936v-2.865zM22.1 32.904h-5.934v2.865H22.1v-2.865zM66.607 32.904h-5.934v2.865h5.934v-2.865zM57.707 32.904h-5.935v2.865h5.935v-2.865zM22.101 93.066h-5.936v2.865h5.936v-2.865zM13.2 93.066H7.264v2.865h5.934v-2.865zM75.509 93.066h-5.935v2.865h5.935v-2.865zM84.412 93.066h-5.936v2.865h5.936v-2.865zM31.002 93.066h-5.935v2.865h5.935v-2.865zM39.903 93.066h-5.936v2.865h5.936v-2.865zM57.706 93.066h-5.934v2.865h5.934v-2.865zM48.805 93.066H42.87v2.865h5.935v-2.865zM66.607 93.066h-5.934v2.865h5.934v-2.865zM88.81 93.066h-1.432v2.865h2.865l1.432-1.432v-2.865H88.81v1.432zM91.675 78.128h-2.864v4.502h2.864v-4.502zM91.675 84.88h-2.864v4.504h2.864V84.88zM75.919 64.418c0 3.16 2.57 5.73 5.73 5.73 3.16 0 5.73-2.57 5.73-5.73 0-3.16-2.57-5.73-5.73-5.73-3.16 0-5.73 2.57-5.73 5.73zm5.73-2.865a2.868 2.868 0 0 1 2.865 2.865 2.868 2.868 0 0 1-2.865 2.865 2.868 2.868 0 0 1-2.865-2.865 2.868 2.868 0 0 1 2.865-2.865z"/>
    <path fill="#0E0F0F" d="M104.568 54.391h-7.193l.03-20.054c0-3.95-3.213-7.162-7.162-7.162h-.607V13.456l-1.7-1.406-10.237 1.948-3.303-8.811-1.82-.848-64.23 22.836H1.433L0 28.607v71.622l1.432 1.432h88.811c3.95 0 7.162-3.213 7.162-7.165l-.03-20.052 7.193.001L106 73.013v-17.19l-1.432-1.432zm-32.36-46.88l2.636 7.03-48.224 9.177L72.21 7.51zm14.564 7.676v11.988H23.784l62.988-11.988zm3.471 83.61H2.865V95.93h1.432v-2.865H2.865V35.77h1.432v-2.865H2.865V30.04h87.378a4.302 4.302 0 0 1 4.297 4.295l-.03 20.057h-2.835v-1.537h-2.864v1.537H78.783c-3.949 0-7.162 3.213-7.162 7.162v5.73c0 3.95 3.213 7.162 7.163 7.162H88.81v1.43h2.864v-1.431h2.835l.03 20.055a4.302 4.302 0 0 1-4.297 4.297zm12.892-27.217l-7.195-.001H78.784a4.302 4.302 0 0 1-4.298-4.296v-5.73a4.302 4.302 0 0 1 4.297-4.297h24.352V71.58z"/>
    <defs>
        <linearGradient id="a" x1="98" x2="98" y1="55.999" y2="75.027" gradientUnits="userSpaceOnUse">
            <stop stop-color="#6F5EFF"/>
            <stop offset="1" stop-color="#F83656"/>
        </linearGradient>
    </defs>
</svg>
